<ttFont>
    <TTGlyph name=".notdef" xMin="65" yMin="176" xMax="201" yMax="312">
      <contour>
        <pt x="65" y="243" on="1"/>
        <pt x="65" y="270" on="0"/>
        <pt x="104" y="312" on="0"/>
        <pt x="133" y="312" on="1"/>
        <pt x="146" y="312" on="0"/>
        <pt x="171" y="301" on="0"/>
        <pt x="190" y="281" on="0"/>
        <pt x="201" y="256" on="0"/>
        <pt x="201" y="243" on="1"/>
        <pt x="201" y="214" on="0"/>
        <pt x="159" y="176" on="0"/>
        <pt x="133" y="176" on="1"/>
        <pt x="104" y="176" on="0"/>
        <pt x="65" y="214" on="0"/>
      </contour>
    </TTGlyph>
    <TTGlyph name="A" xMin="5" yMin="0" xMax="650" yMax="660">
      <contour>
        <pt x="650" y="0" on="1"/>
        <pt x="565" y="0" on="1"/>
        <pt x="468" y="222" on="1"/>
        <pt x="173" y="222" on="1"/>
        <pt x="85" y="0" on="1"/>
        <pt x="5" y="0" on="1"/>
        <pt x="269" y="660" on="1"/>
        <pt x="360" y="660" on="1"/>
      </contour>
      <contour>
        <pt x="201" y="292" on="1"/>
        <pt x="437" y="292" on="1"/>
        <pt x="313" y="576" on="1"/>
      </contour>
    </TTGlyph>
    <TTGlyph name="AE" xMin="-7" yMin="0" xMax="719" yMax="660">
      <contour>
        <pt x="719" y="0" on="1"/>
        <pt x="387" y="0" on="1"/>
        <pt x="387" y="222" on="1"/>
        <pt x="192" y="222" on="1"/>
        <pt x="75" y="0" on="1"/>
        <pt x="-7" y="0" on="1"/>
        <pt x="345" y="660" on="1"/>
        <pt x="699" y="660" on="1"/>
        <pt x="699" y="590" on="1"/>
        <pt x="462" y="590" on="1"/>
        <pt x="462" y="385" on="1"/>
        <pt x="632" y="385" on="1"/>
        <pt x="632" y="315" on="1"/>
        <pt x="462" y="315" on="1"/>
        <pt x="462" y="70" on="1"/>
        <pt x="719" y="70" on="1"/>
      </contour>
      <contour>
        <pt x="387" y="292" on="1"/>
        <pt x="387" y="588" on="1"/>
        <pt x="229" y="292" on="1"/>
      </contour>
    </TTGlyph>
    <TTGlyph name="Aacute" xMin="5" yMin="0" xMax="650" yMax="848">
      <contour>
        <pt x="650" y="0" on="1"/>
        <pt x="565" y="0" on="1"/>
        <pt x="468" y="222" on="1"/>
        <pt x="173" y="222" on="1"/>
        <pt x="85" y="0" on="1"/>
        <pt x="5" y="0" on="1"/>
        <pt x="269" y="660" on="1"/>
        <pt x="360" y="660" on="1"/>
      </contour>
      <contour>
        <pt x="201" y="292" on="1"/>
        <pt x="437" y="292" on="1"/>
        <pt x="313" y="576" on="1"/>
      </contour>
      <contour>
        <pt x="220" y="721" on="1"/>
        <pt x="214" y="741" on="1"/>
        <pt x="217" y="748" on="1"/>
        <pt x="397" y="848" on="1"/>
        <pt x="414" y="847" on="0"/>
        <pt x="432" y="828" on="0"/>
        <pt x="432" y="814" on="1"/>
        <pt x="432" y="809" on="0"/>
        <pt x="431" y="800" on="0"/>
        <pt x="429" y="795" on="1"/>
        <pt x="227" y="718" on="1"/>
      </contour>
    </TTGlyph>
    <TTGlyph name="Acircumflex" xMin="5" yMin="0" xMax="650" yMax="842">
      <contour>
        <pt x="650" y="0" on="1"/>
        <pt x="565" y="0" on="1"/>
        <pt x="468" y="222" on="1"/>
        <pt x="173" y="222" on="1"/>
        <pt x="85" y="0" on="1"/>
        <pt x="5" y="0" on="1"/>
        <pt x="269" y="660" on="1"/>
        <pt x="360" y="660" on="1"/>
      </contour>
      <contour>
        <pt x="201" y="292" on="1"/>
        <pt x="437" y="292" on="1"/>
        <pt x="313" y="576" on="1"/>
      </contour>
      <contour>
        <pt x="330" y="842" on="1"/>
        <pt x="440" y="743" on="1"/>
        <pt x="443" y="736" on="1"/>
        <pt x="437" y="716" on="1"/>
        <pt x="430" y="713" on="1"/>
        <pt x="326" y="775" on="1"/>
        <pt x="222" y="713" on="1"/>
        <pt x="215" y="716" on="1"/>
        <pt x="209" y="736" on="1"/>
        <pt x="212" y="743" on="1"/>
        <pt x="322" y="842" on="1"/>
      </contour>
    </TTGlyph>
    <TTGlyph name="Adieresis" xMin="5" yMin="0" xMax="650" yMax="839">
      <contour>
        <pt x="650" y="0" on="1"/>
        <pt x="565" y="0" on="1"/>
        <pt x="468" y="222" on="1"/>
        <pt x="173" y="222" on="1"/>
        <pt x="85" y="0" on="1"/>
        <pt x="5" y="0" on="1"/>
        <pt x="269" y="660" on="1"/>
        <pt x="360" y="660" on="1"/>
      </contour>
      <contour>
        <pt x="201" y="292" on="1"/>
        <pt x="437" y="292" on="1"/>
        <pt x="313" y="576" on="1"/>
      </contour>
      <contour>
        <pt x="204" y="794" on="1"/>
        <pt x="204" y="812" on="0"/>
        <pt x="228" y="839" on="0"/>
        <pt x="245" y="839" on="1"/>
        <pt x="262" y="839" on="0"/>
        <pt x="287" y="812" on="0"/>
        <pt x="287" y="794" on="1"/>
        <pt x="287" y="775" on="0"/>
        <pt x="262" y="750" on="0"/>
        <pt x="245" y="750" on="1"/>
        <pt x="228" y="750" on="0"/>
        <pt x="204" y="775" on="0"/>
      </contour>
      <contour>
        <pt x="361" y="794" on="1"/>
        <pt x="361" y="812" on="0"/>
        <pt x="385" y="839" on="0"/>
        <pt x="402" y="839" on="1"/>
        <pt x="418" y="839" on="0"/>
        <pt x="443" y="812" on="0"/>
        <pt x="443" y="794" on="1"/>
        <pt x="443" y="775" on="0"/>
        <pt x="418" y="750" on="0"/>
        <pt x="402" y="750" on="1"/>
        <pt x="385" y="750" on="0"/>
        <pt x="361" y="775" on="0"/>
      </contour>
    </TTGlyph>
    <TTGlyph name="Agrave" xMin="5" yMin="0" xMax="650" yMax="848">
      <contour>
        <pt x="650" y="0" on="1"/>
        <pt x="565" y="0" on="1"/>
        <pt x="468" y="222" on="1"/>
        <pt x="173" y="222" on="1"/>
        <pt x="85" y="0" on="1"/>
        <pt x="5" y="0" on="1"/>
        <pt x="269" y="660" on="1"/>
        <pt x="360" y="660" on="1"/>
      </contour>
      <contour>
        <pt x="201" y="292" on="1"/>
        <pt x="437" y="292" on="1"/>
        <pt x="313" y="576" on="1"/>
      </contour>
      <contour>
        <pt x="419" y="718" on="1"/>
        <pt x="218" y="795" on="1"/>
        <pt x="214" y="804" on="0"/>
        <pt x="214" y="814" on="1"/>
        <pt x="214" y="828" on="0"/>
        <pt x="232" y="847" on="0"/>
        <pt x="249" y="848" on="1"/>
        <pt x="430" y="748" on="1"/>
        <pt x="432" y="741" on="1"/>
        <pt x="427" y="721" on="1"/>
      </contour>
    </TTGlyph>
    <TTGlyph name="Aring" xMin="5" yMin="0" xMax="650" yMax="782">
      <contour>
        <pt x="314" y="782" on="1"/>
        <pt x="353" y="782" on="0"/>
        <pt x="400" y="734" on="0"/>
        <pt x="400" y="703" on="1"/>
        <pt x="400" y="684" on="0"/>
        <pt x="381" y="654" on="0"/>
        <pt x="366" y="645" on="1"/>
        <pt x="650" y="0" on="1"/>
        <pt x="565" y="0" on="1"/>
        <pt x="468" y="222" on="1"/>
        <pt x="173" y="222" on="1"/>
        <pt x="85" y="0" on="1"/>
        <pt x="5" y="0" on="1"/>
        <pt x="263" y="645" on="1"/>
        <pt x="246" y="654" on="0"/>
        <pt x="227" y="686" on="0"/>
        <pt x="227" y="705" on="1"/>
        <pt x="227" y="736" on="0"/>
        <pt x="275" y="782" on="0"/>
      </contour>
      <contour>
        <pt x="201" y="292" on="1"/>
        <pt x="437" y="292" on="1"/>
        <pt x="313" y="576" on="1"/>
      </contour>
      <contour>
        <pt x="315" y="654" on="1"/>
        <pt x="335" y="654" on="0"/>
        <pt x="360" y="684" on="0"/>
        <pt x="360" y="703" on="1"/>
        <pt x="360" y="723" on="0"/>
        <pt x="333" y="752" on="0"/>
        <pt x="313" y="752" on="1"/>
        <pt x="291" y="752" on="0"/>
        <pt x="266" y="726" on="0"/>
        <pt x="266" y="706" on="1"/>
        <pt x="266" y="686" on="0"/>
        <pt x="295" y="654" on="0"/>
      </contour>
    </TTGlyph>
    <TTGlyph name="Atilde" xMin="5" yMin="0" xMax="650" yMax="840">
      <contour>
        <pt x="650" y="0" on="1"/>
        <pt x="565" y="0" on="1"/>
        <pt x="468" y="222" on="1"/>
        <pt x="173" y="222" on="1"/>
        <pt x="85" y="0" on="1"/>
        <pt x="5" y="0" on="1"/>
        <pt x="269" y="660" on="1"/>
        <pt x="360" y="660" on="1"/>
      </contour>
      <contour>
        <pt x="201" y="292" on="1"/>
        <pt x="437" y="292" on="1"/>
        <pt x="313" y="576" on="1"/>
      </contour>
      <contour>
        <pt x="479" y="832" on="1"/>
        <pt x="476" y="818" on="0"/>
        <pt x="463" y="791" on="0"/>
        <pt x="442" y="769" on="0"/>
        <pt x="412" y="755" on="0"/>
        <pt x="391" y="755" on="1"/>
        <pt x="351" y="755" on="0"/>
        <pt x="268" y="769" on="0"/>
        <pt x="236" y="769" on="1"/>
        <pt x="211" y="769" on="0"/>
        <pt x="191" y="756" on="0"/>
        <pt x="181" y="744" on="1"/>
        <pt x="168" y="752" on="1"/>
        <pt x="172" y="765" on="0"/>
        <pt x="186" y="793" on="0"/>
        <pt x="207" y="814" on="0"/>
        <pt x="238" y="828" on="0"/>
        <pt x="259" y="828" on="1"/>
        <pt x="284" y="828" on="0"/>
        <pt x="321" y="824" on="0"/>
        <pt x="353" y="818" on="0"/>
        <pt x="383" y="814" on="0"/>
        <pt x="402" y="814" on="1"/>
        <pt x="419" y="814" on="0"/>
        <pt x="453" y="822" on="0"/>
        <pt x="467" y="840" on="1"/>
      </contour>
    </TTGlyph>
    <TTGlyph name="B" xMin="99" yMin="-12" xMax="510" yMax="665">
      <contour>
        <pt x="99" y="660" on="1"/>
        <pt x="131" y="662" on="0"/>
        <pt x="217" y="665" on="0"/>
        <pt x="253" y="665" on="1"/>
        <pt x="342" y="665" on="0"/>
        <pt x="450" y="578" on="0"/>
        <pt x="450" y="493" on="1"/>
        <pt x="450" y="453" on="0"/>
        <pt x="417" y="388" on="0"/>
        <pt x="382" y="365" on="1"/>
        <pt x="442" y="345" on="0"/>
        <pt x="510" y="259" on="0"/>
        <pt x="510" y="193" on="1"/>
        <pt x="510" y="151" on="0"/>
        <pt x="480" y="77" on="0"/>
        <pt x="418" y="21" on="0"/>
        <pt x="326" y="-12" on="0"/>
        <pt x="264" y="-12" on="1"/>
        <pt x="215" y="-12" on="0"/>
        <pt x="131" y="-5" on="0"/>
        <pt x="99" y="0" on="1"/>
      </contour>
      <contour>
        <pt x="261" y="54" on="1"/>
        <pt x="342" y="54" on="0"/>
        <pt x="427" y="129" on="0"/>
        <pt x="427" y="201" on="1"/>
        <pt x="427" y="258" on="0"/>
        <pt x="350" y="325" on="0"/>
        <pt x="259" y="325" on="1"/>
        <pt x="237" y="325" on="0"/>
        <pt x="194" y="324" on="0"/>
        <pt x="174" y="323" on="1"/>
        <pt x="174" y="57" on="1"/>
        <pt x="213" y="54" on="0"/>
      </contour>
      <contour>
        <pt x="235" y="382" on="1"/>
        <pt x="298" y="382" on="0"/>
        <pt x="367" y="446" on="0"/>
        <pt x="367" y="501" on="1"/>
        <pt x="367" y="545" on="0"/>
        <pt x="319" y="599" on="0"/>
        <pt x="259" y="599" on="1"/>
        <pt x="237" y="599" on="0"/>
        <pt x="194" y="598" on="0"/>
        <pt x="174" y="597" on="1"/>
        <pt x="174" y="383" on="1"/>
        <pt x="188" y="382" on="0"/>
        <pt x="219" y="382" on="0"/>
      </contour>
    </TTGlyph>
    <TTGlyph name="C" xMin="57" yMin="-12" xMax="600" yMax="665">
      <contour>
        <pt x="567" y="550" on="1"/>
        <pt x="535" y="571" on="0"/>
        <pt x="441" y="599" on="0"/>
        <pt x="381" y="599" on="1"/>
        <pt x="314" y="599" on="0"/>
        <pt x="222" y="560" on="0"/>
        <pt x="165" y="490" on="0"/>
        <pt x="140" y="391" on="0"/>
        <pt x="140" y="331" on="1"/>
        <pt x="140" y="194" on="0"/>
        <pt x="260" y="54" on="0"/>
        <pt x="379" y="54" on="1"/>
        <pt x="442" y="54" on="0"/>
        <pt x="548" y="90" on="0"/>
        <pt x="580" y="116" on="1"/>
        <pt x="600" y="49" on="1"/>
        <pt x="560" y="25" on="0"/>
        <pt x="447" y="-12" on="0"/>
        <pt x="376" y="-12" on="1"/>
        <pt x="294" y="-12" on="0"/>
        <pt x="174" y="42" on="0"/>
        <pt x="95" y="134" on="0"/>
        <pt x="57" y="255" on="0"/>
        <pt x="57" y="323" on="1"/>
        <pt x="57" y="394" on="0"/>
        <pt x="99" y="518" on="0"/>
        <pt x="182" y="611" on="0"/>
        <pt x="305" y="665" on="0"/>
        <pt x="387" y="665" on="1"/>
        <pt x="441" y="665" on="0"/>
        <pt x="549" y="642" on="0"/>
        <pt x="588" y="622" on="1"/>
      </contour>
    </TTGlyph>
    <TTGlyph name="Ccedilla" xMin="57" yMin="-203" xMax="600" yMax="665">
      <contour>
        <pt x="274" y="-178" on="1"/>
        <pt x="287" y="-155" on="1"/>
        <pt x="294" y="-155" on="1"/>
        <pt x="306" y="-160" on="0"/>
        <pt x="343" y="-167" on="0"/>
        <pt x="363" y="-167" on="1"/>
        <pt x="385" y="-167" on="0"/>
        <pt x="416" y="-150" on="0"/>
        <pt x="416" y="-127" on="1"/>
        <pt x="416" y="-100" on="0"/>
        <pt x="386" y="-81" on="0"/>
        <pt x="365" y="-81" on="1"/>
        <pt x="353" y="-81" on="0"/>
        <pt x="327" y="-85" on="0"/>
        <pt x="316" y="-88" on="1"/>
        <pt x="308" y="-77" on="1"/>
        <pt x="351" y="-11" on="1"/>
        <pt x="276" y="-7" on="0"/>
        <pt x="165" y="50" on="0"/>
        <pt x="92" y="141" on="0"/>
        <pt x="57" y="258" on="0"/>
        <pt x="57" y="323" on="1"/>
        <pt x="57" y="394" on="0"/>
        <pt x="99" y="518" on="0"/>
        <pt x="182" y="611" on="0"/>
        <pt x="305" y="665" on="0"/>
        <pt x="387" y="665" on="1"/>
        <pt x="441" y="665" on="0"/>
        <pt x="549" y="642" on="0"/>
        <pt x="588" y="622" on="1"/>
        <pt x="567" y="550" on="1"/>
        <pt x="535" y="571" on="0"/>
        <pt x="441" y="599" on="0"/>
        <pt x="381" y="599" on="1"/>
        <pt x="314" y="599" on="0"/>
        <pt x="222" y="560" on="0"/>
        <pt x="165" y="490" on="0"/>
        <pt x="140" y="391" on="0"/>
        <pt x="140" y="331" on="1"/>
        <pt x="140" y="194" on="0"/>
        <pt x="260" y="54" on="0"/>
        <pt x="379" y="54" on="1"/>
        <pt x="442" y="54" on="0"/>
        <pt x="548" y="90" on="0"/>
        <pt x="580" y="116" on="1"/>
        <pt x="600" y="49" on="1"/>
        <pt x="562" y="26" on="0"/>
        <pt x="454" y="-10" on="0"/>
        <pt x="387" y="-12" on="1"/>
        <pt x="363" y="-51" on="1"/>
        <pt x="372" y="-49" on="0"/>
        <pt x="389" y="-47" on="0"/>
        <pt x="396" y="-47" on="1"/>
        <pt x="431" y="-47" on="0"/>
        <pt x="475" y="-88" on="0"/>
        <pt x="475" y="-119" on="1"/>
        <pt x="475" y="-136" on="0"/>
        <pt x="459" y="-166" on="0"/>
        <pt x="430" y="-189" on="0"/>
        <pt x="390" y="-203" on="0"/>
        <pt x="366" y="-203" on="1"/>
        <pt x="342" y="-203" on="0"/>
        <pt x="294" y="-192" on="0"/>
        <pt x="275" y="-184" on="1"/>
      </contour>
    </TTGlyph>
    <TTGlyph name="D" xMin="99" yMin="-12" xMax="647" yMax="665">
      <contour>
        <pt x="99" y="660" on="1"/>
        <pt x="104" y="660" on="1"/>
        <pt x="152" y="662" on="0"/>
        <pt x="264" y="665" on="0"/>
        <pt x="317" y="665" on="1"/>
        <pt x="388" y="665" on="0"/>
        <pt x="505" y="625" on="0"/>
        <pt x="546" y="590" on="1"/>
        <pt x="599" y="542" on="0"/>
        <pt x="647" y="404" on="0"/>
        <pt x="647" y="323" on="1"/>
        <pt x="647" y="255" on="0"/>
        <pt x="609" y="134" on="0"/>
        <pt x="530" y="42" on="0"/>
        <pt x="410" y="-12" on="0"/>
        <pt x="328" y="-12" on="1"/>
        <pt x="257" y="-12" on="0"/>
        <pt x="144" y="-5" on="0"/>
        <pt x="99" y="0" on="1"/>
      </contour>
      <contour>
        <pt x="323" y="599" on="1"/>
        <pt x="283" y="599" on="0"/>
        <pt x="206" y="598" on="0"/>
        <pt x="174" y="596" on="1"/>
        <pt x="174" y="60" on="1"/>
        <pt x="237" y="54" on="0"/>
        <pt x="325" y="54" on="1"/>
        <pt x="444" y="54" on="0"/>
        <pt x="564" y="194" on="0"/>
        <pt x="564" y="331" on="1"/>
        <pt x="564" y="391" on="0"/>
        <pt x="539" y="490" on="0"/>
        <pt x="482" y="560" on="0"/>
        <pt x="390" y="599" on="0"/>
      </contour>
    </TTGlyph>
    <TTGlyph name="Dcroat" xMin="14" yMin="-12" xMax="649" yMax="665">
      <contour>
        <pt x="14" y="326" on="1"/>
        <pt x="14" y="370" on="1"/>
        <pt x="101" y="370" on="1"/>
        <pt x="101" y="660" on="1"/>
        <pt x="106" y="660" on="1"/>
        <pt x="154" y="662" on="0"/>
        <pt x="266" y="665" on="0"/>
        <pt x="319" y="665" on="1"/>
        <pt x="390" y="665" on="0"/>
        <pt x="507" y="625" on="0"/>
        <pt x="548" y="590" on="1"/>
        <pt x="601" y="542" on="0"/>
        <pt x="649" y="404" on="0"/>
        <pt x="649" y="323" on="1"/>
        <pt x="649" y="255" on="0"/>
        <pt x="611" y="134" on="0"/>
        <pt x="532" y="42" on="0"/>
        <pt x="412" y="-12" on="0"/>
        <pt x="330" y="-12" on="1"/>
        <pt x="259" y="-12" on="0"/>
        <pt x="146" y="-5" on="0"/>
        <pt x="101" y="0" on="1"/>
        <pt x="101" y="326" on="1"/>
      </contour>
      <contour>
        <pt x="351" y="370" on="1"/>
        <pt x="351" y="326" on="1"/>
        <pt x="176" y="326" on="1"/>
        <pt x="176" y="60" on="1"/>
        <pt x="239" y="54" on="0"/>
        <pt x="327" y="54" on="1"/>
        <pt x="446" y="54" on="0"/>
        <pt x="566" y="194" on="0"/>
        <pt x="566" y="331" on="1"/>
        <pt x="566" y="391" on="0"/>
        <pt x="541" y="490" on="0"/>
        <pt x="484" y="560" on="0"/>
        <pt x="392" y="599" on="0"/>
        <pt x="325" y="599" on="1"/>
        <pt x="285" y="599" on="0"/>
        <pt x="208" y="598" on="0"/>
        <pt x="176" y="596" on="1"/>
        <pt x="176" y="370" on="1"/>
      </contour>
    </TTGlyph>
    <TTGlyph name="E" xMin="99" yMin="0" xMax="481" yMax="660">
      <contour>
        <pt x="481" y="0" on="1"/>
        <pt x="99" y="0" on="1"/>
        <pt x="99" y="660" on="1"/>
        <pt x="461" y="660" on="1"/>
        <pt x="461" y="590" on="1"/>
        <pt x="174" y="590" on="1"/>
        <pt x="174" y="385" on="1"/>
        <pt x="394" y="385" on="1"/>
        <pt x="394" y="315" on="1"/>
        <pt x="174" y="315" on="1"/>
        <pt x="174" y="70" on="1"/>
        <pt x="481" y="70" on="1"/>
      </contour>
    </TTGlyph>
    <TTGlyph name="Eacute" xMin="99" yMin="0" xMax="481" yMax="848">
      <contour>
        <pt x="481" y="0" on="1"/>
        <pt x="99" y="0" on="1"/>
        <pt x="99" y="660" on="1"/>
        <pt x="461" y="660" on="1"/>
        <pt x="461" y="590" on="1"/>
        <pt x="174" y="590" on="1"/>
        <pt x="174" y="385" on="1"/>
        <pt x="394" y="385" on="1"/>
        <pt x="394" y="315" on="1"/>
        <pt x="174" y="315" on="1"/>
        <pt x="174" y="70" on="1"/>
        <pt x="481" y="70" on="1"/>
      </contour>
      <contour>
        <pt x="184" y="721" on="1"/>
        <pt x="178" y="741" on="1"/>
        <pt x="181" y="748" on="1"/>
        <pt x="362" y="848" on="1"/>
        <pt x="379" y="847" on="0"/>
        <pt x="397" y="828" on="0"/>
        <pt x="397" y="814" on="1"/>
        <pt x="397" y="804" on="0"/>
        <pt x="393" y="795" on="1"/>
        <pt x="191" y="718" on="1"/>
      </contour>
    </TTGlyph>
    <TTGlyph name="Ecircumflex" xMin="99" yMin="0" xMax="481" yMax="842">
      <contour>
        <pt x="481" y="0" on="1"/>
        <pt x="99" y="0" on="1"/>
        <pt x="99" y="660" on="1"/>
        <pt x="461" y="660" on="1"/>
        <pt x="461" y="590" on="1"/>
        <pt x="174" y="590" on="1"/>
        <pt x="174" y="385" on="1"/>
        <pt x="394" y="385" on="1"/>
        <pt x="394" y="315" on="1"/>
        <pt x="174" y="315" on="1"/>
        <pt x="174" y="70" on="1"/>
        <pt x="481" y="70" on="1"/>
      </contour>
      <contour>
        <pt x="291" y="842" on="1"/>
        <pt x="401" y="743" on="1"/>
        <pt x="404" y="736" on="1"/>
        <pt x="398" y="716" on="1"/>
        <pt x="391" y="713" on="1"/>
        <pt x="287" y="775" on="1"/>
        <pt x="183" y="713" on="1"/>
        <pt x="176" y="716" on="1"/>
        <pt x="170" y="736" on="1"/>
        <pt x="173" y="743" on="1"/>
        <pt x="283" y="842" on="1"/>
      </contour>
    </TTGlyph>
    <TTGlyph name="Edieresis" xMin="99" yMin="0" xMax="481" yMax="839">
      <contour>
        <pt x="481" y="0" on="1"/>
        <pt x="99" y="0" on="1"/>
        <pt x="99" y="660" on="1"/>
        <pt x="461" y="660" on="1"/>
        <pt x="461" y="590" on="1"/>
        <pt x="174" y="590" on="1"/>
        <pt x="174" y="385" on="1"/>
        <pt x="394" y="385" on="1"/>
        <pt x="394" y="315" on="1"/>
        <pt x="174" y="315" on="1"/>
        <pt x="174" y="70" on="1"/>
        <pt x="481" y="70" on="1"/>
      </contour>
      <contour>
        <pt x="315" y="794" on="1"/>
        <pt x="315" y="812" on="0"/>
        <pt x="339" y="839" on="0"/>
        <pt x="356" y="839" on="1"/>
        <pt x="373" y="839" on="0"/>
        <pt x="398" y="812" on="0"/>
        <pt x="398" y="794" on="1"/>
        <pt x="398" y="775" on="0"/>
        <pt x="373" y="750" on="0"/>
        <pt x="356" y="750" on="1"/>
        <pt x="339" y="750" on="0"/>
        <pt x="315" y="775" on="0"/>
      </contour>
      <contour>
        <pt x="158" y="794" on="1"/>
        <pt x="158" y="812" on="0"/>
        <pt x="182" y="839" on="0"/>
        <pt x="199" y="839" on="1"/>
        <pt x="216" y="839" on="0"/>
        <pt x="241" y="812" on="0"/>
        <pt x="241" y="794" on="1"/>
        <pt x="241" y="775" on="0"/>
        <pt x="216" y="750" on="0"/>
        <pt x="199" y="750" on="1"/>
        <pt x="182" y="750" on="0"/>
        <pt x="158" y="775" on="0"/>
      </contour>
    </TTGlyph>
    <TTGlyph name="Egrave" xMin="99" yMin="0" xMax="481" yMax="848">
      <contour>
        <pt x="481" y="0" on="1"/>
        <pt x="99" y="0" on="1"/>
        <pt x="99" y="660" on="1"/>
        <pt x="461" y="660" on="1"/>
        <pt x="461" y="590" on="1"/>
        <pt x="174" y="590" on="1"/>
        <pt x="174" y="385" on="1"/>
        <pt x="394" y="385" on="1"/>
        <pt x="394" y="315" on="1"/>
        <pt x="174" y="315" on="1"/>
        <pt x="174" y="70" on="1"/>
        <pt x="481" y="70" on="1"/>
      </contour>
      <contour>
        <pt x="373" y="718" on="1"/>
        <pt x="172" y="795" on="1"/>
        <pt x="168" y="804" on="0"/>
        <pt x="168" y="814" on="1"/>
        <pt x="168" y="828" on="0"/>
        <pt x="186" y="847" on="0"/>
        <pt x="203" y="848" on="1"/>
        <pt x="384" y="748" on="1"/>
        <pt x="387" y="741" on="1"/>
        <pt x="381" y="721" on="1"/>
      </contour>
    </TTGlyph>
    <TTGlyph name="Eth" xMin="14" yMin="-12" xMax="649" yMax="665">
      <contour>
        <pt x="14" y="326" on="1"/>
        <pt x="14" y="370" on="1"/>
        <pt x="101" y="370" on="1"/>
        <pt x="101" y="660" on="1"/>
        <pt x="106" y="660" on="1"/>
        <pt x="154" y="662" on="0"/>
        <pt x="266" y="665" on="0"/>
        <pt x="319" y="665" on="1"/>
        <pt x="390" y="665" on="0"/>
        <pt x="507" y="625" on="0"/>
        <pt x="548" y="590" on="1"/>
        <pt x="601" y="542" on="0"/>
        <pt x="649" y="404" on="0"/>
        <pt x="649" y="323" on="1"/>
        <pt x="649" y="255" on="0"/>
        <pt x="611" y="134" on="0"/>
        <pt x="532" y="42" on="0"/>
        <pt x="412" y="-12" on="0"/>
        <pt x="330" y="-12" on="1"/>
        <pt x="259" y="-12" on="0"/>
        <pt x="146" y="-5" on="0"/>
        <pt x="101" y="0" on="1"/>
        <pt x="101" y="326" on="1"/>
      </contour>
      <contour>
        <pt x="351" y="370" on="1"/>
        <pt x="351" y="326" on="1"/>
        <pt x="176" y="326" on="1"/>
        <pt x="176" y="60" on="1"/>
        <pt x="239" y="54" on="0"/>
        <pt x="327" y="54" on="1"/>
        <pt x="446" y="54" on="0"/>
        <pt x="566" y="194" on="0"/>
        <pt x="566" y="331" on="1"/>
        <pt x="566" y="391" on="0"/>
        <pt x="541" y="490" on="0"/>
        <pt x="484" y="560" on="0"/>
        <pt x="392" y="599" on="0"/>
        <pt x="325" y="599" on="1"/>
        <pt x="285" y="599" on="0"/>
        <pt x="208" y="598" on="0"/>
        <pt x="176" y="596" on="1"/>
        <pt x="176" y="370" on="1"/>
      </contour>
    </TTGlyph>
    <TTGlyph name="Euro" xMin="42" yMin="-12" xMax="577" yMax="665">
      <contour>
        <pt x="126" y="412" on="1"/>
        <pt x="136" y="467" on="0"/>
        <pt x="179" y="559" on="0"/>
        <pt x="247" y="627" on="0"/>
        <pt x="337" y="665" on="0"/>
        <pt x="394" y="665" on="1"/>
        <pt x="439" y="665" on="0"/>
        <pt x="533" y="642" on="0"/>
        <pt x="565" y="622" on="1"/>
        <pt x="544" y="550" on="1"/>
        <pt x="517" y="571" on="0"/>
        <pt x="439" y="599" on="0"/>
        <pt x="388" y="599" on="1"/>
        <pt x="345" y="599" on="0"/>
        <pt x="281" y="573" on="0"/>
        <pt x="238" y="524" on="0"/>
        <pt x="212" y="455" on="0"/>
        <pt x="206" y="412" on="1"/>
        <pt x="461" y="412" on="1"/>
        <pt x="461" y="360" on="1"/>
        <pt x="201" y="360" on="1"/>
        <pt x="201" y="307" on="1"/>
        <pt x="461" y="307" on="1"/>
        <pt x="461" y="255" on="1"/>
        <pt x="205" y="255" on="1"/>
        <pt x="231" y="54" on="0"/>
        <pt x="386" y="54" on="1"/>
        <pt x="440" y="54" on="0"/>
        <pt x="529" y="90" on="0"/>
        <pt x="557" y="116" on="1"/>
        <pt x="577" y="49" on="1"/>
        <pt x="542" y="25" on="0"/>
        <pt x="445" y="-12" on="0"/>
        <pt x="383" y="-12" on="1"/>
        <pt x="324" y="-12" on="0"/>
        <pt x="233" y="29" on="0"/>
        <pt x="168" y="101" on="0"/>
        <pt x="129" y="199" on="0"/>
        <pt x="122" y="255" on="1"/>
        <pt x="42" y="255" on="1"/>
        <pt x="42" y="307" on="1"/>
        <pt x="118" y="307" on="1"/>
        <pt x="118" y="318" on="0"/>
        <pt x="118" y="349" on="0"/>
        <pt x="119" y="360" on="1"/>
        <pt x="42" y="360" on="1"/>
        <pt x="42" y="412" on="1"/>
      </contour>
    </TTGlyph>
    <TTGlyph name="F" xMin="99" yMin="0" xMax="456" yMax="660">
      <contour>
        <pt x="383" y="315" on="1"/>
        <pt x="174" y="315" on="1"/>
        <pt x="174" y="0" on="1"/>
        <pt x="99" y="0" on="1"/>
        <pt x="99" y="660" on="1"/>
        <pt x="456" y="660" on="1"/>
        <pt x="456" y="590" on="1"/>
        <pt x="174" y="590" on="1"/>
        <pt x="174" y="385" on="1"/>
        <pt x="383" y="385" on="1"/>
      </contour>
    </TTGlyph>
    <TTGlyph name="G" xMin="57" yMin="-12" xMax="607" yMax="665">
      <contour>
        <pt x="607" y="55" on="1"/>
        <pt x="562" y="25" on="0"/>
        <pt x="447" y="-12" on="0"/>
        <pt x="376" y="-12" on="1"/>
        <pt x="294" y="-12" on="0"/>
        <pt x="174" y="42" on="0"/>
        <pt x="95" y="134" on="0"/>
        <pt x="57" y="255" on="0"/>
        <pt x="57" y="323" on="1"/>
        <pt x="57" y="394" on="0"/>
        <pt x="99" y="518" on="0"/>
        <pt x="182" y="611" on="0"/>
        <pt x="305" y="665" on="0"/>
        <pt x="387" y="665" on="1"/>
        <pt x="445" y="665" on="0"/>
        <pt x="555" y="642" on="0"/>
        <pt x="598" y="622" on="1"/>
        <pt x="577" y="550" on="1"/>
        <pt x="545" y="571" on="0"/>
        <pt x="444" y="599" on="0"/>
        <pt x="381" y="599" on="1"/>
        <pt x="314" y="599" on="0"/>
        <pt x="222" y="560" on="0"/>
        <pt x="165" y="490" on="0"/>
        <pt x="140" y="391" on="0"/>
        <pt x="140" y="331" on="1"/>
        <pt x="140" y="194" on="0"/>
        <pt x="260" y="54" on="0"/>
        <pt x="379" y="54" on="1"/>
        <pt x="423" y="54" on="0"/>
        <pt x="500" y="72" on="0"/>
        <pt x="532" y="86" on="1"/>
        <pt x="532" y="272" on="1"/>
        <pt x="607" y="272" on="1"/>
      </contour>
    </TTGlyph>
    <TTGlyph name="H" xMin="99" yMin="0" xMax="605" yMax="660">
      <contour>
        <pt x="174" y="375" on="1"/>
        <pt x="530" y="375" on="1"/>
        <pt x="530" y="660" on="1"/>
        <pt x="605" y="660" on="1"/>
        <pt x="605" y="0" on="1"/>
        <pt x="530" y="0" on="1"/>
        <pt x="530" y="305" on="1"/>
        <pt x="174" y="305" on="1"/>
        <pt x="174" y="0" on="1"/>
        <pt x="99" y="0" on="1"/>
        <pt x="99" y="660" on="1"/>
        <pt x="174" y="660" on="1"/>
      </contour>
    </TTGlyph>
    <TTGlyph name="I" xMin="99" yMin="0" xMax="174" yMax="660">
      <contour>
        <pt x="174" y="0" on="1"/>
        <pt x="99" y="0" on="1"/>
        <pt x="99" y="660" on="1"/>
        <pt x="174" y="660" on="1"/>
      </contour>
    </TTGlyph>
    <TTGlyph name="IJ" xMin="99" yMin="-156" xMax="448" yMax="660">
      <contour>
        <pt x="174" y="0" on="1"/>
        <pt x="99" y="0" on="1"/>
        <pt x="99" y="660" on="1"/>
        <pt x="174" y="660" on="1"/>
      </contour>
      <contour>
        <pt x="448" y="101" on="1"/>
        <pt x="448" y="48" on="0"/>
        <pt x="427" y="-45" on="0"/>
        <pt x="384" y="-115" on="0"/>
        <pt x="319" y="-156" on="0"/>
        <pt x="274" y="-156" on="1"/>
        <pt x="260" y="-101" on="1"/>
        <pt x="299" y="-101" on="0"/>
        <pt x="345" y="-63" on="0"/>
        <pt x="367" y="-4" on="0"/>
        <pt x="373" y="68" on="0"/>
        <pt x="373" y="102" on="1"/>
        <pt x="373" y="660" on="1"/>
        <pt x="448" y="660" on="1"/>
      </contour>
    </TTGlyph>
    <TTGlyph name="Iacute" xMin="35" yMin="0" xMax="254" yMax="848">
      <contour>
        <pt x="41" y="721" on="1"/>
        <pt x="35" y="741" on="1"/>
        <pt x="38" y="748" on="1"/>
        <pt x="219" y="848" on="1"/>
        <pt x="236" y="847" on="0"/>
        <pt x="254" y="828" on="0"/>
        <pt x="254" y="814" on="1"/>
        <pt x="254" y="804" on="0"/>
        <pt x="250" y="795" on="1"/>
        <pt x="49" y="718" on="1"/>
      </contour>
      <contour>
        <pt x="174" y="0" on="1"/>
        <pt x="99" y="0" on="1"/>
        <pt x="99" y="660" on="1"/>
        <pt x="174" y="660" on="1"/>
      </contour>
    </TTGlyph>
    <TTGlyph name="Icircumflex" xMin="18" yMin="0" xMax="252" yMax="842">
      <contour>
        <pt x="138" y="842" on="1"/>
        <pt x="249" y="743" on="1"/>
        <pt x="252" y="736" on="1"/>
        <pt x="246" y="716" on="1"/>
        <pt x="238" y="713" on="1"/>
        <pt x="135" y="775" on="1"/>
        <pt x="31" y="713" on="1"/>
        <pt x="23" y="716" on="1"/>
        <pt x="18" y="736" on="1"/>
        <pt x="21" y="743" on="1"/>
        <pt x="131" y="842" on="1"/>
      </contour>
      <contour>
        <pt x="174" y="0" on="1"/>
        <pt x="99" y="0" on="1"/>
        <pt x="99" y="660" on="1"/>
        <pt x="174" y="660" on="1"/>
      </contour>
    </TTGlyph>
    <TTGlyph name="Idieresis" xMin="19" yMin="0" xMax="259" yMax="839">
      <contour>
        <pt x="19" y="794" on="1"/>
        <pt x="19" y="812" on="0"/>
        <pt x="43" y="839" on="0"/>
        <pt x="60" y="839" on="1"/>
        <pt x="77" y="839" on="0"/>
        <pt x="102" y="812" on="0"/>
        <pt x="102" y="794" on="1"/>
        <pt x="102" y="775" on="0"/>
        <pt x="77" y="750" on="0"/>
        <pt x="60" y="750" on="1"/>
        <pt x="43" y="750" on="0"/>
        <pt x="19" y="775" on="0"/>
      </contour>
      <contour>
        <pt x="176" y="794" on="1"/>
        <pt x="176" y="812" on="0"/>
        <pt x="200" y="839" on="0"/>
        <pt x="217" y="839" on="1"/>
        <pt x="234" y="839" on="0"/>
        <pt x="259" y="812" on="0"/>
        <pt x="259" y="794" on="1"/>
        <pt x="259" y="775" on="0"/>
        <pt x="234" y="750" on="0"/>
        <pt x="217" y="750" on="1"/>
        <pt x="200" y="750" on="0"/>
        <pt x="176" y="775" on="0"/>
      </contour>
      <contour>
        <pt x="174" y="0" on="1"/>
        <pt x="99" y="0" on="1"/>
        <pt x="99" y="660" on="1"/>
        <pt x="174" y="660" on="1"/>
      </contour>
    </TTGlyph>
    <TTGlyph name="Igrave" xMin="15" yMin="0" xMax="234" yMax="848">
      <contour>
        <pt x="221" y="718" on="1"/>
        <pt x="19" y="795" on="1"/>
        <pt x="15" y="804" on="0"/>
        <pt x="15" y="814" on="1"/>
        <pt x="15" y="828" on="0"/>
        <pt x="33" y="847" on="0"/>
        <pt x="50" y="848" on="1"/>
        <pt x="231" y="748" on="1"/>
        <pt x="234" y="741" on="1"/>
        <pt x="228" y="721" on="1"/>
      </contour>
      <contour>
        <pt x="174" y="0" on="1"/>
        <pt x="99" y="0" on="1"/>
        <pt x="99" y="660" on="1"/>
        <pt x="174" y="660" on="1"/>
      </contour>
    </TTGlyph>
    <TTGlyph name="J" xMin="-14" yMin="-156" xMax="174" yMax="660">
      <contour>
        <pt x="174" y="101" on="1"/>
        <pt x="174" y="48" on="0"/>
        <pt x="153" y="-45" on="0"/>
        <pt x="110" y="-115" on="0"/>
        <pt x="45" y="-156" on="0"/>
        <pt x="0" y="-156" on="1"/>
        <pt x="-14" y="-101" on="1"/>
        <pt x="25" y="-101" on="0"/>
        <pt x="71" y="-63" on="0"/>
        <pt x="93" y="-4" on="0"/>
        <pt x="99" y="68" on="0"/>
        <pt x="99" y="102" on="1"/>
        <pt x="99" y="660" on="1"/>
        <pt x="174" y="660" on="1"/>
      </contour>
    </TTGlyph>
    <TTGlyph name="K" xMin="99" yMin="0" xMax="594" yMax="660">
      <contour>
        <pt x="174" y="348" on="1"/>
        <pt x="202" y="367" on="0"/>
        <pt x="247" y="405" on="0"/>
        <pt x="276" y="433" on="1"/>
        <pt x="325" y="481" on="0"/>
        <pt x="425" y="600" on="0"/>
        <pt x="467" y="660" on="1"/>
        <pt x="553" y="660" on="1"/>
        <pt x="529" y="625" on="0"/>
        <pt x="472" y="552" on="0"/>
        <pt x="412" y="481" on="0"/>
        <pt x="353" y="417" on="0"/>
        <pt x="327" y="391" on="1"/>
        <pt x="316" y="380" on="0"/>
        <pt x="297" y="362" on="0"/>
        <pt x="288" y="354" on="1"/>
        <pt x="594" y="0" on="1"/>
        <pt x="501" y="0" on="1"/>
        <pt x="233" y="306" on="1"/>
        <pt x="174" y="261" on="1"/>
        <pt x="174" y="0" on="1"/>
        <pt x="99" y="0" on="1"/>
        <pt x="99" y="660" on="1"/>
        <pt x="174" y="660" on="1"/>
      </contour>
    </TTGlyph>
    <TTGlyph name="L" xMin="99" yMin="0" xMax="469" yMax="660">
      <contour>
        <pt x="469" y="0" on="1"/>
        <pt x="99" y="0" on="1"/>
        <pt x="99" y="660" on="1"/>
        <pt x="174" y="660" on="1"/>
        <pt x="174" y="70" on="1"/>
        <pt x="469" y="70" on="1"/>
      </contour>
    </TTGlyph>
    <TTGlyph name="M" xMin="99" yMin="0" xMax="744" yMax="660">
      <contour>
        <pt x="424" y="94" on="1"/>
        <pt x="648" y="660" on="1"/>
        <pt x="744" y="660" on="1"/>
        <pt x="744" y="0" on="1"/>
        <pt x="669" y="0" on="1"/>
        <pt x="669" y="499" on="1"/>
        <pt x="467" y="0" on="1"/>
        <pt x="377" y="0" on="1"/>
        <pt x="174" y="500" on="1"/>
        <pt x="174" y="0" on="1"/>
        <pt x="99" y="0" on="1"/>
        <pt x="99" y="660" on="1"/>
        <pt x="200" y="660" on="1"/>
      </contour>
    </TTGlyph>
    <TTGlyph name="N" xMin="99" yMin="0" xMax="605" yMax="660">
      <contour>
        <pt x="174" y="540" on="1"/>
        <pt x="174" y="0" on="1"/>
        <pt x="99" y="0" on="1"/>
        <pt x="99" y="660" on="1"/>
        <pt x="190" y="660" on="1"/>
        <pt x="530" y="119" on="1"/>
        <pt x="530" y="660" on="1"/>
        <pt x="605" y="660" on="1"/>
        <pt x="605" y="0" on="1"/>
        <pt x="514" y="0" on="1"/>
      </contour>
    </TTGlyph>
    <TTGlyph name="Ntilde" xMin="99" yMin="0" xMax="605" yMax="840">
      <contour>
        <pt x="530" y="117" on="1"/>
        <pt x="530" y="660" on="1"/>
        <pt x="605" y="660" on="1"/>
        <pt x="605" y="0" on="1"/>
        <pt x="520" y="0" on="1"/>
        <pt x="174" y="542" on="1"/>
        <pt x="174" y="0" on="1"/>
        <pt x="99" y="0" on="1"/>
        <pt x="99" y="660" on="1"/>
        <pt x="184" y="660" on="1"/>
      </contour>
      <contour>
        <pt x="494" y="832" on="1"/>
        <pt x="491" y="818" on="0"/>
        <pt x="478" y="791" on="0"/>
        <pt x="457" y="769" on="0"/>
        <pt x="427" y="755" on="0"/>
        <pt x="406" y="755" on="1"/>
        <pt x="366" y="755" on="0"/>
        <pt x="283" y="769" on="0"/>
        <pt x="251" y="769" on="1"/>
        <pt x="226" y="769" on="0"/>
        <pt x="206" y="756" on="0"/>
        <pt x="196" y="744" on="1"/>
        <pt x="183" y="752" on="1"/>
        <pt x="187" y="765" on="0"/>
        <pt x="201" y="793" on="0"/>
        <pt x="222" y="814" on="0"/>
        <pt x="253" y="828" on="0"/>
        <pt x="274" y="828" on="1"/>
        <pt x="299" y="828" on="0"/>
        <pt x="336" y="824" on="0"/>
        <pt x="368" y="818" on="0"/>
        <pt x="398" y="814" on="0"/>
        <pt x="417" y="814" on="1"/>
        <pt x="434" y="814" on="0"/>
        <pt x="468" y="822" on="0"/>
        <pt x="482" y="840" on="1"/>
      </contour>
    </TTGlyph>
    <TTGlyph name="O" xMin="56" yMin="-12" xMax="700" yMax="665">
      <contour>
        <pt x="378" y="665" on="1"/>
        <pt x="456" y="665" on="0"/>
        <pt x="576" y="611" on="0"/>
        <pt x="658" y="518" on="0"/>
        <pt x="700" y="396" on="0"/>
        <pt x="700" y="329" on="1"/>
        <pt x="700" y="263" on="0"/>
        <pt x="659" y="140" on="0"/>
        <pt x="576" y="45" on="0"/>
        <pt x="453" y="-12" on="0"/>
        <pt x="371" y="-12" on="1"/>
        <pt x="291" y="-12" on="0"/>
        <pt x="173" y="42" on="0"/>
        <pt x="95" y="134" on="0"/>
        <pt x="56" y="255" on="0"/>
        <pt x="56" y="322" on="1"/>
        <pt x="56" y="393" on="0"/>
        <pt x="99" y="518" on="0"/>
        <pt x="181" y="611" on="0"/>
        <pt x="301" y="665" on="0"/>
      </contour>
      <contour>
        <pt x="373" y="54" on="1"/>
        <pt x="438" y="54" on="0"/>
        <pt x="531" y="96" on="0"/>
        <pt x="590" y="170" on="0"/>
        <pt x="618" y="269" on="0"/>
        <pt x="618" y="326" on="1"/>
        <pt x="618" y="387" on="0"/>
        <pt x="589" y="487" on="0"/>
        <pt x="530" y="559" on="0"/>
        <pt x="438" y="599" on="0"/>
        <pt x="375" y="599" on="1"/>
        <pt x="311" y="599" on="0"/>
        <pt x="221" y="560" on="0"/>
        <pt x="165" y="489" on="0"/>
        <pt x="139" y="391" on="0"/>
        <pt x="139" y="332" on="1"/>
        <pt x="139" y="194" on="0"/>
        <pt x="259" y="54" on="0"/>
      </contour>
    </TTGlyph>
    <TTGlyph name="OE" xMin="56" yMin="-12" xMax="813" yMax="665">
      <contour>
        <pt x="813" y="0" on="1"/>
        <pt x="467" y="0" on="1"/>
        <pt x="423" y="-12" on="0"/>
        <pt x="371" y="-12" on="1"/>
        <pt x="291" y="-12" on="0"/>
        <pt x="173" y="42" on="0"/>
        <pt x="95" y="134" on="0"/>
        <pt x="56" y="255" on="0"/>
        <pt x="56" y="322" on="1"/>
        <pt x="56" y="393" on="0"/>
        <pt x="99" y="518" on="0"/>
        <pt x="181" y="611" on="0"/>
        <pt x="301" y="665" on="0"/>
        <pt x="378" y="665" on="1"/>
        <pt x="397" y="665" on="0"/>
        <pt x="433" y="662" on="0"/>
        <pt x="450" y="660" on="1"/>
        <pt x="793" y="660" on="1"/>
        <pt x="793" y="590" on="1"/>
        <pt x="525" y="590" on="1"/>
        <pt x="525" y="385" on="1"/>
        <pt x="726" y="385" on="1"/>
        <pt x="726" y="315" on="1"/>
        <pt x="525" y="315" on="1"/>
        <pt x="525" y="70" on="1"/>
        <pt x="813" y="70" on="1"/>
      </contour>
      <contour>
        <pt x="373" y="54" on="1"/>
        <pt x="415" y="54" on="0"/>
        <pt x="450" y="63" on="1"/>
        <pt x="450" y="590" on="1"/>
        <pt x="415" y="599" on="0"/>
        <pt x="375" y="599" on="1"/>
        <pt x="311" y="599" on="0"/>
        <pt x="221" y="560" on="0"/>
        <pt x="165" y="489" on="0"/>
        <pt x="139" y="391" on="0"/>
        <pt x="139" y="332" on="1"/>
        <pt x="139" y="194" on="0"/>
        <pt x="259" y="54" on="0"/>
      </contour>
    </TTGlyph>
    <TTGlyph name="Oacute" xMin="56" yMin="-12" xMax="700" yMax="848">
      <contour>
        <pt x="312" y="721" on="1"/>
        <pt x="307" y="741" on="1"/>
        <pt x="310" y="748" on="1"/>
        <pt x="490" y="848" on="1"/>
        <pt x="507" y="847" on="0"/>
        <pt x="525" y="828" on="0"/>
        <pt x="525" y="814" on="1"/>
        <pt x="525" y="805" on="0"/>
        <pt x="522" y="795" on="1"/>
        <pt x="320" y="718" on="1"/>
      </contour>
      <contour>
        <pt x="378" y="665" on="1"/>
        <pt x="456" y="665" on="0"/>
        <pt x="576" y="611" on="0"/>
        <pt x="658" y="518" on="0"/>
        <pt x="700" y="396" on="0"/>
        <pt x="700" y="329" on="1"/>
        <pt x="700" y="263" on="0"/>
        <pt x="659" y="140" on="0"/>
        <pt x="576" y="45" on="0"/>
        <pt x="453" y="-12" on="0"/>
        <pt x="371" y="-12" on="1"/>
        <pt x="291" y="-12" on="0"/>
        <pt x="173" y="42" on="0"/>
        <pt x="95" y="134" on="0"/>
        <pt x="56" y="255" on="0"/>
        <pt x="56" y="322" on="1"/>
        <pt x="56" y="393" on="0"/>
        <pt x="99" y="518" on="0"/>
        <pt x="181" y="611" on="0"/>
        <pt x="301" y="665" on="0"/>
      </contour>
      <contour>
        <pt x="373" y="54" on="1"/>
        <pt x="438" y="54" on="0"/>
        <pt x="531" y="96" on="0"/>
        <pt x="590" y="170" on="0"/>
        <pt x="618" y="269" on="0"/>
        <pt x="618" y="326" on="1"/>
        <pt x="618" y="387" on="0"/>
        <pt x="589" y="487" on="0"/>
        <pt x="530" y="559" on="0"/>
        <pt x="438" y="599" on="0"/>
        <pt x="375" y="599" on="1"/>
        <pt x="311" y="599" on="0"/>
        <pt x="221" y="560" on="0"/>
        <pt x="165" y="489" on="0"/>
        <pt x="139" y="391" on="0"/>
        <pt x="139" y="332" on="1"/>
        <pt x="139" y="194" on="0"/>
        <pt x="259" y="54" on="0"/>
      </contour>
    </TTGlyph>
    <TTGlyph name="Ocircumflex" xMin="56" yMin="-12" xMax="700" yMax="842">
      <contour>
        <pt x="392" y="842" on="1"/>
        <pt x="502" y="743" on="1"/>
        <pt x="505" y="736" on="1"/>
        <pt x="499" y="716" on="1"/>
        <pt x="492" y="713" on="1"/>
        <pt x="388" y="775" on="1"/>
        <pt x="284" y="713" on="1"/>
        <pt x="277" y="716" on="1"/>
        <pt x="271" y="736" on="1"/>
        <pt x="274" y="743" on="1"/>
        <pt x="384" y="842" on="1"/>
      </contour>
      <contour>
        <pt x="378" y="665" on="1"/>
        <pt x="456" y="665" on="0"/>
        <pt x="576" y="611" on="0"/>
        <pt x="658" y="518" on="0"/>
        <pt x="700" y="396" on="0"/>
        <pt x="700" y="329" on="1"/>
        <pt x="700" y="263" on="0"/>
        <pt x="659" y="140" on="0"/>
        <pt x="576" y="45" on="0"/>
        <pt x="453" y="-12" on="0"/>
        <pt x="371" y="-12" on="1"/>
        <pt x="291" y="-12" on="0"/>
        <pt x="173" y="42" on="0"/>
        <pt x="95" y="134" on="0"/>
        <pt x="56" y="255" on="0"/>
        <pt x="56" y="322" on="1"/>
        <pt x="56" y="393" on="0"/>
        <pt x="99" y="518" on="0"/>
        <pt x="181" y="611" on="0"/>
        <pt x="301" y="665" on="0"/>
      </contour>
      <contour>
        <pt x="373" y="54" on="1"/>
        <pt x="438" y="54" on="0"/>
        <pt x="531" y="96" on="0"/>
        <pt x="590" y="170" on="0"/>
        <pt x="618" y="269" on="0"/>
        <pt x="618" y="326" on="1"/>
        <pt x="618" y="387" on="0"/>
        <pt x="589" y="487" on="0"/>
        <pt x="530" y="559" on="0"/>
        <pt x="438" y="599" on="0"/>
        <pt x="375" y="599" on="1"/>
        <pt x="311" y="599" on="0"/>
        <pt x="221" y="560" on="0"/>
        <pt x="165" y="489" on="0"/>
        <pt x="139" y="391" on="0"/>
        <pt x="139" y="332" on="1"/>
        <pt x="139" y="194" on="0"/>
        <pt x="259" y="54" on="0"/>
      </contour>
    </TTGlyph>
    <TTGlyph name="Odieresis" xMin="56" yMin="-12" xMax="700" yMax="839">
      <contour>
        <pt x="259" y="794" on="1"/>
        <pt x="259" y="812" on="0"/>
        <pt x="283" y="839" on="0"/>
        <pt x="300" y="839" on="1"/>
        <pt x="317" y="839" on="0"/>
        <pt x="342" y="812" on="0"/>
        <pt x="342" y="794" on="1"/>
        <pt x="342" y="775" on="0"/>
        <pt x="317" y="750" on="0"/>
        <pt x="300" y="750" on="1"/>
        <pt x="283" y="750" on="0"/>
        <pt x="259" y="775" on="0"/>
      </contour>
      <contour>
        <pt x="416" y="794" on="1"/>
        <pt x="416" y="812" on="0"/>
        <pt x="440" y="839" on="0"/>
        <pt x="457" y="839" on="1"/>
        <pt x="474" y="839" on="0"/>
        <pt x="499" y="812" on="0"/>
        <pt x="499" y="794" on="1"/>
        <pt x="499" y="775" on="0"/>
        <pt x="474" y="750" on="0"/>
        <pt x="457" y="750" on="1"/>
        <pt x="440" y="750" on="0"/>
        <pt x="416" y="775" on="0"/>
      </contour>
      <contour>
        <pt x="378" y="665" on="1"/>
        <pt x="456" y="665" on="0"/>
        <pt x="576" y="611" on="0"/>
        <pt x="658" y="518" on="0"/>
        <pt x="700" y="396" on="0"/>
        <pt x="700" y="329" on="1"/>
        <pt x="700" y="263" on="0"/>
        <pt x="659" y="140" on="0"/>
        <pt x="576" y="45" on="0"/>
        <pt x="453" y="-12" on="0"/>
        <pt x="371" y="-12" on="1"/>
        <pt x="291" y="-12" on="0"/>
        <pt x="173" y="42" on="0"/>
        <pt x="95" y="134" on="0"/>
        <pt x="56" y="255" on="0"/>
        <pt x="56" y="322" on="1"/>
        <pt x="56" y="393" on="0"/>
        <pt x="99" y="518" on="0"/>
        <pt x="181" y="611" on="0"/>
        <pt x="301" y="665" on="0"/>
      </contour>
      <contour>
        <pt x="373" y="54" on="1"/>
        <pt x="438" y="54" on="0"/>
        <pt x="531" y="96" on="0"/>
        <pt x="590" y="170" on="0"/>
        <pt x="618" y="269" on="0"/>
        <pt x="618" y="326" on="1"/>
        <pt x="618" y="387" on="0"/>
        <pt x="589" y="487" on="0"/>
        <pt x="530" y="559" on="0"/>
        <pt x="438" y="599" on="0"/>
        <pt x="375" y="599" on="1"/>
        <pt x="311" y="599" on="0"/>
        <pt x="221" y="560" on="0"/>
        <pt x="165" y="489" on="0"/>
        <pt x="139" y="391" on="0"/>
        <pt x="139" y="332" on="1"/>
        <pt x="139" y="194" on="0"/>
        <pt x="259" y="54" on="0"/>
      </contour>
    </TTGlyph>
    <TTGlyph name="Ograve" xMin="56" yMin="-12" xMax="700" yMax="848">
      <contour>
        <pt x="445" y="718" on="1"/>
        <pt x="244" y="795" on="1"/>
        <pt x="240" y="804" on="0"/>
        <pt x="240" y="814" on="1"/>
        <pt x="240" y="828" on="0"/>
        <pt x="258" y="847" on="0"/>
        <pt x="275" y="848" on="1"/>
        <pt x="455" y="748" on="1"/>
        <pt x="458" y="741" on="1"/>
        <pt x="453" y="721" on="1"/>
      </contour>
      <contour>
        <pt x="378" y="665" on="1"/>
        <pt x="456" y="665" on="0"/>
        <pt x="576" y="611" on="0"/>
        <pt x="658" y="518" on="0"/>
        <pt x="700" y="396" on="0"/>
        <pt x="700" y="329" on="1"/>
        <pt x="700" y="263" on="0"/>
        <pt x="659" y="140" on="0"/>
        <pt x="576" y="45" on="0"/>
        <pt x="453" y="-12" on="0"/>
        <pt x="371" y="-12" on="1"/>
        <pt x="291" y="-12" on="0"/>
        <pt x="173" y="42" on="0"/>
        <pt x="95" y="134" on="0"/>
        <pt x="56" y="255" on="0"/>
        <pt x="56" y="322" on="1"/>
        <pt x="56" y="393" on="0"/>
        <pt x="99" y="518" on="0"/>
        <pt x="181" y="611" on="0"/>
        <pt x="301" y="665" on="0"/>
      </contour>
      <contour>
        <pt x="373" y="54" on="1"/>
        <pt x="438" y="54" on="0"/>
        <pt x="531" y="96" on="0"/>
        <pt x="590" y="170" on="0"/>
        <pt x="618" y="269" on="0"/>
        <pt x="618" y="326" on="1"/>
        <pt x="618" y="387" on="0"/>
        <pt x="589" y="487" on="0"/>
        <pt x="530" y="559" on="0"/>
        <pt x="438" y="599" on="0"/>
        <pt x="375" y="599" on="1"/>
        <pt x="311" y="599" on="0"/>
        <pt x="221" y="560" on="0"/>
        <pt x="165" y="489" on="0"/>
        <pt x="139" y="391" on="0"/>
        <pt x="139" y="332" on="1"/>
        <pt x="139" y="194" on="0"/>
        <pt x="259" y="54" on="0"/>
      </contour>
    </TTGlyph>
    <TTGlyph name="Oslash" xMin="57" yMin="-35" xMax="701" yMax="687">
      <contour>
        <pt x="130" y="93" on="1"/>
        <pt x="93" y="139" on="0"/>
        <pt x="57" y="256" on="0"/>
        <pt x="57" y="322" on="1"/>
        <pt x="57" y="393" on="0"/>
        <pt x="100" y="518" on="0"/>
        <pt x="182" y="611" on="0"/>
        <pt x="302" y="665" on="0"/>
        <pt x="379" y="665" on="1"/>
        <pt x="435" y="665" on="0"/>
        <pt x="528" y="637" on="0"/>
        <pt x="565" y="611" on="1"/>
        <pt x="630" y="687" on="1"/>
        <pt x="681" y="648" on="1"/>
        <pt x="614" y="568" on="1"/>
        <pt x="657" y="521" on="0"/>
        <pt x="701" y="398" on="0"/>
        <pt x="701" y="329" on="1"/>
        <pt x="701" y="263" on="0"/>
        <pt x="660" y="140" on="0"/>
        <pt x="577" y="45" on="0"/>
        <pt x="454" y="-12" on="0"/>
        <pt x="372" y="-12" on="1"/>
        <pt x="311" y="-12" on="0"/>
        <pt x="214" y="19" on="0"/>
        <pt x="176" y="48" on="1"/>
        <pt x="106" y="-35" on="1"/>
        <pt x="58" y="8" on="1"/>
      </contour>
      <contour>
        <pt x="374" y="54" on="1"/>
        <pt x="439" y="54" on="0"/>
        <pt x="532" y="96" on="0"/>
        <pt x="591" y="170" on="0"/>
        <pt x="619" y="269" on="0"/>
        <pt x="619" y="326" on="1"/>
        <pt x="619" y="442" on="0"/>
        <pt x="568" y="514" on="1"/>
        <pt x="222" y="102" on="1"/>
        <pt x="279" y="54" on="0"/>
      </contour>
      <contour>
        <pt x="140" y="332" on="1"/>
        <pt x="140" y="220" on="0"/>
        <pt x="180" y="153" on="1"/>
        <pt x="522" y="559" on="1"/>
        <pt x="465" y="599" on="0"/>
        <pt x="376" y="599" on="1"/>
        <pt x="312" y="599" on="0"/>
        <pt x="222" y="560" on="0"/>
        <pt x="166" y="489" on="0"/>
        <pt x="140" y="391" on="0"/>
      </contour>
    </TTGlyph>
    <TTGlyph name="Otilde" xMin="56" yMin="-12" xMax="700" yMax="840">
      <contour>
        <pt x="535" y="832" on="1"/>
        <pt x="532" y="818" on="0"/>
        <pt x="519" y="791" on="0"/>
        <pt x="498" y="769" on="0"/>
        <pt x="468" y="755" on="0"/>
        <pt x="447" y="755" on="1"/>
        <pt x="407" y="755" on="0"/>
        <pt x="324" y="769" on="0"/>
        <pt x="292" y="769" on="1"/>
        <pt x="267" y="769" on="0"/>
        <pt x="247" y="756" on="0"/>
        <pt x="237" y="744" on="1"/>
        <pt x="224" y="752" on="1"/>
        <pt x="228" y="765" on="0"/>
        <pt x="242" y="793" on="0"/>
        <pt x="263" y="814" on="0"/>
        <pt x="294" y="828" on="0"/>
        <pt x="315" y="828" on="1"/>
        <pt x="340" y="828" on="0"/>
        <pt x="377" y="824" on="0"/>
        <pt x="409" y="818" on="0"/>
        <pt x="439" y="814" on="0"/>
        <pt x="458" y="814" on="1"/>
        <pt x="475" y="814" on="0"/>
        <pt x="509" y="822" on="0"/>
        <pt x="523" y="840" on="1"/>
      </contour>
      <contour>
        <pt x="378" y="665" on="1"/>
        <pt x="456" y="665" on="0"/>
        <pt x="576" y="611" on="0"/>
        <pt x="658" y="518" on="0"/>
        <pt x="700" y="396" on="0"/>
        <pt x="700" y="329" on="1"/>
        <pt x="700" y="263" on="0"/>
        <pt x="659" y="140" on="0"/>
        <pt x="576" y="45" on="0"/>
        <pt x="453" y="-12" on="0"/>
        <pt x="371" y="-12" on="1"/>
        <pt x="291" y="-12" on="0"/>
        <pt x="173" y="42" on="0"/>
        <pt x="95" y="134" on="0"/>
        <pt x="56" y="255" on="0"/>
        <pt x="56" y="322" on="1"/>
        <pt x="56" y="393" on="0"/>
        <pt x="99" y="518" on="0"/>
        <pt x="181" y="611" on="0"/>
        <pt x="301" y="665" on="0"/>
      </contour>
      <contour>
        <pt x="373" y="54" on="1"/>
        <pt x="438" y="54" on="0"/>
        <pt x="531" y="96" on="0"/>
        <pt x="590" y="170" on="0"/>
        <pt x="618" y="269" on="0"/>
        <pt x="618" y="326" on="1"/>
        <pt x="618" y="387" on="0"/>
        <pt x="589" y="487" on="0"/>
        <pt x="530" y="559" on="0"/>
        <pt x="438" y="599" on="0"/>
        <pt x="375" y="599" on="1"/>
        <pt x="311" y="599" on="0"/>
        <pt x="221" y="560" on="0"/>
        <pt x="165" y="489" on="0"/>
        <pt x="139" y="391" on="0"/>
        <pt x="139" y="332" on="1"/>
        <pt x="139" y="194" on="0"/>
        <pt x="259" y="54" on="0"/>
      </contour>
    </TTGlyph>
    <TTGlyph name="P" xMin="99" yMin="0" xMax="488" yMax="665">
      <contour>
        <pt x="99" y="660" on="1"/>
        <pt x="103" y="660" on="1"/>
        <pt x="135" y="662" on="0"/>
        <pt x="213" y="665" on="0"/>
        <pt x="248" y="665" on="1"/>
        <pt x="302" y="665" on="0"/>
        <pt x="390" y="638" on="0"/>
        <pt x="453" y="584" on="0"/>
        <pt x="488" y="505" on="0"/>
        <pt x="488" y="453" on="1"/>
        <pt x="488" y="411" on="0"/>
        <pt x="460" y="337" on="0"/>
        <pt x="404" y="281" on="0"/>
        <pt x="317" y="248" on="0"/>
        <pt x="259" y="248" on="1"/>
        <pt x="211" y="248" on="0"/>
        <pt x="174" y="251" on="1"/>
        <pt x="174" y="0" on="1"/>
        <pt x="99" y="0" on="1"/>
      </contour>
      <contour>
        <pt x="254" y="599" on="1"/>
        <pt x="233" y="599" on="0"/>
        <pt x="192" y="598" on="0"/>
        <pt x="174" y="597" on="1"/>
        <pt x="174" y="317" on="1"/>
        <pt x="210" y="314" on="0"/>
        <pt x="256" y="314" on="1"/>
        <pt x="330" y="314" on="0"/>
        <pt x="405" y="389" on="0"/>
        <pt x="405" y="461" on="1"/>
        <pt x="405" y="492" on="0"/>
        <pt x="389" y="543" on="0"/>
        <pt x="354" y="579" on="0"/>
        <pt x="296" y="599" on="0"/>
      </contour>
    </TTGlyph>
    <TTGlyph name="Q" xMin="58" yMin="-148" xMax="756" yMax="665">
      <contour>
        <pt x="380" y="665" on="1"/>
        <pt x="458" y="665" on="0"/>
        <pt x="578" y="611" on="0"/>
        <pt x="660" y="518" on="0"/>
        <pt x="702" y="396" on="0"/>
        <pt x="702" y="329" on="1"/>
        <pt x="702" y="265" on="0"/>
        <pt x="663" y="145" on="0"/>
        <pt x="586" y="52" on="0"/>
        <pt x="470" y="-7" on="0"/>
        <pt x="393" y="-11" on="1"/>
        <pt x="428" y="-15" on="0"/>
        <pt x="495" y="-40" on="0"/>
        <pt x="563" y="-66" on="0"/>
        <pt x="633" y="-87" on="0"/>
        <pt x="671" y="-87" on="1"/>
        <pt x="711" y="-87" on="0"/>
        <pt x="756" y="-68" on="1"/>
        <pt x="737" y="-132" on="1"/>
        <pt x="718" y="-142" on="0"/>
        <pt x="680" y="-148" on="0"/>
        <pt x="663" y="-148" on="1"/>
        <pt x="621" y="-148" on="0"/>
        <pt x="541" y="-120" on="0"/>
        <pt x="466" y="-87" on="0"/>
        <pt x="395" y="-59" on="0"/>
        <pt x="362" y="-59" on="1"/>
        <pt x="338" y="-59" on="0"/>
        <pt x="270" y="-77" on="0"/>
        <pt x="239" y="-100" on="1"/>
        <pt x="225" y="-53" on="1"/>
        <pt x="251" y="-33" on="0"/>
        <pt x="313" y="-13" on="0"/>
        <pt x="342" y="-11" on="1"/>
        <pt x="270" y="-6" on="0"/>
        <pt x="164" y="52" on="0"/>
        <pt x="93" y="142" on="0"/>
        <pt x="58" y="258" on="0"/>
        <pt x="58" y="322" on="1"/>
        <pt x="58" y="393" on="0"/>
        <pt x="101" y="518" on="0"/>
        <pt x="183" y="611" on="0"/>
        <pt x="303" y="665" on="0"/>
      </contour>
      <contour>
        <pt x="377" y="54" on="1"/>
        <pt x="441" y="54" on="0"/>
        <pt x="534" y="96" on="0"/>
        <pt x="592" y="170" on="0"/>
        <pt x="620" y="271" on="0"/>
        <pt x="620" y="329" on="1"/>
        <pt x="620" y="389" on="0"/>
        <pt x="591" y="488" on="0"/>
        <pt x="531" y="559" on="0"/>
        <pt x="439" y="599" on="0"/>
        <pt x="375" y="599" on="1"/>
        <pt x="312" y="599" on="0"/>
        <pt x="223" y="560" on="0"/>
        <pt x="167" y="488" on="0"/>
        <pt x="141" y="389" on="0"/>
        <pt x="141" y="329" on="1"/>
        <pt x="141" y="193" on="0"/>
        <pt x="262" y="54" on="0"/>
      </contour>
    </TTGlyph>
    <TTGlyph name="R" xMin="99" yMin="0" xMax="594" yMax="665">
      <contour>
        <pt x="99" y="660" on="1"/>
        <pt x="134" y="662" on="0"/>
        <pt x="213" y="665" on="0"/>
        <pt x="248" y="665" on="1"/>
        <pt x="302" y="665" on="0"/>
        <pt x="390" y="640" on="0"/>
        <pt x="453" y="592" on="0"/>
        <pt x="488" y="521" on="0"/>
        <pt x="488" y="475" on="1"/>
        <pt x="488" y="411" on="0"/>
        <pt x="416" y="311" on="0"/>
        <pt x="341" y="291" on="1"/>
        <pt x="594" y="0" on="1"/>
        <pt x="501" y="0" on="1"/>
        <pt x="254" y="282" on="1"/>
        <pt x="210" y="282" on="0"/>
        <pt x="174" y="285" on="1"/>
        <pt x="174" y="0" on="1"/>
        <pt x="99" y="0" on="1"/>
      </contour>
      <contour>
        <pt x="254" y="599" on="1"/>
        <pt x="233" y="599" on="0"/>
        <pt x="192" y="598" on="0"/>
        <pt x="174" y="597" on="1"/>
        <pt x="174" y="350" on="1"/>
        <pt x="192" y="348" on="0"/>
        <pt x="233" y="348" on="0"/>
        <pt x="256" y="348" on="1"/>
        <pt x="330" y="348" on="0"/>
        <pt x="405" y="417" on="0"/>
        <pt x="405" y="483" on="1"/>
        <pt x="405" y="535" on="0"/>
        <pt x="338" y="599" on="0"/>
      </contour>
    </TTGlyph>
    <TTGlyph name="S" xMin="49" yMin="-12" xMax="505" yMax="665">
      <contour>
        <pt x="138" y="501" on="1"/>
        <pt x="138" y="476" on="0"/>
        <pt x="157" y="443" on="0"/>
        <pt x="198" y="417" on="0"/>
        <pt x="261" y="394" on="0"/>
        <pt x="305" y="379" on="1"/>
        <pt x="342" y="367" on="0"/>
        <pt x="414" y="336" on="0"/>
        <pt x="471" y="291" on="0"/>
        <pt x="505" y="224" on="0"/>
        <pt x="505" y="176" on="1"/>
        <pt x="505" y="125" on="0"/>
        <pt x="465" y="53" on="0"/>
        <pt x="399" y="8" on="0"/>
        <pt x="313" y="-12" on="0"/>
        <pt x="267" y="-12" on="1"/>
        <pt x="202" y="-12" on="0"/>
        <pt x="90" y="20" on="0"/>
        <pt x="49" y="43" on="1"/>
        <pt x="70" y="116" on="1"/>
        <pt x="89" y="103" on="0"/>
        <pt x="127" y="80" on="0"/>
        <pt x="172" y="64" on="0"/>
        <pt x="226" y="54" on="0"/>
        <pt x="261" y="54" on="1"/>
        <pt x="306" y="54" on="0"/>
        <pt x="370" y="70" on="0"/>
        <pt x="410" y="99" on="0"/>
        <pt x="428" y="139" on="0"/>
        <pt x="428" y="162" on="1"/>
        <pt x="428" y="196" on="0"/>
        <pt x="396" y="243" on="0"/>
        <pt x="345" y="277" on="0"/>
        <pt x="284" y="300" on="0"/>
        <pt x="254" y="310" on="1"/>
        <pt x="211" y="324" on="0"/>
        <pt x="141" y="356" on="0"/>
        <pt x="92" y="400" on="0"/>
        <pt x="65" y="458" on="0"/>
        <pt x="65" y="498" on="1"/>
        <pt x="65" y="543" on="0"/>
        <pt x="98" y="606" on="0"/>
        <pt x="155" y="646" on="0"/>
        <pt x="233" y="665" on="0"/>
        <pt x="278" y="665" on="1"/>
        <pt x="332" y="665" on="0"/>
        <pt x="432" y="643" on="0"/>
        <pt x="467" y="627" on="1"/>
        <pt x="446" y="550" on="1"/>
        <pt x="430" y="564" on="0"/>
        <pt x="387" y="583" on="0"/>
        <pt x="340" y="594" on="0"/>
        <pt x="294" y="599" on="0"/>
        <pt x="274" y="599" on="1"/>
        <pt x="211" y="599" on="0"/>
        <pt x="138" y="552" on="0"/>
      </contour>
    </TTGlyph>
    <TTGlyph name="Scaron" xMin="49" yMin="-12" xMax="505" yMax="842">
      <contour>
        <pt x="274" y="713" on="1"/>
        <pt x="163" y="812" on="1"/>
        <pt x="161" y="819" on="1"/>
        <pt x="166" y="839" on="1"/>
        <pt x="174" y="842" on="1"/>
        <pt x="277" y="780" on="1"/>
        <pt x="381" y="842" on="1"/>
        <pt x="389" y="839" on="1"/>
        <pt x="394" y="819" on="1"/>
        <pt x="392" y="812" on="1"/>
        <pt x="281" y="713" on="1"/>
      </contour>
      <contour>
        <pt x="138" y="501" on="1"/>
        <pt x="138" y="476" on="0"/>
        <pt x="157" y="443" on="0"/>
        <pt x="198" y="417" on="0"/>
        <pt x="261" y="394" on="0"/>
        <pt x="305" y="379" on="1"/>
        <pt x="342" y="367" on="0"/>
        <pt x="414" y="336" on="0"/>
        <pt x="471" y="291" on="0"/>
        <pt x="505" y="224" on="0"/>
        <pt x="505" y="176" on="1"/>
        <pt x="505" y="125" on="0"/>
        <pt x="465" y="53" on="0"/>
        <pt x="399" y="8" on="0"/>
        <pt x="313" y="-12" on="0"/>
        <pt x="267" y="-12" on="1"/>
        <pt x="202" y="-12" on="0"/>
        <pt x="90" y="20" on="0"/>
        <pt x="49" y="43" on="1"/>
        <pt x="70" y="116" on="1"/>
        <pt x="89" y="103" on="0"/>
        <pt x="127" y="80" on="0"/>
        <pt x="172" y="64" on="0"/>
        <pt x="226" y="54" on="0"/>
        <pt x="261" y="54" on="1"/>
        <pt x="306" y="54" on="0"/>
        <pt x="370" y="70" on="0"/>
        <pt x="410" y="99" on="0"/>
        <pt x="428" y="139" on="0"/>
        <pt x="428" y="162" on="1"/>
        <pt x="428" y="196" on="0"/>
        <pt x="396" y="243" on="0"/>
        <pt x="345" y="277" on="0"/>
        <pt x="284" y="300" on="0"/>
        <pt x="254" y="310" on="1"/>
        <pt x="211" y="324" on="0"/>
        <pt x="141" y="356" on="0"/>
        <pt x="92" y="400" on="0"/>
        <pt x="65" y="458" on="0"/>
        <pt x="65" y="498" on="1"/>
        <pt x="65" y="543" on="0"/>
        <pt x="98" y="606" on="0"/>
        <pt x="155" y="646" on="0"/>
        <pt x="233" y="665" on="0"/>
        <pt x="278" y="665" on="1"/>
        <pt x="332" y="665" on="0"/>
        <pt x="432" y="643" on="0"/>
        <pt x="467" y="627" on="1"/>
        <pt x="446" y="550" on="1"/>
        <pt x="430" y="564" on="0"/>
        <pt x="387" y="583" on="0"/>
        <pt x="340" y="594" on="0"/>
        <pt x="294" y="599" on="0"/>
        <pt x="274" y="599" on="1"/>
        <pt x="211" y="599" on="0"/>
        <pt x="138" y="552" on="0"/>
      </contour>
    </TTGlyph>
    <TTGlyph name="T" xMin="18" yMin="0" xMax="515" yMax="660">
      <contour>
        <pt x="515" y="590" on="1"/>
        <pt x="304" y="590" on="1"/>
        <pt x="304" y="0" on="1"/>
        <pt x="229" y="0" on="1"/>
        <pt x="229" y="590" on="1"/>
        <pt x="18" y="590" on="1"/>
        <pt x="18" y="660" on="1"/>
        <pt x="515" y="660" on="1"/>
      </contour>
    </TTGlyph>
    <TTGlyph name="Thorn" xMin="99" yMin="0" xMax="477" yMax="660">
      <contour>
        <pt x="169" y="533" on="1"/>
        <pt x="189" y="534" on="0"/>
        <pt x="229" y="535" on="0"/>
        <pt x="242" y="535" on="1"/>
        <pt x="350" y="535" on="0"/>
        <pt x="477" y="432" on="0"/>
        <pt x="477" y="335" on="1"/>
        <pt x="477" y="294" on="0"/>
        <pt x="452" y="223" on="0"/>
        <pt x="397" y="169" on="0"/>
        <pt x="309" y="138" on="0"/>
        <pt x="247" y="138" on="1"/>
        <pt x="233" y="138" on="0"/>
        <pt x="189" y="139" on="0"/>
        <pt x="169" y="141" on="1"/>
        <pt x="169" y="0" on="1"/>
        <pt x="99" y="0" on="1"/>
        <pt x="99" y="660" on="1"/>
        <pt x="169" y="660" on="1"/>
      </contour>
      <contour>
        <pt x="244" y="469" on="1"/>
        <pt x="231" y="469" on="0"/>
        <pt x="188" y="468" on="0"/>
        <pt x="169" y="467" on="1"/>
        <pt x="169" y="208" on="1"/>
        <pt x="188" y="206" on="0"/>
        <pt x="231" y="204" on="0"/>
        <pt x="243" y="204" on="1"/>
        <pt x="321" y="204" on="0"/>
        <pt x="394" y="271" on="0"/>
        <pt x="394" y="341" on="1"/>
        <pt x="394" y="371" on="0"/>
        <pt x="379" y="418" on="0"/>
        <pt x="344" y="451" on="0"/>
        <pt x="287" y="469" on="0"/>
      </contour>
    </TTGlyph>
    <TTGlyph name="U" xMin="92" yMin="-11" xMax="596" yMax="660">
      <contour>
        <pt x="167" y="256" on="1"/>
        <pt x="167" y="148" on="0"/>
        <pt x="262" y="54" on="0"/>
        <pt x="346" y="54" on="1"/>
        <pt x="430" y="54" on="0"/>
        <pt x="526" y="148" on="0"/>
        <pt x="526" y="256" on="1"/>
        <pt x="526" y="660" on="1"/>
        <pt x="596" y="660" on="1"/>
        <pt x="596" y="222" on="1"/>
        <pt x="596" y="173" on="0"/>
        <pt x="566" y="88" on="0"/>
        <pt x="504" y="25" on="0"/>
        <pt x="410" y="-11" on="0"/>
        <pt x="346" y="-11" on="1"/>
        <pt x="276" y="-11" on="0"/>
        <pt x="179" y="25" on="0"/>
        <pt x="119" y="88" on="0"/>
        <pt x="92" y="173" on="0"/>
        <pt x="92" y="222" on="1"/>
        <pt x="92" y="660" on="1"/>
        <pt x="167" y="660" on="1"/>
      </contour>
    </TTGlyph>
    <TTGlyph name="Uacute" xMin="92" yMin="-11" xMax="596" yMax="848">
      <contour>
        <pt x="255" y="721" on="1"/>
        <pt x="249" y="741" on="1"/>
        <pt x="252" y="748" on="1"/>
        <pt x="433" y="848" on="1"/>
        <pt x="450" y="847" on="0"/>
        <pt x="468" y="828" on="0"/>
        <pt x="468" y="814" on="1"/>
        <pt x="468" y="804" on="0"/>
        <pt x="464" y="795" on="1"/>
        <pt x="263" y="718" on="1"/>
      </contour>
      <contour>
        <pt x="167" y="256" on="1"/>
        <pt x="167" y="148" on="0"/>
        <pt x="262" y="54" on="0"/>
        <pt x="346" y="54" on="1"/>
        <pt x="430" y="54" on="0"/>
        <pt x="526" y="148" on="0"/>
        <pt x="526" y="256" on="1"/>
        <pt x="526" y="660" on="1"/>
        <pt x="596" y="660" on="1"/>
        <pt x="596" y="222" on="1"/>
        <pt x="596" y="173" on="0"/>
        <pt x="566" y="88" on="0"/>
        <pt x="504" y="25" on="0"/>
        <pt x="410" y="-11" on="0"/>
        <pt x="346" y="-11" on="1"/>
        <pt x="276" y="-11" on="0"/>
        <pt x="179" y="25" on="0"/>
        <pt x="119" y="88" on="0"/>
        <pt x="92" y="173" on="0"/>
        <pt x="92" y="222" on="1"/>
        <pt x="92" y="660" on="1"/>
        <pt x="167" y="660" on="1"/>
      </contour>
    </TTGlyph>
    <TTGlyph name="Ucircumflex" xMin="92" yMin="-11" xMax="596" yMax="842">
      <contour>
        <pt x="344" y="842" on="1"/>
        <pt x="455" y="743" on="1"/>
        <pt x="457" y="736" on="1"/>
        <pt x="452" y="716" on="1"/>
        <pt x="444" y="713" on="1"/>
        <pt x="341" y="775" on="1"/>
        <pt x="237" y="713" on="1"/>
        <pt x="229" y="716" on="1"/>
        <pt x="224" y="736" on="1"/>
        <pt x="226" y="743" on="1"/>
        <pt x="337" y="842" on="1"/>
      </contour>
      <contour>
        <pt x="167" y="256" on="1"/>
        <pt x="167" y="148" on="0"/>
        <pt x="262" y="54" on="0"/>
        <pt x="346" y="54" on="1"/>
        <pt x="430" y="54" on="0"/>
        <pt x="526" y="148" on="0"/>
        <pt x="526" y="256" on="1"/>
        <pt x="526" y="660" on="1"/>
        <pt x="596" y="660" on="1"/>
        <pt x="596" y="222" on="1"/>
        <pt x="596" y="173" on="0"/>
        <pt x="566" y="88" on="0"/>
        <pt x="504" y="25" on="0"/>
        <pt x="410" y="-11" on="0"/>
        <pt x="346" y="-11" on="1"/>
        <pt x="276" y="-11" on="0"/>
        <pt x="179" y="25" on="0"/>
        <pt x="119" y="88" on="0"/>
        <pt x="92" y="173" on="0"/>
        <pt x="92" y="222" on="1"/>
        <pt x="92" y="660" on="1"/>
        <pt x="167" y="660" on="1"/>
      </contour>
    </TTGlyph>
    <TTGlyph name="Udieresis" xMin="92" yMin="-11" xMax="596" yMax="839">
      <contour>
        <pt x="236" y="794" on="1"/>
        <pt x="236" y="812" on="0"/>
        <pt x="260" y="839" on="0"/>
        <pt x="277" y="839" on="1"/>
        <pt x="294" y="839" on="0"/>
        <pt x="319" y="812" on="0"/>
        <pt x="319" y="794" on="1"/>
        <pt x="319" y="775" on="0"/>
        <pt x="294" y="750" on="0"/>
        <pt x="277" y="750" on="1"/>
        <pt x="260" y="750" on="0"/>
        <pt x="236" y="775" on="0"/>
      </contour>
      <contour>
        <pt x="393" y="794" on="1"/>
        <pt x="393" y="812" on="0"/>
        <pt x="417" y="839" on="0"/>
        <pt x="434" y="839" on="1"/>
        <pt x="451" y="839" on="0"/>
        <pt x="476" y="812" on="0"/>
        <pt x="476" y="794" on="1"/>
        <pt x="476" y="775" on="0"/>
        <pt x="451" y="750" on="0"/>
        <pt x="434" y="750" on="1"/>
        <pt x="417" y="750" on="0"/>
        <pt x="393" y="775" on="0"/>
      </contour>
      <contour>
        <pt x="167" y="256" on="1"/>
        <pt x="167" y="148" on="0"/>
        <pt x="262" y="54" on="0"/>
        <pt x="346" y="54" on="1"/>
        <pt x="430" y="54" on="0"/>
        <pt x="526" y="148" on="0"/>
        <pt x="526" y="256" on="1"/>
        <pt x="526" y="660" on="1"/>
        <pt x="596" y="660" on="1"/>
        <pt x="596" y="222" on="1"/>
        <pt x="596" y="173" on="0"/>
        <pt x="566" y="88" on="0"/>
        <pt x="504" y="25" on="0"/>
        <pt x="410" y="-11" on="0"/>
        <pt x="346" y="-11" on="1"/>
        <pt x="276" y="-11" on="0"/>
        <pt x="179" y="25" on="0"/>
        <pt x="119" y="88" on="0"/>
        <pt x="92" y="173" on="0"/>
        <pt x="92" y="222" on="1"/>
        <pt x="92" y="660" on="1"/>
        <pt x="167" y="660" on="1"/>
      </contour>
    </TTGlyph>
    <TTGlyph name="Ugrave" xMin="92" yMin="-11" xMax="596" yMax="848">
      <contour>
        <pt x="426" y="718" on="1"/>
        <pt x="225" y="795" on="1"/>
        <pt x="221" y="804" on="0"/>
        <pt x="221" y="814" on="1"/>
        <pt x="221" y="828" on="0"/>
        <pt x="239" y="847" on="0"/>
        <pt x="256" y="848" on="1"/>
        <pt x="437" y="748" on="1"/>
        <pt x="439" y="741" on="1"/>
        <pt x="434" y="721" on="1"/>
      </contour>
      <contour>
        <pt x="167" y="256" on="1"/>
        <pt x="167" y="148" on="0"/>
        <pt x="262" y="54" on="0"/>
        <pt x="346" y="54" on="1"/>
        <pt x="430" y="54" on="0"/>
        <pt x="526" y="148" on="0"/>
        <pt x="526" y="256" on="1"/>
        <pt x="526" y="660" on="1"/>
        <pt x="596" y="660" on="1"/>
        <pt x="596" y="222" on="1"/>
        <pt x="596" y="173" on="0"/>
        <pt x="566" y="88" on="0"/>
        <pt x="504" y="25" on="0"/>
        <pt x="410" y="-11" on="0"/>
        <pt x="346" y="-11" on="1"/>
        <pt x="276" y="-11" on="0"/>
        <pt x="179" y="25" on="0"/>
        <pt x="119" y="88" on="0"/>
        <pt x="92" y="173" on="0"/>
        <pt x="92" y="222" on="1"/>
        <pt x="92" y="660" on="1"/>
        <pt x="167" y="660" on="1"/>
      </contour>
    </TTGlyph>
    <TTGlyph name="V" xMin="-7" yMin="0" xMax="638" yMax="660">
      <contour>
        <pt x="-7" y="660" on="1"/>
        <pt x="78" y="660" on="1"/>
        <pt x="329" y="84" on="1"/>
        <pt x="558" y="660" on="1"/>
        <pt x="638" y="660" on="1"/>
        <pt x="376" y="0" on="1"/>
        <pt x="281" y="0" on="1"/>
      </contour>
    </TTGlyph>
    <TTGlyph name="W" xMin="-1" yMin="0" xMax="1070" yMax="660">
      <contour>
        <pt x="540" y="546" on="1"/>
        <pt x="354" y="0" on="1"/>
        <pt x="259" y="0" on="1"/>
        <pt x="-1" y="660" on="1"/>
        <pt x="84" y="660" on="1"/>
        <pt x="306" y="95" on="1"/>
        <pt x="499" y="660" on="1"/>
        <pt x="584" y="660" on="1"/>
        <pt x="789" y="97" on="1"/>
        <pt x="990" y="660" on="1"/>
        <pt x="1070" y="660" on="1"/>
        <pt x="835" y="0" on="1"/>
        <pt x="740" y="0" on="1"/>
      </contour>
    </TTGlyph>
    <TTGlyph name="X" xMin="15" yMin="0" xMax="630" yMax="660">
      <contour>
        <pt x="320" y="285" on="1"/>
        <pt x="101" y="0" on="1"/>
        <pt x="15" y="0" on="1"/>
        <pt x="277" y="341" on="1"/>
        <pt x="30" y="660" on="1"/>
        <pt x="119" y="660" on="1"/>
        <pt x="325" y="393" on="1"/>
        <pt x="531" y="660" on="1"/>
        <pt x="617" y="660" on="1"/>
        <pt x="368" y="337" on="1"/>
        <pt x="630" y="0" on="1"/>
        <pt x="541" y="0" on="1"/>
      </contour>
    </TTGlyph>
    <TTGlyph name="Y" xMin="-11" yMin="0" xMax="576" yMax="660">
      <contour>
        <pt x="-11" y="660" on="1"/>
        <pt x="78" y="660" on="1"/>
        <pt x="287" y="343" on="1"/>
        <pt x="489" y="660" on="1"/>
        <pt x="576" y="660" on="1"/>
        <pt x="321" y="271" on="1"/>
        <pt x="321" y="0" on="1"/>
        <pt x="246" y="0" on="1"/>
        <pt x="246" y="267" on="1"/>
      </contour>
    </TTGlyph>
    <TTGlyph name="Yacute" xMin="-11" yMin="0" xMax="576" yMax="848">
      <contour>
        <pt x="220" y="721" on="1"/>
        <pt x="215" y="741" on="1"/>
        <pt x="218" y="748" on="1"/>
        <pt x="398" y="848" on="1"/>
        <pt x="415" y="847" on="0"/>
        <pt x="433" y="828" on="0"/>
        <pt x="433" y="814" on="1"/>
        <pt x="433" y="805" on="0"/>
        <pt x="430" y="795" on="1"/>
        <pt x="228" y="718" on="1"/>
      </contour>
      <contour>
        <pt x="-11" y="660" on="1"/>
        <pt x="78" y="660" on="1"/>
        <pt x="287" y="343" on="1"/>
        <pt x="489" y="660" on="1"/>
        <pt x="576" y="660" on="1"/>
        <pt x="321" y="271" on="1"/>
        <pt x="321" y="0" on="1"/>
        <pt x="246" y="0" on="1"/>
        <pt x="246" y="267" on="1"/>
      </contour>
    </TTGlyph>
    <TTGlyph name="Ydieresis" xMin="-11" yMin="0" xMax="576" yMax="839">
      <contour>
        <pt x="167" y="794" on="1"/>
        <pt x="167" y="812" on="0"/>
        <pt x="191" y="839" on="0"/>
        <pt x="208" y="839" on="1"/>
        <pt x="224" y="839" on="0"/>
        <pt x="249" y="812" on="0"/>
        <pt x="249" y="794" on="1"/>
        <pt x="249" y="775" on="0"/>
        <pt x="224" y="750" on="0"/>
        <pt x="208" y="750" on="1"/>
        <pt x="191" y="750" on="0"/>
        <pt x="167" y="775" on="0"/>
      </contour>
      <contour>
        <pt x="324" y="794" on="1"/>
        <pt x="324" y="812" on="0"/>
        <pt x="347" y="839" on="0"/>
        <pt x="364" y="839" on="1"/>
        <pt x="381" y="839" on="0"/>
        <pt x="406" y="812" on="0"/>
        <pt x="406" y="794" on="1"/>
        <pt x="406" y="775" on="0"/>
        <pt x="381" y="750" on="0"/>
        <pt x="364" y="750" on="1"/>
        <pt x="347" y="750" on="0"/>
        <pt x="324" y="775" on="0"/>
      </contour>
      <contour>
        <pt x="-11" y="660" on="1"/>
        <pt x="78" y="660" on="1"/>
        <pt x="287" y="343" on="1"/>
        <pt x="489" y="660" on="1"/>
        <pt x="576" y="660" on="1"/>
        <pt x="321" y="271" on="1"/>
        <pt x="321" y="0" on="1"/>
        <pt x="246" y="0" on="1"/>
        <pt x="246" y="267" on="1"/>
      </contour>
    </TTGlyph>
    <TTGlyph name="Z" xMin="43" yMin="0" xMax="511" yMax="660">
      <contour>
        <pt x="511" y="0" on="1"/>
        <pt x="43" y="0" on="1"/>
        <pt x="43" y="70" on="1"/>
        <pt x="411" y="590" on="1"/>
        <pt x="58" y="590" on="1"/>
        <pt x="58" y="660" on="1"/>
        <pt x="496" y="660" on="1"/>
        <pt x="496" y="590" on="1"/>
        <pt x="128" y="70" on="1"/>
        <pt x="511" y="70" on="1"/>
      </contour>
    </TTGlyph>
    <TTGlyph name="Zcaron" xMin="43" yMin="0" xMax="511" yMax="842">
      <contour>
        <pt x="270" y="713" on="1"/>
        <pt x="160" y="812" on="1"/>
        <pt x="157" y="819" on="1"/>
        <pt x="163" y="839" on="1"/>
        <pt x="171" y="842" on="1"/>
        <pt x="274" y="780" on="1"/>
        <pt x="378" y="842" on="1"/>
        <pt x="385" y="839" on="1"/>
        <pt x="391" y="819" on="1"/>
        <pt x="388" y="812" on="1"/>
        <pt x="278" y="713" on="1"/>
      </contour>
      <contour>
        <pt x="511" y="0" on="1"/>
        <pt x="43" y="0" on="1"/>
        <pt x="43" y="70" on="1"/>
        <pt x="411" y="590" on="1"/>
        <pt x="58" y="590" on="1"/>
        <pt x="58" y="660" on="1"/>
        <pt x="496" y="660" on="1"/>
        <pt x="496" y="590" on="1"/>
        <pt x="128" y="70" on="1"/>
        <pt x="511" y="70" on="1"/>
      </contour>
    </TTGlyph>
    <TTGlyph name="a" xMin="40" yMin="-12" xMax="425" yMax="475">
      <contour>
        <pt x="370" y="0" on="1"/>
        <pt x="362" y="82" on="1"/>
        <pt x="358" y="82" on="1"/>
        <pt x="346" y="63" on="0"/>
        <pt x="306" y="29" on="0"/>
        <pt x="257" y="3" on="0"/>
        <pt x="200" y="-12" on="0"/>
        <pt x="172" y="-12" on="1"/>
        <pt x="106" y="-12" on="0"/>
        <pt x="40" y="65" on="0"/>
        <pt x="40" y="123" on="1"/>
        <pt x="40" y="180" on="0"/>
        <pt x="98" y="248" on="0"/>
        <pt x="182" y="282" on="0"/>
        <pt x="275" y="292" on="0"/>
        <pt x="310" y="292" on="1"/>
        <pt x="355" y="292" on="1"/>
        <pt x="355" y="304" on="1"/>
        <pt x="355" y="342" on="0"/>
        <pt x="334" y="382" on="0"/>
        <pt x="314" y="396" on="1"/>
        <pt x="297" y="407" on="0"/>
        <pt x="258" y="416" on="0"/>
        <pt x="226" y="416" on="1"/>
        <pt x="184" y="416" on="0"/>
        <pt x="120" y="394" on="0"/>
        <pt x="90" y="376" on="1"/>
        <pt x="74" y="436" on="1"/>
        <pt x="141" y="475" on="0"/>
        <pt x="234" y="475" on="1"/>
        <pt x="271" y="475" on="0"/>
        <pt x="337" y="462" on="0"/>
        <pt x="362" y="446" on="1"/>
        <pt x="391" y="428" on="0"/>
        <pt x="425" y="362" on="0"/>
        <pt x="425" y="313" on="1"/>
        <pt x="425" y="0" on="1"/>
      </contour>
      <contour>
        <pt x="193" y="47" on="1"/>
        <pt x="234" y="47" on="0"/>
        <pt x="326" y="99" on="0"/>
        <pt x="355" y="148" on="1"/>
        <pt x="355" y="241" on="1"/>
        <pt x="346" y="241" on="1"/>
        <pt x="305" y="241" on="0"/>
        <pt x="223" y="235" on="0"/>
        <pt x="156" y="211" on="0"/>
        <pt x="114" y="166" on="0"/>
        <pt x="114" y="127" on="1"/>
        <pt x="114" y="88" on="0"/>
        <pt x="157" y="47" on="0"/>
      </contour>
    </TTGlyph>
    <TTGlyph name="aacute" xMin="40" yMin="-12" xMax="425" yMax="680">
      <contour>
        <pt x="185" y="552" on="1"/>
        <pt x="179" y="572" on="1"/>
        <pt x="182" y="579" on="1"/>
        <pt x="362" y="680" on="1"/>
        <pt x="379" y="679" on="0"/>
        <pt x="398" y="659" on="0"/>
        <pt x="398" y="645" on="1"/>
        <pt x="398" y="635" on="0"/>
        <pt x="394" y="626" on="1"/>
        <pt x="192" y="549" on="1"/>
      </contour>
      <contour>
        <pt x="370" y="0" on="1"/>
        <pt x="362" y="82" on="1"/>
        <pt x="358" y="82" on="1"/>
        <pt x="346" y="63" on="0"/>
        <pt x="306" y="29" on="0"/>
        <pt x="257" y="3" on="0"/>
        <pt x="200" y="-12" on="0"/>
        <pt x="172" y="-12" on="1"/>
        <pt x="106" y="-12" on="0"/>
        <pt x="40" y="65" on="0"/>
        <pt x="40" y="123" on="1"/>
        <pt x="40" y="180" on="0"/>
        <pt x="98" y="248" on="0"/>
        <pt x="182" y="282" on="0"/>
        <pt x="275" y="292" on="0"/>
        <pt x="310" y="292" on="1"/>
        <pt x="355" y="292" on="1"/>
        <pt x="355" y="304" on="1"/>
        <pt x="355" y="342" on="0"/>
        <pt x="334" y="382" on="0"/>
        <pt x="314" y="396" on="1"/>
        <pt x="297" y="407" on="0"/>
        <pt x="258" y="416" on="0"/>
        <pt x="226" y="416" on="1"/>
        <pt x="184" y="416" on="0"/>
        <pt x="120" y="394" on="0"/>
        <pt x="90" y="376" on="1"/>
        <pt x="74" y="436" on="1"/>
        <pt x="141" y="475" on="0"/>
        <pt x="234" y="475" on="1"/>
        <pt x="271" y="475" on="0"/>
        <pt x="337" y="462" on="0"/>
        <pt x="362" y="446" on="1"/>
        <pt x="391" y="428" on="0"/>
        <pt x="425" y="362" on="0"/>
        <pt x="425" y="313" on="1"/>
        <pt x="425" y="0" on="1"/>
      </contour>
      <contour>
        <pt x="193" y="47" on="1"/>
        <pt x="234" y="47" on="0"/>
        <pt x="326" y="99" on="0"/>
        <pt x="355" y="148" on="1"/>
        <pt x="355" y="241" on="1"/>
        <pt x="346" y="241" on="1"/>
        <pt x="305" y="241" on="0"/>
        <pt x="223" y="235" on="0"/>
        <pt x="156" y="211" on="0"/>
        <pt x="114" y="166" on="0"/>
        <pt x="114" y="127" on="1"/>
        <pt x="114" y="88" on="0"/>
        <pt x="157" y="47" on="0"/>
      </contour>
    </TTGlyph>
    <TTGlyph name="acircumflex" xMin="40" yMin="-12" xMax="425" yMax="673">
      <contour>
        <pt x="244" y="673" on="1"/>
        <pt x="354" y="574" on="1"/>
        <pt x="357" y="567" on="1"/>
        <pt x="351" y="548" on="1"/>
        <pt x="344" y="545" on="1"/>
        <pt x="240" y="606" on="1"/>
        <pt x="137" y="545" on="1"/>
        <pt x="129" y="548" on="1"/>
        <pt x="123" y="567" on="1"/>
        <pt x="126" y="574" on="1"/>
        <pt x="236" y="673" on="1"/>
      </contour>
      <contour>
        <pt x="370" y="0" on="1"/>
        <pt x="362" y="82" on="1"/>
        <pt x="358" y="82" on="1"/>
        <pt x="346" y="63" on="0"/>
        <pt x="306" y="29" on="0"/>
        <pt x="257" y="3" on="0"/>
        <pt x="200" y="-12" on="0"/>
        <pt x="172" y="-12" on="1"/>
        <pt x="106" y="-12" on="0"/>
        <pt x="40" y="65" on="0"/>
        <pt x="40" y="123" on="1"/>
        <pt x="40" y="180" on="0"/>
        <pt x="98" y="248" on="0"/>
        <pt x="182" y="282" on="0"/>
        <pt x="275" y="292" on="0"/>
        <pt x="310" y="292" on="1"/>
        <pt x="355" y="292" on="1"/>
        <pt x="355" y="304" on="1"/>
        <pt x="355" y="342" on="0"/>
        <pt x="334" y="382" on="0"/>
        <pt x="314" y="396" on="1"/>
        <pt x="297" y="407" on="0"/>
        <pt x="258" y="416" on="0"/>
        <pt x="226" y="416" on="1"/>
        <pt x="184" y="416" on="0"/>
        <pt x="120" y="394" on="0"/>
        <pt x="90" y="376" on="1"/>
        <pt x="74" y="436" on="1"/>
        <pt x="141" y="475" on="0"/>
        <pt x="234" y="475" on="1"/>
        <pt x="271" y="475" on="0"/>
        <pt x="337" y="462" on="0"/>
        <pt x="362" y="446" on="1"/>
        <pt x="391" y="428" on="0"/>
        <pt x="425" y="362" on="0"/>
        <pt x="425" y="313" on="1"/>
        <pt x="425" y="0" on="1"/>
      </contour>
      <contour>
        <pt x="193" y="47" on="1"/>
        <pt x="234" y="47" on="0"/>
        <pt x="326" y="99" on="0"/>
        <pt x="355" y="148" on="1"/>
        <pt x="355" y="241" on="1"/>
        <pt x="346" y="241" on="1"/>
        <pt x="305" y="241" on="0"/>
        <pt x="223" y="235" on="0"/>
        <pt x="156" y="211" on="0"/>
        <pt x="114" y="166" on="0"/>
        <pt x="114" y="127" on="1"/>
        <pt x="114" y="88" on="0"/>
        <pt x="157" y="47" on="0"/>
      </contour>
    </TTGlyph>
    <TTGlyph name="acute" xMin="0" yMin="549" xMax="219" yMax="680">
      <contour>
        <pt x="6" y="552" on="1"/>
        <pt x="0" y="572" on="1"/>
        <pt x="3" y="579" on="1"/>
        <pt x="183" y="680" on="1"/>
        <pt x="200" y="679" on="0"/>
        <pt x="219" y="659" on="0"/>
        <pt x="219" y="645" on="1"/>
        <pt x="219" y="635" on="0"/>
        <pt x="215" y="626" on="1"/>
        <pt x="13" y="549" on="1"/>
      </contour>
    </TTGlyph>
    <TTGlyph name="adieresis" xMin="40" yMin="-12" xMax="425" yMax="671">
      <contour>
        <pt x="130" y="626" on="1"/>
        <pt x="130" y="644" on="0"/>
        <pt x="154" y="671" on="0"/>
        <pt x="171" y="671" on="1"/>
        <pt x="187" y="671" on="0"/>
        <pt x="212" y="644" on="0"/>
        <pt x="212" y="626" on="1"/>
        <pt x="212" y="607" on="0"/>
        <pt x="187" y="582" on="0"/>
        <pt x="171" y="582" on="1"/>
        <pt x="154" y="582" on="0"/>
        <pt x="130" y="607" on="0"/>
      </contour>
      <contour>
        <pt x="287" y="626" on="1"/>
        <pt x="287" y="644" on="0"/>
        <pt x="310" y="671" on="0"/>
        <pt x="327" y="671" on="1"/>
        <pt x="344" y="671" on="0"/>
        <pt x="369" y="644" on="0"/>
        <pt x="369" y="626" on="1"/>
        <pt x="369" y="607" on="0"/>
        <pt x="344" y="582" on="0"/>
        <pt x="327" y="582" on="1"/>
        <pt x="310" y="582" on="0"/>
        <pt x="287" y="607" on="0"/>
      </contour>
      <contour>
        <pt x="370" y="0" on="1"/>
        <pt x="362" y="82" on="1"/>
        <pt x="358" y="82" on="1"/>
        <pt x="346" y="63" on="0"/>
        <pt x="306" y="29" on="0"/>
        <pt x="257" y="3" on="0"/>
        <pt x="200" y="-12" on="0"/>
        <pt x="172" y="-12" on="1"/>
        <pt x="106" y="-12" on="0"/>
        <pt x="40" y="65" on="0"/>
        <pt x="40" y="123" on="1"/>
        <pt x="40" y="180" on="0"/>
        <pt x="98" y="248" on="0"/>
        <pt x="182" y="282" on="0"/>
        <pt x="275" y="292" on="0"/>
        <pt x="310" y="292" on="1"/>
        <pt x="355" y="292" on="1"/>
        <pt x="355" y="304" on="1"/>
        <pt x="355" y="342" on="0"/>
        <pt x="334" y="382" on="0"/>
        <pt x="314" y="396" on="1"/>
        <pt x="297" y="407" on="0"/>
        <pt x="258" y="416" on="0"/>
        <pt x="226" y="416" on="1"/>
        <pt x="184" y="416" on="0"/>
        <pt x="120" y="394" on="0"/>
        <pt x="90" y="376" on="1"/>
        <pt x="74" y="436" on="1"/>
        <pt x="141" y="475" on="0"/>
        <pt x="234" y="475" on="1"/>
        <pt x="271" y="475" on="0"/>
        <pt x="337" y="462" on="0"/>
        <pt x="362" y="446" on="1"/>
        <pt x="391" y="428" on="0"/>
        <pt x="425" y="362" on="0"/>
        <pt x="425" y="313" on="1"/>
        <pt x="425" y="0" on="1"/>
      </contour>
      <contour>
        <pt x="193" y="47" on="1"/>
        <pt x="234" y="47" on="0"/>
        <pt x="326" y="99" on="0"/>
        <pt x="355" y="148" on="1"/>
        <pt x="355" y="241" on="1"/>
        <pt x="346" y="241" on="1"/>
        <pt x="305" y="241" on="0"/>
        <pt x="223" y="235" on="0"/>
        <pt x="156" y="211" on="0"/>
        <pt x="114" y="166" on="0"/>
        <pt x="114" y="127" on="1"/>
        <pt x="114" y="88" on="0"/>
        <pt x="157" y="47" on="0"/>
      </contour>
    </TTGlyph>
    <TTGlyph name="ae" xMin="40" yMin="-12" xMax="771" yMax="475">
      <contour>
        <pt x="407" y="396" on="1"/>
        <pt x="436" y="430" on="0"/>
        <pt x="530" y="475" on="0"/>
        <pt x="587" y="475" on="1"/>
        <pt x="675" y="475" on="0"/>
        <pt x="771" y="386" on="0"/>
        <pt x="771" y="305" on="1"/>
        <pt x="771" y="288" on="0"/>
        <pt x="767" y="253" on="0"/>
        <pt x="762" y="245" on="1"/>
        <pt x="425" y="245" on="1"/>
        <pt x="425" y="227" on="1"/>
        <pt x="426" y="190" on="0"/>
        <pt x="446" y="122" on="0"/>
        <pt x="487" y="71" on="0"/>
        <pt x="547" y="41" on="0"/>
        <pt x="588" y="41" on="1"/>
        <pt x="636" y="41" on="0"/>
        <pt x="721" y="75" on="0"/>
        <pt x="749" y="95" on="1"/>
        <pt x="762" y="42" on="1"/>
        <pt x="749" y="34" on="0"/>
        <pt x="711" y="15" on="0"/>
        <pt x="665" y="-1" on="0"/>
        <pt x="610" y="-12" on="0"/>
        <pt x="580" y="-12" on="1"/>
        <pt x="513" y="-12" on="0"/>
        <pt x="417" y="43" on="0"/>
        <pt x="388" y="88" on="1"/>
        <pt x="384" y="88" on="1"/>
        <pt x="344" y="33" on="0"/>
        <pt x="229" y="-12" on="0"/>
        <pt x="172" y="-12" on="1"/>
        <pt x="106" y="-12" on="0"/>
        <pt x="40" y="65" on="0"/>
        <pt x="40" y="123" on="1"/>
        <pt x="40" y="180" on="0"/>
        <pt x="98" y="248" on="0"/>
        <pt x="182" y="282" on="0"/>
        <pt x="275" y="292" on="0"/>
        <pt x="310" y="292" on="1"/>
        <pt x="355" y="292" on="1"/>
        <pt x="355" y="304" on="1"/>
        <pt x="355" y="342" on="0"/>
        <pt x="334" y="382" on="0"/>
        <pt x="314" y="396" on="1"/>
        <pt x="297" y="407" on="0"/>
        <pt x="258" y="416" on="0"/>
        <pt x="226" y="416" on="1"/>
        <pt x="184" y="416" on="0"/>
        <pt x="120" y="394" on="0"/>
        <pt x="90" y="376" on="1"/>
        <pt x="74" y="436" on="1"/>
        <pt x="141" y="475" on="0"/>
        <pt x="234" y="475" on="1"/>
        <pt x="271" y="475" on="0"/>
        <pt x="337" y="462" on="0"/>
        <pt x="362" y="446" on="1"/>
        <pt x="374" y="438" on="0"/>
        <pt x="398" y="410" on="0"/>
        <pt x="403" y="396" on="1"/>
      </contour>
      <contour>
        <pt x="193" y="47" on="1"/>
        <pt x="234" y="47" on="0"/>
        <pt x="326" y="99" on="0"/>
        <pt x="355" y="148" on="1"/>
        <pt x="355" y="241" on="1"/>
        <pt x="346" y="241" on="1"/>
        <pt x="305" y="241" on="0"/>
        <pt x="223" y="235" on="0"/>
        <pt x="156" y="211" on="0"/>
        <pt x="114" y="166" on="0"/>
        <pt x="114" y="127" on="1"/>
        <pt x="114" y="88" on="0"/>
        <pt x="157" y="47" on="0"/>
      </contour>
      <contour>
        <pt x="584" y="419" on="1"/>
        <pt x="518" y="419" on="0"/>
        <pt x="445" y="350" on="0"/>
        <pt x="432" y="298" on="1"/>
        <pt x="705" y="298" on="1"/>
        <pt x="706" y="303" on="0"/>
        <pt x="706" y="311" on="0"/>
        <pt x="706" y="316" on="1"/>
        <pt x="706" y="341" on="0"/>
        <pt x="686" y="380" on="0"/>
        <pt x="652" y="406" on="0"/>
        <pt x="608" y="419" on="0"/>
      </contour>
    </TTGlyph>
    <TTGlyph name="agrave" xMin="40" yMin="-12" xMax="425" yMax="680">
      <contour>
        <pt x="310" y="549" on="1"/>
        <pt x="108" y="626" on="1"/>
        <pt x="105" y="636" on="0"/>
        <pt x="105" y="645" on="1"/>
        <pt x="105" y="659" on="0"/>
        <pt x="123" y="679" on="0"/>
        <pt x="140" y="680" on="1"/>
        <pt x="320" y="579" on="1"/>
        <pt x="323" y="572" on="1"/>
        <pt x="318" y="552" on="1"/>
      </contour>
      <contour>
        <pt x="370" y="0" on="1"/>
        <pt x="362" y="82" on="1"/>
        <pt x="358" y="82" on="1"/>
        <pt x="346" y="63" on="0"/>
        <pt x="306" y="29" on="0"/>
        <pt x="257" y="3" on="0"/>
        <pt x="200" y="-12" on="0"/>
        <pt x="172" y="-12" on="1"/>
        <pt x="106" y="-12" on="0"/>
        <pt x="40" y="65" on="0"/>
        <pt x="40" y="123" on="1"/>
        <pt x="40" y="180" on="0"/>
        <pt x="98" y="248" on="0"/>
        <pt x="182" y="282" on="0"/>
        <pt x="275" y="292" on="0"/>
        <pt x="310" y="292" on="1"/>
        <pt x="355" y="292" on="1"/>
        <pt x="355" y="304" on="1"/>
        <pt x="355" y="342" on="0"/>
        <pt x="334" y="382" on="0"/>
        <pt x="314" y="396" on="1"/>
        <pt x="297" y="407" on="0"/>
        <pt x="258" y="416" on="0"/>
        <pt x="226" y="416" on="1"/>
        <pt x="184" y="416" on="0"/>
        <pt x="120" y="394" on="0"/>
        <pt x="90" y="376" on="1"/>
        <pt x="74" y="436" on="1"/>
        <pt x="141" y="475" on="0"/>
        <pt x="234" y="475" on="1"/>
        <pt x="271" y="475" on="0"/>
        <pt x="337" y="462" on="0"/>
        <pt x="362" y="446" on="1"/>
        <pt x="391" y="428" on="0"/>
        <pt x="425" y="362" on="0"/>
        <pt x="425" y="313" on="1"/>
        <pt x="425" y="0" on="1"/>
      </contour>
      <contour>
        <pt x="193" y="47" on="1"/>
        <pt x="234" y="47" on="0"/>
        <pt x="326" y="99" on="0"/>
        <pt x="355" y="148" on="1"/>
        <pt x="355" y="241" on="1"/>
        <pt x="346" y="241" on="1"/>
        <pt x="305" y="241" on="0"/>
        <pt x="223" y="235" on="0"/>
        <pt x="156" y="211" on="0"/>
        <pt x="114" y="166" on="0"/>
        <pt x="114" y="127" on="1"/>
        <pt x="114" y="88" on="0"/>
        <pt x="157" y="47" on="0"/>
      </contour>
    </TTGlyph>
    <TTGlyph name="ampersand" xMin="63" yMin="-12" xMax="669" yMax="665">
      <contour>
        <pt x="669" y="427" on="1"/>
        <pt x="669" y="365" on="1"/>
        <pt x="535" y="353" on="1"/>
        <pt x="566" y="296" on="0"/>
        <pt x="566" y="235" on="1"/>
        <pt x="566" y="170" on="0"/>
        <pt x="532" y="113" on="1"/>
        <pt x="642" y="0" on="1"/>
        <pt x="558" y="0" on="1"/>
        <pt x="494" y="65" on="1"/>
        <pt x="459" y="30" on="0"/>
        <pt x="358" y="-12" on="0"/>
        <pt x="294" y="-12" on="1"/>
        <pt x="237" y="-12" on="0"/>
        <pt x="150" y="19" on="0"/>
        <pt x="92" y="72" on="0"/>
        <pt x="63" y="140" on="0"/>
        <pt x="63" y="176" on="1"/>
        <pt x="63" y="203" on="0"/>
        <pt x="80" y="260" on="0"/>
        <pt x="113" y="312" on="0"/>
        <pt x="164" y="356" on="0"/>
        <pt x="197" y="370" on="1"/>
        <pt x="168" y="404" on="0"/>
        <pt x="136" y="472" on="0"/>
        <pt x="136" y="516" on="1"/>
        <pt x="136" y="553" on="0"/>
        <pt x="159" y="608" on="0"/>
        <pt x="200" y="646" on="0"/>
        <pt x="254" y="665" on="0"/>
        <pt x="284" y="665" on="1"/>
        <pt x="318" y="665" on="0"/>
        <pt x="389" y="642" on="0"/>
        <pt x="423" y="621" on="1"/>
        <pt x="403" y="550" on="1"/>
        <pt x="380" y="572" on="0"/>
        <pt x="316" y="600" on="0"/>
        <pt x="286" y="600" on="1"/>
        <pt x="253" y="600" on="0"/>
        <pt x="206" y="559" on="0"/>
        <pt x="206" y="511" on="1"/>
        <pt x="206" y="478" on="0"/>
        <pt x="232" y="424" on="0"/>
        <pt x="257" y="398" on="1"/>
        <pt x="485" y="162" on="1"/>
        <pt x="501" y="200" on="0"/>
        <pt x="501" y="239" on="1"/>
        <pt x="501" y="269" on="0"/>
        <pt x="484" y="322" on="0"/>
        <pt x="468" y="347" on="1"/>
        <pt x="418" y="343" on="1"/>
        <pt x="418" y="390" on="1"/>
      </contour>
      <contour>
        <pt x="303" y="54" on="1"/>
        <pt x="351" y="54" on="0"/>
        <pt x="423" y="85" on="0"/>
        <pt x="449" y="111" on="1"/>
        <pt x="241" y="324" on="1"/>
        <pt x="194" y="308" on="0"/>
        <pt x="139" y="234" on="0"/>
        <pt x="139" y="185" on="1"/>
        <pt x="139" y="153" on="0"/>
        <pt x="164" y="105" on="0"/>
        <pt x="207" y="71" on="0"/>
        <pt x="267" y="54" on="0"/>
      </contour>
    </TTGlyph>
    <TTGlyph name="aring" xMin="40" yMin="-12" xMax="425" yMax="683">
      <contour>
        <pt x="254" y="683" on="1"/>
        <pt x="293" y="683" on="0"/>
        <pt x="337" y="636" on="0"/>
        <pt x="337" y="608" on="1"/>
        <pt x="337" y="582" on="0"/>
        <pt x="295" y="538" on="0"/>
        <pt x="255" y="538" on="1"/>
        <pt x="234" y="538" on="0"/>
        <pt x="203" y="551" on="0"/>
        <pt x="182" y="572" on="0"/>
        <pt x="172" y="597" on="0"/>
        <pt x="172" y="610" on="1"/>
        <pt x="172" y="638" on="0"/>
        <pt x="216" y="683" on="0"/>
      </contour>
      <contour>
        <pt x="255" y="562" on="1"/>
        <pt x="275" y="562" on="0"/>
        <pt x="299" y="591" on="0"/>
        <pt x="299" y="608" on="1"/>
        <pt x="299" y="626" on="0"/>
        <pt x="274" y="659" on="0"/>
        <pt x="253" y="659" on="1"/>
        <pt x="232" y="659" on="0"/>
        <pt x="209" y="628" on="0"/>
        <pt x="209" y="611" on="1"/>
        <pt x="209" y="593" on="0"/>
        <pt x="235" y="562" on="0"/>
      </contour>
      <contour>
        <pt x="370" y="0" on="1"/>
        <pt x="362" y="82" on="1"/>
        <pt x="358" y="82" on="1"/>
        <pt x="346" y="63" on="0"/>
        <pt x="306" y="29" on="0"/>
        <pt x="257" y="3" on="0"/>
        <pt x="200" y="-12" on="0"/>
        <pt x="172" y="-12" on="1"/>
        <pt x="106" y="-12" on="0"/>
        <pt x="40" y="65" on="0"/>
        <pt x="40" y="123" on="1"/>
        <pt x="40" y="180" on="0"/>
        <pt x="98" y="248" on="0"/>
        <pt x="182" y="282" on="0"/>
        <pt x="275" y="292" on="0"/>
        <pt x="310" y="292" on="1"/>
        <pt x="355" y="292" on="1"/>
        <pt x="355" y="304" on="1"/>
        <pt x="355" y="342" on="0"/>
        <pt x="334" y="382" on="0"/>
        <pt x="314" y="396" on="1"/>
        <pt x="297" y="407" on="0"/>
        <pt x="258" y="416" on="0"/>
        <pt x="226" y="416" on="1"/>
        <pt x="184" y="416" on="0"/>
        <pt x="120" y="394" on="0"/>
        <pt x="90" y="376" on="1"/>
        <pt x="74" y="436" on="1"/>
        <pt x="141" y="475" on="0"/>
        <pt x="234" y="475" on="1"/>
        <pt x="271" y="475" on="0"/>
        <pt x="337" y="462" on="0"/>
        <pt x="362" y="446" on="1"/>
        <pt x="391" y="428" on="0"/>
        <pt x="425" y="362" on="0"/>
        <pt x="425" y="313" on="1"/>
        <pt x="425" y="0" on="1"/>
      </contour>
      <contour>
        <pt x="193" y="47" on="1"/>
        <pt x="234" y="47" on="0"/>
        <pt x="326" y="99" on="0"/>
        <pt x="355" y="148" on="1"/>
        <pt x="355" y="241" on="1"/>
        <pt x="346" y="241" on="1"/>
        <pt x="305" y="241" on="0"/>
        <pt x="223" y="235" on="0"/>
        <pt x="156" y="211" on="0"/>
        <pt x="114" y="166" on="0"/>
        <pt x="114" y="127" on="1"/>
        <pt x="114" y="88" on="0"/>
        <pt x="157" y="47" on="0"/>
      </contour>
    </TTGlyph>
    <TTGlyph name="asciicircum" xMin="57" yMin="545" xMax="291" yMax="673">
      <contour>
        <pt x="178" y="673" on="1"/>
        <pt x="288" y="574" on="1"/>
        <pt x="291" y="567" on="1"/>
        <pt x="285" y="548" on="1"/>
        <pt x="278" y="545" on="1"/>
        <pt x="174" y="606" on="1"/>
        <pt x="70" y="545" on="1"/>
        <pt x="63" y="548" on="1"/>
        <pt x="57" y="567" on="1"/>
        <pt x="60" y="574" on="1"/>
        <pt x="170" y="673" on="1"/>
      </contour>
    </TTGlyph>
    <TTGlyph name="asciitilde" xMin="75" yMin="195" xMax="422" yMax="296">
      <contour>
        <pt x="422" y="288" on="1"/>
        <pt x="422" y="285" on="0"/>
        <pt x="412" y="260" on="0"/>
        <pt x="391" y="233" on="0"/>
        <pt x="358" y="211" on="0"/>
        <pt x="334" y="211" on="1"/>
        <pt x="323" y="211" on="0"/>
        <pt x="273" y="214" on="0"/>
        <pt x="214" y="217" on="0"/>
        <pt x="159" y="220" on="0"/>
        <pt x="143" y="220" on="1"/>
        <pt x="118" y="220" on="0"/>
        <pt x="98" y="207" on="0"/>
        <pt x="88" y="195" on="1"/>
        <pt x="75" y="202" on="1"/>
        <pt x="75" y="209" on="0"/>
        <pt x="87" y="235" on="0"/>
        <pt x="111" y="261" on="0"/>
        <pt x="145" y="279" on="0"/>
        <pt x="166" y="279" on="1"/>
        <pt x="179" y="279" on="0"/>
        <pt x="222" y="276" on="0"/>
        <pt x="271" y="273" on="0"/>
        <pt x="323" y="270" on="0"/>
        <pt x="345" y="270" on="1"/>
        <pt x="362" y="270" on="0"/>
        <pt x="397" y="278" on="0"/>
        <pt x="410" y="296" on="1"/>
      </contour>
    </TTGlyph>
    <TTGlyph name="asterisk" xMin="61" yMin="374" xMax="378" yMax="702">
      <contour>
        <pt x="237" y="568" on="1"/>
        <pt x="345" y="649" on="1"/>
        <pt x="378" y="591" on="1"/>
        <pt x="255" y="537" on="1"/>
        <pt x="378" y="484" on="1"/>
        <pt x="346" y="427" on="1"/>
        <pt x="237" y="506" on="1"/>
        <pt x="252" y="374" on="1"/>
        <pt x="187" y="374" on="1"/>
        <pt x="201" y="506" on="1"/>
        <pt x="93" y="427" on="1"/>
        <pt x="61" y="484" on="1"/>
        <pt x="184" y="537" on="1"/>
        <pt x="61" y="591" on="1"/>
        <pt x="94" y="649" on="1"/>
        <pt x="201" y="568" on="1"/>
        <pt x="187" y="702" on="1"/>
        <pt x="253" y="702" on="1"/>
      </contour>
    </TTGlyph>
    <TTGlyph name="at" xMin="57" yMin="-101" xMax="681" yMax="548">
      <contour>
        <pt x="441" y="350" on="1"/>
        <pt x="435" y="356" on="0"/>
        <pt x="416" y="356" on="1"/>
        <pt x="383" y="356" on="0"/>
        <pt x="336" y="320" on="0"/>
        <pt x="306" y="267" on="0"/>
        <pt x="292" y="205" on="0"/>
        <pt x="292" y="180" on="1"/>
        <pt x="292" y="147" on="0"/>
        <pt x="310" y="116" on="0"/>
        <pt x="324" y="116" on="1"/>
        <pt x="337" y="116" on="0"/>
        <pt x="366" y="137" on="0"/>
        <pt x="392" y="170" on="0"/>
        <pt x="413" y="210" on="0"/>
        <pt x="417" y="229" on="1"/>
      </contour>
      <contour>
        <pt x="578" y="-23" on="1"/>
        <pt x="568" y="-32" on="0"/>
        <pt x="525" y="-59" on="0"/>
        <pt x="465" y="-84" on="0"/>
        <pt x="391" y="-101" on="0"/>
        <pt x="350" y="-101" on="1"/>
        <pt x="290" y="-101" on="0"/>
        <pt x="184" y="-61" on="0"/>
        <pt x="104" y="12" on="0"/>
        <pt x="57" y="116" on="0"/>
        <pt x="57" y="180" on="1"/>
        <pt x="57" y="237" on="0"/>
        <pt x="98" y="366" on="0"/>
        <pt x="184" y="476" on="0"/>
        <pt x="317" y="548" on="0"/>
        <pt x="409" y="548" on="1"/>
        <pt x="479" y="548" on="0"/>
        <pt x="582" y="504" on="0"/>
        <pt x="649" y="434" on="0"/>
        <pt x="681" y="346" on="0"/>
        <pt x="681" y="301" on="1"/>
        <pt x="681" y="257" on="0"/>
        <pt x="652" y="175" on="0"/>
        <pt x="598" y="112" on="0"/>
        <pt x="523" y="74" on="0"/>
        <pt x="477" y="74" on="1"/>
        <pt x="453" y="74" on="0"/>
        <pt x="424" y="85" on="0"/>
        <pt x="409" y="104" on="0"/>
        <pt x="404" y="131" on="0"/>
        <pt x="404" y="147" on="1"/>
        <pt x="387" y="113" on="0"/>
        <pt x="336" y="73" on="0"/>
        <pt x="310" y="73" on="1"/>
        <pt x="295" y="73" on="0"/>
        <pt x="265" y="88" on="0"/>
        <pt x="241" y="118" on="0"/>
        <pt x="226" y="163" on="0"/>
        <pt x="226" y="193" on="1"/>
        <pt x="226" y="238" on="0"/>
        <pt x="260" y="310" on="0"/>
        <pt x="315" y="361" on="0"/>
        <pt x="383" y="389" on="0"/>
        <pt x="417" y="389" on="1"/>
        <pt x="441" y="389" on="0"/>
        <pt x="498" y="373" on="0"/>
        <pt x="515" y="356" on="1"/>
        <pt x="478" y="178" on="1"/>
        <pt x="476" y="167" on="0"/>
        <pt x="474" y="150" on="0"/>
        <pt x="474" y="143" on="1"/>
        <pt x="474" y="129" on="0"/>
        <pt x="486" y="115" on="0"/>
        <pt x="503" y="115" on="1"/>
        <pt x="529" y="115" on="0"/>
        <pt x="572" y="146" on="0"/>
        <pt x="603" y="197" on="0"/>
        <pt x="620" y="263" on="0"/>
        <pt x="620" y="297" on="1"/>
        <pt x="620" y="334" on="0"/>
        <pt x="596" y="407" on="0"/>
        <pt x="545" y="465" on="0"/>
        <pt x="465" y="501" on="0"/>
        <pt x="408" y="501" on="1"/>
        <pt x="337" y="501" on="0"/>
        <pt x="229" y="444" on="0"/>
        <pt x="157" y="352" on="0"/>
        <pt x="120" y="238" on="0"/>
        <pt x="120" y="180" on="1"/>
        <pt x="120" y="118" on="0"/>
        <pt x="159" y="30" on="0"/>
        <pt x="225" y="-27" on="0"/>
        <pt x="312" y="-53" on="0"/>
        <pt x="360" y="-53" on="1"/>
        <pt x="401" y="-53" on="0"/>
        <pt x="471" y="-36" on="0"/>
        <pt x="527" y="-11" on="0"/>
        <pt x="567" y="17" on="0"/>
        <pt x="578" y="27" on="1"/>
      </contour>
    </TTGlyph>
    <TTGlyph name="atilde" xMin="40" yMin="-12" xMax="425" yMax="676">
      <contour>
        <pt x="406" y="668" on="1"/>
        <pt x="406" y="665" on="0"/>
        <pt x="396" y="640" on="0"/>
        <pt x="375" y="613" on="0"/>
        <pt x="342" y="591" on="0"/>
        <pt x="318" y="591" on="1"/>
        <pt x="307" y="591" on="0"/>
        <pt x="266" y="594" on="0"/>
        <pt x="219" y="597" on="0"/>
        <pt x="173" y="600" on="0"/>
        <pt x="157" y="600" on="1"/>
        <pt x="132" y="600" on="0"/>
        <pt x="112" y="587" on="0"/>
        <pt x="102" y="575" on="1"/>
        <pt x="89" y="583" on="1"/>
        <pt x="89" y="590" on="0"/>
        <pt x="101" y="616" on="0"/>
        <pt x="125" y="641" on="0"/>
        <pt x="159" y="659" on="0"/>
        <pt x="180" y="659" on="1"/>
        <pt x="206" y="659" on="0"/>
        <pt x="285" y="650" on="0"/>
        <pt x="329" y="650" on="1"/>
        <pt x="346" y="650" on="0"/>
        <pt x="380" y="658" on="0"/>
        <pt x="394" y="676" on="1"/>
      </contour>
      <contour>
        <pt x="370" y="0" on="1"/>
        <pt x="362" y="82" on="1"/>
        <pt x="358" y="82" on="1"/>
        <pt x="346" y="63" on="0"/>
        <pt x="306" y="29" on="0"/>
        <pt x="257" y="3" on="0"/>
        <pt x="200" y="-12" on="0"/>
        <pt x="172" y="-12" on="1"/>
        <pt x="106" y="-12" on="0"/>
        <pt x="40" y="65" on="0"/>
        <pt x="40" y="123" on="1"/>
        <pt x="40" y="180" on="0"/>
        <pt x="98" y="248" on="0"/>
        <pt x="182" y="282" on="0"/>
        <pt x="275" y="292" on="0"/>
        <pt x="310" y="292" on="1"/>
        <pt x="355" y="292" on="1"/>
        <pt x="355" y="304" on="1"/>
        <pt x="355" y="342" on="0"/>
        <pt x="334" y="382" on="0"/>
        <pt x="314" y="396" on="1"/>
        <pt x="297" y="407" on="0"/>
        <pt x="258" y="416" on="0"/>
        <pt x="226" y="416" on="1"/>
        <pt x="184" y="416" on="0"/>
        <pt x="120" y="394" on="0"/>
        <pt x="90" y="376" on="1"/>
        <pt x="74" y="436" on="1"/>
        <pt x="141" y="475" on="0"/>
        <pt x="234" y="475" on="1"/>
        <pt x="271" y="475" on="0"/>
        <pt x="337" y="462" on="0"/>
        <pt x="362" y="446" on="1"/>
        <pt x="391" y="428" on="0"/>
        <pt x="425" y="362" on="0"/>
        <pt x="425" y="313" on="1"/>
        <pt x="425" y="0" on="1"/>
      </contour>
      <contour>
        <pt x="193" y="47" on="1"/>
        <pt x="234" y="47" on="0"/>
        <pt x="326" y="99" on="0"/>
        <pt x="355" y="148" on="1"/>
        <pt x="355" y="241" on="1"/>
        <pt x="346" y="241" on="1"/>
        <pt x="305" y="241" on="0"/>
        <pt x="223" y="235" on="0"/>
        <pt x="156" y="211" on="0"/>
        <pt x="114" y="166" on="0"/>
        <pt x="114" y="127" on="1"/>
        <pt x="114" y="88" on="0"/>
        <pt x="157" y="47" on="0"/>
      </contour>
    </TTGlyph>
    <TTGlyph name="b" xMin="78" yMin="-12" xMax="527" yMax="740">
      <contour>
        <pt x="325" y="-12" on="1"/>
        <pt x="261" y="-12" on="0"/>
        <pt x="169" y="45" on="0"/>
        <pt x="145" y="82" on="1"/>
        <pt x="141" y="82" on="1"/>
        <pt x="133" y="0" on="1"/>
        <pt x="78" y="0" on="1"/>
        <pt x="78" y="740" on="1"/>
        <pt x="148" y="740" on="1"/>
        <pt x="148" y="374" on="1"/>
        <pt x="161" y="417" on="0"/>
        <pt x="249" y="475" on="0"/>
        <pt x="314" y="475" on="1"/>
        <pt x="367" y="475" on="0"/>
        <pt x="447" y="435" on="0"/>
        <pt x="500" y="368" on="0"/>
        <pt x="527" y="278" on="0"/>
        <pt x="527" y="229" on="1"/>
        <pt x="527" y="181" on="0"/>
        <pt x="502" y="94" on="0"/>
        <pt x="452" y="28" on="0"/>
        <pt x="376" y="-12" on="0"/>
      </contour>
      <contour>
        <pt x="317" y="47" on="1"/>
        <pt x="355" y="47" on="0"/>
        <pt x="407" y="79" on="0"/>
        <pt x="439" y="130" on="0"/>
        <pt x="453" y="194" on="0"/>
        <pt x="453" y="226" on="1"/>
        <pt x="453" y="268" on="0"/>
        <pt x="432" y="338" on="0"/>
        <pt x="394" y="388" on="0"/>
        <pt x="338" y="416" on="0"/>
        <pt x="304" y="416" on="1"/>
        <pt x="251" y="416" on="0"/>
        <pt x="166" y="352" on="0"/>
        <pt x="148" y="295" on="1"/>
        <pt x="148" y="148" on="1"/>
        <pt x="177" y="100" on="0"/>
        <pt x="269" y="47" on="0"/>
      </contour>
    </TTGlyph>
    <TTGlyph name="backslash" xMin="35" yMin="-57" xMax="386" yMax="702">
      <contour>
        <pt x="35" y="702" on="1"/>
        <pt x="108" y="702" on="1"/>
        <pt x="386" y="-57" on="1"/>
        <pt x="313" y="-57" on="1"/>
      </contour>
    </TTGlyph>
    <TTGlyph name="bar" xMin="89" yMin="-114" xMax="151" yMax="768">
      <contour>
        <pt x="151" y="-114" on="1"/>
        <pt x="89" y="-114" on="1"/>
        <pt x="89" y="768" on="1"/>
        <pt x="151" y="768" on="1"/>
      </contour>
    </TTGlyph>
    <TTGlyph name="braceleft" xMin="36" yMin="-106" xMax="242" yMax="760">
      <contour>
        <pt x="242" y="739" on="1"/>
        <pt x="220" y="737" on="0"/>
        <pt x="194" y="719" on="0"/>
        <pt x="181" y="692" on="0"/>
        <pt x="177" y="656" on="0"/>
        <pt x="177" y="637" on="1"/>
        <pt x="177" y="628" on="0"/>
        <pt x="178" y="590" on="0"/>
        <pt x="178" y="548" on="0"/>
        <pt x="179" y="507" on="0"/>
        <pt x="179" y="494" on="1"/>
        <pt x="179" y="463" on="0"/>
        <pt x="170" y="408" on="0"/>
        <pt x="149" y="364" on="0"/>
        <pt x="113" y="333" on="0"/>
        <pt x="85" y="327" on="1"/>
        <pt x="113" y="321" on="0"/>
        <pt x="149" y="290" on="0"/>
        <pt x="170" y="246" on="0"/>
        <pt x="179" y="191" on="0"/>
        <pt x="179" y="160" on="1"/>
        <pt x="179" y="147" on="0"/>
        <pt x="178" y="106" on="0"/>
        <pt x="178" y="64" on="0"/>
        <pt x="177" y="26" on="0"/>
        <pt x="177" y="17" on="1"/>
        <pt x="177" y="-3" on="0"/>
        <pt x="181" y="-38" on="0"/>
        <pt x="194" y="-65" on="0"/>
        <pt x="220" y="-83" on="0"/>
        <pt x="242" y="-85" on="1"/>
        <pt x="240" y="-106" on="1"/>
        <pt x="197" y="-106" on="0"/>
        <pt x="144" y="-85" on="0"/>
        <pt x="116" y="-48" on="0"/>
        <pt x="106" y="4" on="0"/>
        <pt x="106" y="36" on="1"/>
        <pt x="106" y="47" on="0"/>
        <pt x="107" y="85" on="0"/>
        <pt x="107" y="128" on="0"/>
        <pt x="108" y="170" on="0"/>
        <pt x="108" y="184" on="1"/>
        <pt x="108" y="202" on="0"/>
        <pt x="105" y="246" on="0"/>
        <pt x="92" y="284" on="0"/>
        <pt x="63" y="311" on="0"/>
        <pt x="36" y="312" on="1"/>
        <pt x="36" y="342" on="1"/>
        <pt x="63" y="343" on="0"/>
        <pt x="92" y="371" on="0"/>
        <pt x="106" y="411" on="0"/>
        <pt x="108" y="455" on="0"/>
        <pt x="108" y="473" on="1"/>
        <pt x="108" y="488" on="0"/>
        <pt x="107" y="529" on="0"/>
        <pt x="107" y="571" on="0"/>
        <pt x="106" y="607" on="0"/>
        <pt x="106" y="618" on="1"/>
        <pt x="106" y="649" on="0"/>
        <pt x="116" y="702" on="0"/>
        <pt x="144" y="739" on="0"/>
        <pt x="197" y="760" on="0"/>
        <pt x="240" y="760" on="1"/>
      </contour>
    </TTGlyph>
    <TTGlyph name="braceright" xMin="43" yMin="-106" xMax="249" yMax="760">
      <contour>
        <pt x="45" y="760" on="1"/>
        <pt x="88" y="760" on="0"/>
        <pt x="141" y="739" on="0"/>
        <pt x="169" y="702" on="0"/>
        <pt x="179" y="649" on="0"/>
        <pt x="179" y="618" on="1"/>
        <pt x="179" y="607" on="0"/>
        <pt x="178" y="571" on="0"/>
        <pt x="178" y="529" on="0"/>
        <pt x="177" y="488" on="0"/>
        <pt x="177" y="473" on="1"/>
        <pt x="177" y="455" on="0"/>
        <pt x="179" y="411" on="0"/>
        <pt x="193" y="371" on="0"/>
        <pt x="222" y="343" on="0"/>
        <pt x="249" y="342" on="1"/>
        <pt x="249" y="312" on="1"/>
        <pt x="222" y="311" on="0"/>
        <pt x="193" y="284" on="0"/>
        <pt x="180" y="246" on="0"/>
        <pt x="177" y="202" on="0"/>
        <pt x="177" y="184" on="1"/>
        <pt x="177" y="170" on="0"/>
        <pt x="178" y="128" on="0"/>
        <pt x="178" y="85" on="0"/>
        <pt x="179" y="47" on="0"/>
        <pt x="179" y="36" on="1"/>
        <pt x="179" y="4" on="0"/>
        <pt x="169" y="-48" on="0"/>
        <pt x="141" y="-85" on="0"/>
        <pt x="88" y="-106" on="0"/>
        <pt x="45" y="-106" on="1"/>
        <pt x="43" y="-85" on="1"/>
        <pt x="65" y="-83" on="0"/>
        <pt x="91" y="-65" on="0"/>
        <pt x="104" y="-38" on="0"/>
        <pt x="108" y="-3" on="0"/>
        <pt x="108" y="17" on="1"/>
        <pt x="108" y="26" on="0"/>
        <pt x="107" y="64" on="0"/>
        <pt x="107" y="106" on="0"/>
        <pt x="106" y="147" on="0"/>
        <pt x="106" y="160" on="1"/>
        <pt x="106" y="191" on="0"/>
        <pt x="115" y="246" on="0"/>
        <pt x="136" y="290" on="0"/>
        <pt x="172" y="321" on="0"/>
        <pt x="200" y="327" on="1"/>
        <pt x="172" y="333" on="0"/>
        <pt x="136" y="364" on="0"/>
        <pt x="115" y="408" on="0"/>
        <pt x="106" y="463" on="0"/>
        <pt x="106" y="494" on="1"/>
        <pt x="106" y="507" on="0"/>
        <pt x="107" y="548" on="0"/>
        <pt x="107" y="590" on="0"/>
        <pt x="108" y="628" on="0"/>
        <pt x="108" y="637" on="1"/>
        <pt x="108" y="656" on="0"/>
        <pt x="104" y="692" on="0"/>
        <pt x="91" y="719" on="0"/>
        <pt x="65" y="737" on="0"/>
        <pt x="43" y="739" on="1"/>
      </contour>
    </TTGlyph>
    <TTGlyph name="bracketleft" xMin="90" yMin="-95" xMax="250" yMax="749">
      <contour>
        <pt x="250" y="-95" on="1"/>
        <pt x="90" y="-95" on="1"/>
        <pt x="90" y="749" on="1"/>
        <pt x="250" y="749" on="1"/>
        <pt x="250" y="707" on="1"/>
        <pt x="155" y="707" on="1"/>
        <pt x="155" y="-53" on="1"/>
        <pt x="250" y="-53" on="1"/>
      </contour>
    </TTGlyph>
    <TTGlyph name="bracketright" xMin="36" yMin="-95" xMax="196" yMax="749">
      <contour>
        <pt x="36" y="749" on="1"/>
        <pt x="196" y="749" on="1"/>
        <pt x="196" y="-95" on="1"/>
        <pt x="36" y="-95" on="1"/>
        <pt x="36" y="-53" on="1"/>
        <pt x="131" y="-53" on="1"/>
        <pt x="131" y="707" on="1"/>
        <pt x="36" y="707" on="1"/>
      </contour>
    </TTGlyph>
    <TTGlyph name="brokenbar" xMin="91" yMin="-114" xMax="153" yMax="768">
      <contour>
        <pt x="153" y="274" on="1"/>
        <pt x="153" y="-114" on="1"/>
        <pt x="91" y="-114" on="1"/>
        <pt x="91" y="274" on="1"/>
      </contour>
      <contour>
        <pt x="91" y="380" on="1"/>
        <pt x="91" y="768" on="1"/>
        <pt x="153" y="768" on="1"/>
        <pt x="153" y="380" on="1"/>
      </contour>
    </TTGlyph>
    <TTGlyph name="bullet" xMin="96" yMin="176" xMax="232" yMax="312">
      <contour>
        <pt x="96" y="243" on="1"/>
        <pt x="96" y="270" on="0"/>
        <pt x="135" y="312" on="0"/>
        <pt x="164" y="312" on="1"/>
        <pt x="177" y="312" on="0"/>
        <pt x="202" y="301" on="0"/>
        <pt x="221" y="281" on="0"/>
        <pt x="232" y="256" on="0"/>
        <pt x="232" y="243" on="1"/>
        <pt x="232" y="214" on="0"/>
        <pt x="190" y="176" on="0"/>
        <pt x="164" y="176" on="1"/>
        <pt x="135" y="176" on="0"/>
        <pt x="96" y="214" on="0"/>
      </contour>
    </TTGlyph>
    <TTGlyph name="c" xMin="48" yMin="-12" xMax="459" yMax="475">
      <contour>
        <pt x="437" y="376" on="1"/>
        <pt x="414" y="393" on="0"/>
        <pt x="328" y="420" on="0"/>
        <pt x="285" y="420" on="1"/>
        <pt x="241" y="420" on="0"/>
        <pt x="180" y="390" on="0"/>
        <pt x="140" y="340" on="0"/>
        <pt x="122" y="275" on="0"/>
        <pt x="122" y="240" on="1"/>
        <pt x="122" y="201" on="0"/>
        <pt x="144" y="129" on="0"/>
        <pt x="187" y="75" on="0"/>
        <pt x="250" y="43" on="0"/>
        <pt x="292" y="43" on="1"/>
        <pt x="332" y="43" on="0"/>
        <pt x="417" y="77" on="0"/>
        <pt x="445" y="103" on="1"/>
        <pt x="459" y="38" on="1"/>
        <pt x="431" y="20" on="0"/>
        <pt x="334" y="-12" on="0"/>
        <pt x="279" y="-12" on="1"/>
        <pt x="221" y="-12" on="0"/>
        <pt x="134" y="28" on="0"/>
        <pt x="77" y="95" on="0"/>
        <pt x="48" y="184" on="0"/>
        <pt x="48" y="234" on="1"/>
        <pt x="48" y="282" on="0"/>
        <pt x="75" y="369" on="0"/>
        <pt x="133" y="436" on="0"/>
        <pt x="223" y="475" on="0"/>
        <pt x="286" y="475" on="1"/>
        <pt x="334" y="475" on="0"/>
        <pt x="426" y="453" on="0"/>
        <pt x="454" y="435" on="1"/>
      </contour>
    </TTGlyph>
    <TTGlyph name="caron" xMin="0" yMin="545" xMax="234" yMax="673">
      <contour>
        <pt x="113" y="545" on="1"/>
        <pt x="3" y="644" on="1"/>
        <pt x="0" y="650" on="1"/>
        <pt x="6" y="670" on="1"/>
        <pt x="13" y="673" on="1"/>
        <pt x="117" y="611" on="1"/>
        <pt x="221" y="673" on="1"/>
        <pt x="228" y="670" on="1"/>
        <pt x="234" y="650" on="1"/>
        <pt x="231" y="644" on="1"/>
        <pt x="121" y="545" on="1"/>
      </contour>
    </TTGlyph>
    <TTGlyph name="ccedilla" xMin="49" yMin="-203" xMax="460" yMax="475">
      <contour>
        <pt x="438" y="376" on="1"/>
        <pt x="415" y="393" on="0"/>
        <pt x="329" y="420" on="0"/>
        <pt x="286" y="420" on="1"/>
        <pt x="242" y="420" on="0"/>
        <pt x="181" y="390" on="0"/>
        <pt x="141" y="340" on="0"/>
        <pt x="123" y="275" on="0"/>
        <pt x="123" y="240" on="1"/>
        <pt x="123" y="201" on="0"/>
        <pt x="145" y="129" on="0"/>
        <pt x="188" y="75" on="0"/>
        <pt x="251" y="43" on="0"/>
        <pt x="293" y="43" on="1"/>
        <pt x="333" y="43" on="0"/>
        <pt x="416" y="74" on="0"/>
        <pt x="444" y="100" on="1"/>
        <pt x="460" y="38" on="1"/>
        <pt x="434" y="21" on="0"/>
        <pt x="343" y="-10" on="0"/>
        <pt x="291" y="-12" on="1"/>
        <pt x="267" y="-51" on="1"/>
        <pt x="276" y="-49" on="0"/>
        <pt x="293" y="-47" on="0"/>
        <pt x="300" y="-47" on="1"/>
        <pt x="335" y="-47" on="0"/>
        <pt x="379" y="-88" on="0"/>
        <pt x="379" y="-119" on="1"/>
        <pt x="379" y="-136" on="0"/>
        <pt x="363" y="-166" on="0"/>
        <pt x="334" y="-189" on="0"/>
        <pt x="294" y="-203" on="0"/>
        <pt x="270" y="-203" on="1"/>
        <pt x="246" y="-203" on="0"/>
        <pt x="198" y="-192" on="0"/>
        <pt x="179" y="-184" on="1"/>
        <pt x="178" y="-178" on="1"/>
        <pt x="191" y="-155" on="1"/>
        <pt x="198" y="-155" on="1"/>
        <pt x="210" y="-160" on="0"/>
        <pt x="247" y="-167" on="0"/>
        <pt x="267" y="-167" on="1"/>
        <pt x="289" y="-167" on="0"/>
        <pt x="320" y="-150" on="0"/>
        <pt x="320" y="-127" on="1"/>
        <pt x="320" y="-100" on="0"/>
        <pt x="290" y="-81" on="0"/>
        <pt x="269" y="-81" on="1"/>
        <pt x="257" y="-81" on="0"/>
        <pt x="231" y="-85" on="0"/>
        <pt x="220" y="-88" on="1"/>
        <pt x="212" y="-77" on="1"/>
        <pt x="255" y="-11" on="1"/>
        <pt x="203" y="-7" on="0"/>
        <pt x="126" y="36" on="0"/>
        <pt x="75" y="102" on="0"/>
        <pt x="49" y="187" on="0"/>
        <pt x="49" y="234" on="1"/>
        <pt x="49" y="282" on="0"/>
        <pt x="76" y="369" on="0"/>
        <pt x="134" y="436" on="0"/>
        <pt x="224" y="475" on="0"/>
        <pt x="287" y="475" on="1"/>
        <pt x="335" y="475" on="0"/>
        <pt x="427" y="453" on="0"/>
        <pt x="455" y="435" on="1"/>
      </contour>
    </TTGlyph>
    <TTGlyph name="cedilla" xMin="0" yMin="-203" xMax="202" yMax="0">
      <contour>
        <pt x="0" y="-178" on="1"/>
        <pt x="13" y="-155" on="1"/>
        <pt x="20" y="-155" on="1"/>
        <pt x="32" y="-160" on="0"/>
        <pt x="70" y="-167" on="0"/>
        <pt x="89" y="-167" on="1"/>
        <pt x="111" y="-167" on="0"/>
        <pt x="143" y="-150" on="0"/>
        <pt x="143" y="-127" on="1"/>
        <pt x="143" y="-100" on="0"/>
        <pt x="112" y="-81" on="0"/>
        <pt x="91" y="-81" on="1"/>
        <pt x="79" y="-81" on="0"/>
        <pt x="54" y="-85" on="0"/>
        <pt x="43" y="-88" on="1"/>
        <pt x="34" y="-77" on="1"/>
        <pt x="85" y="0" on="1"/>
        <pt x="119" y="0" on="1"/>
        <pt x="89" y="-51" on="1"/>
        <pt x="106" y="-47" on="0"/>
        <pt x="123" y="-47" on="1"/>
        <pt x="158" y="-47" on="0"/>
        <pt x="202" y="-88" on="0"/>
        <pt x="202" y="-119" on="1"/>
        <pt x="202" y="-136" on="0"/>
        <pt x="185" y="-166" on="0"/>
        <pt x="156" y="-189" on="0"/>
        <pt x="116" y="-203" on="0"/>
        <pt x="92" y="-203" on="1"/>
        <pt x="68" y="-203" on="0"/>
        <pt x="21" y="-192" on="0"/>
        <pt x="1" y="-184" on="1"/>
      </contour>
    </TTGlyph>
    <TTGlyph name="cent" xMin="47" yMin="-137" xMax="458" yMax="577">
      <contour>
        <pt x="317" y="443" on="1"/>
        <pt x="357" y="440" on="0"/>
        <pt x="430" y="420" on="0"/>
        <pt x="453" y="405" on="1"/>
        <pt x="436" y="346" on="1"/>
        <pt x="417" y="360" on="0"/>
        <pt x="352" y="382" on="0"/>
        <pt x="317" y="387" on="1"/>
        <pt x="317" y="44" on="1"/>
        <pt x="352" y="49" on="0"/>
        <pt x="421" y="80" on="0"/>
        <pt x="444" y="103" on="1"/>
        <pt x="458" y="38" on="1"/>
        <pt x="435" y="23" on="0"/>
        <pt x="361" y="-5" on="0"/>
        <pt x="317" y="-10" on="1"/>
        <pt x="317" y="-137" on="1"/>
        <pt x="257" y="-137" on="1"/>
        <pt x="257" y="-11" on="1"/>
        <pt x="204" y="-7" on="0"/>
        <pt x="125" y="32" on="0"/>
        <pt x="73" y="95" on="0"/>
        <pt x="47" y="175" on="0"/>
        <pt x="47" y="219" on="1"/>
        <pt x="47" y="261" on="0"/>
        <pt x="71" y="339" on="0"/>
        <pt x="122" y="400" on="0"/>
        <pt x="202" y="439" on="0"/>
        <pt x="257" y="444" on="1"/>
        <pt x="257" y="577" on="1"/>
        <pt x="317" y="577" on="1"/>
      </contour>
      <contour>
        <pt x="121" y="225" on="1"/>
        <pt x="121" y="192" on="0"/>
        <pt x="138" y="132" on="0"/>
        <pt x="173" y="84" on="0"/>
        <pt x="224" y="52" on="0"/>
        <pt x="257" y="46" on="1"/>
        <pt x="257" y="388" on="1"/>
        <pt x="221" y="383" on="0"/>
        <pt x="169" y="354" on="0"/>
        <pt x="136" y="310" on="0"/>
        <pt x="121" y="255" on="0"/>
      </contour>
    </TTGlyph>
    <TTGlyph name="circumflex" xMin="0" yMin="545" xMax="234" yMax="673">
      <contour>
        <pt x="121" y="673" on="1"/>
        <pt x="231" y="574" on="1"/>
        <pt x="234" y="567" on="1"/>
        <pt x="228" y="548" on="1"/>
        <pt x="221" y="545" on="1"/>
        <pt x="117" y="606" on="1"/>
        <pt x="13" y="545" on="1"/>
        <pt x="6" y="548" on="1"/>
        <pt x="0" y="567" on="1"/>
        <pt x="3" y="574" on="1"/>
        <pt x="113" y="673" on="1"/>
      </contour>
    </TTGlyph>
    <TTGlyph name="colon" xMin="74" yMin="-11" xMax="168" yMax="455">
      <contour>
        <pt x="74" y="35" on="1"/>
        <pt x="74" y="54" on="0"/>
        <pt x="100" y="83" on="0"/>
        <pt x="120" y="83" on="1"/>
        <pt x="139" y="83" on="0"/>
        <pt x="168" y="54" on="0"/>
        <pt x="168" y="35" on="1"/>
        <pt x="168" y="16" on="0"/>
        <pt x="139" y="-11" on="0"/>
        <pt x="120" y="-11" on="1"/>
        <pt x="100" y="-11" on="0"/>
        <pt x="74" y="16" on="0"/>
      </contour>
      <contour>
        <pt x="74" y="408" on="1"/>
        <pt x="74" y="427" on="0"/>
        <pt x="100" y="455" on="0"/>
        <pt x="120" y="455" on="1"/>
        <pt x="139" y="455" on="0"/>
        <pt x="168" y="427" on="0"/>
        <pt x="168" y="408" on="1"/>
        <pt x="168" y="388" on="0"/>
        <pt x="139" y="361" on="0"/>
        <pt x="120" y="361" on="1"/>
        <pt x="100" y="361" on="0"/>
        <pt x="74" y="388" on="0"/>
      </contour>
    </TTGlyph>
    <TTGlyph name="comma" xMin="68" yMin="-97" xMax="161" yMax="85">
      <contour>
        <pt x="68" y="-78" on="1"/>
        <pt x="107" y="-5" on="1"/>
        <pt x="82" y="-5" on="1"/>
        <pt x="82" y="85" on="1"/>
        <pt x="161" y="85" on="1"/>
        <pt x="161" y="-20" on="1"/>
        <pt x="88" y="-97" on="1"/>
      </contour>
    </TTGlyph>
    <TTGlyph name="copyright" xMin="59" yMin="52" xMax="666" yMax="654">
      <contour>
        <pt x="362" y="654" on="1"/>
        <pt x="425" y="654" on="0"/>
        <pt x="536" y="607" on="0"/>
        <pt x="618" y="525" on="0"/>
        <pt x="666" y="416" on="0"/>
        <pt x="666" y="354" on="1"/>
        <pt x="666" y="291" on="0"/>
        <pt x="618" y="180" on="0"/>
        <pt x="535" y="99" on="0"/>
        <pt x="422" y="52" on="0"/>
        <pt x="357" y="52" on="1"/>
        <pt x="296" y="52" on="0"/>
        <pt x="187" y="100" on="0"/>
        <pt x="106" y="182" on="0"/>
        <pt x="59" y="292" on="0"/>
        <pt x="59" y="354" on="1"/>
        <pt x="59" y="416" on="0"/>
        <pt x="106" y="525" on="0"/>
        <pt x="189" y="607" on="0"/>
        <pt x="299" y="654" on="0"/>
      </contour>
      <contour>
        <pt x="362" y="613" on="1"/>
        <pt x="308" y="613" on="0"/>
        <pt x="214" y="573" on="0"/>
        <pt x="145" y="502" on="0"/>
        <pt x="106" y="408" on="0"/>
        <pt x="106" y="354" on="1"/>
        <pt x="106" y="299" on="0"/>
        <pt x="145" y="204" on="0"/>
        <pt x="214" y="133" on="0"/>
        <pt x="305" y="93" on="0"/>
        <pt x="358" y="93" on="1"/>
        <pt x="414" y="93" on="0"/>
        <pt x="509" y="133" on="0"/>
        <pt x="579" y="203" on="0"/>
        <pt x="619" y="298" on="0"/>
        <pt x="619" y="354" on="1"/>
        <pt x="619" y="408" on="0"/>
        <pt x="579" y="502" on="0"/>
        <pt x="510" y="573" on="0"/>
        <pt x="416" y="613" on="0"/>
      </contour>
      <contour>
        <pt x="468" y="442" on="1"/>
        <pt x="452" y="454" on="0"/>
        <pt x="391" y="472" on="0"/>
        <pt x="362" y="472" on="1"/>
        <pt x="334" y="472" on="0"/>
        <pt x="295" y="454" on="0"/>
        <pt x="271" y="424" on="0"/>
        <pt x="260" y="383" on="0"/>
        <pt x="260" y="360" on="1"/>
        <pt x="260" y="309" on="0"/>
        <pt x="313" y="237" on="0"/>
        <pt x="366" y="237" on="1"/>
        <pt x="395" y="237" on="0"/>
        <pt x="454" y="260" on="0"/>
        <pt x="474" y="279" on="1"/>
        <pt x="483" y="223" on="1"/>
        <pt x="463" y="210" on="0"/>
        <pt x="395" y="188" on="0"/>
        <pt x="357" y="188" on="1"/>
        <pt x="316" y="188" on="0"/>
        <pt x="257" y="215" on="0"/>
        <pt x="218" y="260" on="0"/>
        <pt x="199" y="321" on="0"/>
        <pt x="199" y="356" on="1"/>
        <pt x="199" y="390" on="0"/>
        <pt x="217" y="450" on="0"/>
        <pt x="256" y="495" on="0"/>
        <pt x="318" y="521" on="0"/>
        <pt x="362" y="521" on="1"/>
        <pt x="395" y="521" on="0"/>
        <pt x="460" y="506" on="0"/>
        <pt x="480" y="493" on="1"/>
      </contour>
    </TTGlyph>
    <TTGlyph name="currency" xMin="55" yMin="-3" xMax="525" yMax="461">
      <contour>
        <pt x="136" y="107" on="1"/>
        <pt x="92" y="161" on="0"/>
        <pt x="92" y="230" on="1"/>
        <pt x="92" y="262" on="0"/>
        <pt x="112" y="320" on="0"/>
        <pt x="137" y="351" on="1"/>
        <pt x="55" y="431" on="1"/>
        <pt x="85" y="461" on="1"/>
        <pt x="165" y="382" on="1"/>
        <pt x="197" y="405" on="0"/>
        <pt x="255" y="426" on="0"/>
        <pt x="289" y="426" on="1"/>
        <pt x="324" y="426" on="0"/>
        <pt x="383" y="405" on="0"/>
        <pt x="412" y="382" on="1"/>
        <pt x="493" y="460" on="1"/>
        <pt x="523" y="431" on="1"/>
        <pt x="444" y="351" on="1"/>
        <pt x="467" y="320" on="0"/>
        <pt x="488" y="262" on="0"/>
        <pt x="488" y="228" on="1"/>
        <pt x="488" y="195" on="0"/>
        <pt x="468" y="137" on="0"/>
        <pt x="445" y="107" on="1"/>
        <pt x="525" y="27" on="1"/>
        <pt x="494" y="-3" on="1"/>
        <pt x="413" y="76" on="1"/>
        <pt x="384" y="54" on="0"/>
        <pt x="324" y="31" on="0"/>
        <pt x="291" y="31" on="1"/>
        <pt x="259" y="31" on="0"/>
        <pt x="200" y="53" on="0"/>
        <pt x="167" y="76" on="1"/>
        <pt x="87" y="-3" on="1"/>
        <pt x="58" y="27" on="1"/>
      </contour>
      <contour>
        <pt x="290" y="378" on="1"/>
        <pt x="260" y="378" on="0"/>
        <pt x="206" y="355" on="0"/>
        <pt x="165" y="315" on="0"/>
        <pt x="142" y="260" on="0"/>
        <pt x="142" y="229" on="1"/>
        <pt x="142" y="198" on="0"/>
        <pt x="165" y="144" on="0"/>
        <pt x="206" y="103" on="0"/>
        <pt x="260" y="80" on="0"/>
        <pt x="291" y="80" on="1"/>
        <pt x="322" y="80" on="0"/>
        <pt x="375" y="103" on="0"/>
        <pt x="415" y="144" on="0"/>
        <pt x="438" y="198" on="0"/>
        <pt x="438" y="229" on="1"/>
        <pt x="438" y="260" on="0"/>
        <pt x="415" y="314" on="0"/>
        <pt x="375" y="354" on="0"/>
        <pt x="321" y="378" on="0"/>
      </contour>
    </TTGlyph>
    <TTGlyph name="d" xMin="48" yMin="-12" xMax="497" yMax="740">
      <contour>
        <pt x="250" y="-12" on="1"/>
        <pt x="199" y="-12" on="0"/>
        <pt x="123" y="28" on="0"/>
        <pt x="73" y="94" on="0"/>
        <pt x="48" y="181" on="0"/>
        <pt x="48" y="229" on="1"/>
        <pt x="48" y="278" on="0"/>
        <pt x="75" y="368" on="0"/>
        <pt x="128" y="435" on="0"/>
        <pt x="208" y="475" on="0"/>
        <pt x="261" y="475" on="1"/>
        <pt x="328" y="475" on="0"/>
        <pt x="414" y="417" on="0"/>
        <pt x="427" y="374" on="1"/>
        <pt x="427" y="740" on="1"/>
        <pt x="497" y="740" on="1"/>
        <pt x="497" y="0" on="1"/>
        <pt x="442" y="0" on="1"/>
        <pt x="434" y="82" on="1"/>
        <pt x="430" y="82" on="1"/>
        <pt x="406" y="45" on="0"/>
        <pt x="314" y="-12" on="0"/>
      </contour>
      <contour>
        <pt x="258" y="47" on="1"/>
        <pt x="306" y="47" on="0"/>
        <pt x="399" y="99" on="0"/>
        <pt x="427" y="148" on="1"/>
        <pt x="427" y="295" on="1"/>
        <pt x="409" y="352" on="0"/>
        <pt x="324" y="416" on="0"/>
        <pt x="271" y="416" on="1"/>
        <pt x="236" y="416" on="0"/>
        <pt x="181" y="388" on="0"/>
        <pt x="143" y="338" on="0"/>
        <pt x="122" y="268" on="0"/>
        <pt x="122" y="226" on="1"/>
        <pt x="122" y="194" on="0"/>
        <pt x="136" y="130" on="0"/>
        <pt x="168" y="79" on="0"/>
        <pt x="220" y="47" on="0"/>
      </contour>
    </TTGlyph>
    <TTGlyph name="dagger" xMin="36" yMin="109" xMax="430" yMax="692">
      <contour>
        <pt x="188" y="109" on="1"/>
        <pt x="200" y="337" on="1"/>
        <pt x="200" y="434" on="1"/>
        <pt x="190" y="434" on="1"/>
        <pt x="36" y="422" on="1"/>
        <pt x="36" y="495" on="1"/>
        <pt x="190" y="483" on="1"/>
        <pt x="200" y="483" on="1"/>
        <pt x="188" y="692" on="1"/>
        <pt x="278" y="692" on="1"/>
        <pt x="266" y="483" on="1"/>
        <pt x="275" y="483" on="1"/>
        <pt x="430" y="495" on="1"/>
        <pt x="430" y="422" on="1"/>
        <pt x="275" y="434" on="1"/>
        <pt x="266" y="434" on="1"/>
        <pt x="266" y="337" on="1"/>
        <pt x="278" y="109" on="1"/>
      </contour>
    </TTGlyph>
    <TTGlyph name="daggerdbl" xMin="57" yMin="-71" xMax="451" yMax="692">
      <contour>
        <pt x="209" y="-71" on="1"/>
        <pt x="220" y="138" on="1"/>
        <pt x="211" y="138" on="1"/>
        <pt x="57" y="125" on="1"/>
        <pt x="57" y="199" on="1"/>
        <pt x="211" y="186" on="1"/>
        <pt x="221" y="186" on="1"/>
        <pt x="221" y="434" on="1"/>
        <pt x="211" y="434" on="1"/>
        <pt x="57" y="422" on="1"/>
        <pt x="57" y="495" on="1"/>
        <pt x="211" y="483" on="1"/>
        <pt x="221" y="483" on="1"/>
        <pt x="209" y="692" on="1"/>
        <pt x="299" y="692" on="1"/>
        <pt x="287" y="483" on="1"/>
        <pt x="296" y="483" on="1"/>
        <pt x="451" y="495" on="1"/>
        <pt x="451" y="422" on="1"/>
        <pt x="296" y="434" on="1"/>
        <pt x="287" y="434" on="1"/>
        <pt x="287" y="186" on="1"/>
        <pt x="296" y="186" on="1"/>
        <pt x="451" y="199" on="1"/>
        <pt x="451" y="125" on="1"/>
        <pt x="296" y="138" on="1"/>
        <pt x="287" y="138" on="1"/>
        <pt x="299" y="-71" on="1"/>
      </contour>
    </TTGlyph>
    <TTGlyph name="degree" xMin="57" yMin="429" xMax="301" yMax="658">
      <contour>
        <pt x="178" y="658" on="1"/>
        <pt x="239" y="658" on="0"/>
        <pt x="301" y="588" on="0"/>
        <pt x="301" y="540" on="1"/>
        <pt x="301" y="518" on="0"/>
        <pt x="286" y="478" on="0"/>
        <pt x="256" y="447" on="0"/>
        <pt x="209" y="429" on="0"/>
        <pt x="178" y="429" on="1"/>
        <pt x="146" y="429" on="0"/>
        <pt x="100" y="448" on="0"/>
        <pt x="71" y="480" on="0"/>
        <pt x="57" y="521" on="0"/>
        <pt x="57" y="543" on="1"/>
        <pt x="57" y="567" on="0"/>
        <pt x="73" y="608" on="0"/>
        <pt x="104" y="640" on="0"/>
        <pt x="149" y="658" on="0"/>
      </contour>
      <contour>
        <pt x="178" y="467" on="1"/>
        <pt x="216" y="467" on="0"/>
        <pt x="251" y="508" on="0"/>
        <pt x="251" y="540" on="1"/>
        <pt x="251" y="572" on="0"/>
        <pt x="215" y="617" on="0"/>
        <pt x="177" y="617" on="1"/>
        <pt x="138" y="617" on="0"/>
        <pt x="104" y="574" on="0"/>
        <pt x="104" y="544" on="1"/>
        <pt x="104" y="512" on="0"/>
        <pt x="141" y="467" on="0"/>
      </contour>
    </TTGlyph>
    <TTGlyph name="dieresis" xMin="0" yMin="587" xMax="220" yMax="676">
      <contour>
        <pt x="0" y="631" on="1"/>
        <pt x="0" y="649" on="0"/>
        <pt x="24" y="676" on="0"/>
        <pt x="41" y="676" on="1"/>
        <pt x="58" y="676" on="0"/>
        <pt x="83" y="649" on="0"/>
        <pt x="83" y="631" on="1"/>
        <pt x="83" y="612" on="0"/>
        <pt x="58" y="587" on="0"/>
        <pt x="41" y="587" on="1"/>
        <pt x="24" y="587" on="0"/>
        <pt x="0" y="612" on="0"/>
      </contour>
      <contour>
        <pt x="137" y="631" on="1"/>
        <pt x="137" y="649" on="0"/>
        <pt x="161" y="676" on="0"/>
        <pt x="178" y="676" on="1"/>
        <pt x="195" y="676" on="0"/>
        <pt x="220" y="649" on="0"/>
        <pt x="220" y="631" on="1"/>
        <pt x="220" y="612" on="0"/>
        <pt x="195" y="587" on="0"/>
        <pt x="178" y="587" on="1"/>
        <pt x="161" y="587" on="0"/>
        <pt x="137" y="612" on="0"/>
      </contour>
    </TTGlyph>
    <TTGlyph name="divide" xMin="77" yMin="33" xMax="491" yMax="445">
      <contour>
        <pt x="491" y="265" on="1"/>
        <pt x="491" y="213" on="1"/>
        <pt x="77" y="213" on="1"/>
        <pt x="77" y="265" on="1"/>
      </contour>
      <contour>
        <pt x="248" y="80" on="1"/>
        <pt x="248" y="99" on="0"/>
        <pt x="275" y="127" on="0"/>
        <pt x="295" y="127" on="1"/>
        <pt x="313" y="127" on="0"/>
        <pt x="342" y="99" on="0"/>
        <pt x="342" y="80" on="1"/>
        <pt x="342" y="60" on="0"/>
        <pt x="313" y="33" on="0"/>
        <pt x="295" y="33" on="1"/>
        <pt x="275" y="33" on="0"/>
        <pt x="248" y="60" on="0"/>
      </contour>
      <contour>
        <pt x="248" y="397" on="1"/>
        <pt x="248" y="416" on="0"/>
        <pt x="275" y="445" on="0"/>
        <pt x="295" y="445" on="1"/>
        <pt x="313" y="445" on="0"/>
        <pt x="342" y="416" on="0"/>
        <pt x="342" y="397" on="1"/>
        <pt x="342" y="378" on="0"/>
        <pt x="313" y="351" on="0"/>
        <pt x="295" y="351" on="1"/>
        <pt x="275" y="351" on="0"/>
        <pt x="248" y="378" on="0"/>
      </contour>
    </TTGlyph>
    <TTGlyph name="dollar" xMin="43" yMin="-96" xMax="489" yMax="750">
      <contour>
        <pt x="300" y="664" on="1"/>
        <pt x="344" y="661" on="0"/>
        <pt x="422" y="641" on="0"/>
        <pt x="451" y="627" on="1"/>
        <pt x="430" y="550" on="1"/>
        <pt x="405" y="572" on="0"/>
        <pt x="334" y="594" on="0"/>
        <pt x="300" y="597" on="1"/>
        <pt x="300" y="378" on="1"/>
        <pt x="335" y="366" on="0"/>
        <pt x="403" y="336" on="0"/>
        <pt x="456" y="290" on="0"/>
        <pt x="489" y="224" on="0"/>
        <pt x="489" y="176" on="1"/>
        <pt x="489" y="130" on="0"/>
        <pt x="459" y="63" on="0"/>
        <pt x="407" y="18" on="0"/>
        <pt x="338" y="-6" on="0"/>
        <pt x="300" y="-10" on="1"/>
        <pt x="300" y="-96" on="1"/>
        <pt x="240" y="-96" on="1"/>
        <pt x="240" y="-11" on="1"/>
        <pt x="181" y="-9" on="0"/>
        <pt x="80" y="22" on="0"/>
        <pt x="43" y="43" on="1"/>
        <pt x="64" y="116" on="1"/>
        <pt x="100" y="91" on="0"/>
        <pt x="178" y="56" on="0"/>
        <pt x="240" y="54" on="1"/>
        <pt x="240" y="313" on="1"/>
        <pt x="198" y="327" on="0"/>
        <pt x="131" y="359" on="0"/>
        <pt x="84" y="402" on="0"/>
        <pt x="59" y="459" on="0"/>
        <pt x="59" y="498" on="1"/>
        <pt x="59" y="538" on="0"/>
        <pt x="86" y="598" on="0"/>
        <pt x="135" y="638" on="0"/>
        <pt x="201" y="660" on="0"/>
        <pt x="240" y="663" on="1"/>
        <pt x="240" y="750" on="1"/>
        <pt x="300" y="750" on="1"/>
      </contour>
      <contour>
        <pt x="412" y="162" on="1"/>
        <pt x="412" y="188" on="0"/>
        <pt x="393" y="228" on="0"/>
        <pt x="362" y="259" on="0"/>
        <pt x="322" y="282" on="0"/>
        <pt x="300" y="291" on="1"/>
        <pt x="300" y="57" on="1"/>
        <pt x="360" y="65" on="0"/>
        <pt x="412" y="122" on="0"/>
      </contour>
      <contour>
        <pt x="132" y="501" on="1"/>
        <pt x="132" y="481" on="0"/>
        <pt x="145" y="451" on="0"/>
        <pt x="171" y="428" on="0"/>
        <pt x="212" y="409" on="0"/>
        <pt x="240" y="399" on="1"/>
        <pt x="240" y="597" on="1"/>
        <pt x="189" y="592" on="0"/>
        <pt x="132" y="546" on="0"/>
      </contour>
    </TTGlyph>
    <TTGlyph name="dotlessi" xMin="78" yMin="0" xMax="148" yMax="460">
      <contour>
        <pt x="148" y="0" on="1"/>
        <pt x="78" y="0" on="1"/>
        <pt x="78" y="460" on="1"/>
        <pt x="148" y="460" on="1"/>
      </contour>
    </TTGlyph>
    <TTGlyph name="e" xMin="47" yMin="-12" xMax="468" yMax="475">
      <contour>
        <pt x="284" y="475" on="1"/>
        <pt x="372" y="475" on="0"/>
        <pt x="468" y="386" on="0"/>
        <pt x="468" y="305" on="1"/>
        <pt x="468" y="288" on="0"/>
        <pt x="464" y="253" on="0"/>
        <pt x="459" y="245" on="1"/>
        <pt x="122" y="245" on="1"/>
        <pt x="122" y="235" on="1"/>
        <pt x="122" y="197" on="0"/>
        <pt x="142" y="127" on="0"/>
        <pt x="182" y="73" on="0"/>
        <pt x="243" y="41" on="0"/>
        <pt x="285" y="41" on="1"/>
        <pt x="309" y="41" on="0"/>
        <pt x="355" y="52" on="0"/>
        <pt x="397" y="69" on="0"/>
        <pt x="433" y="89" on="0"/>
        <pt x="447" y="99" on="1"/>
        <pt x="459" y="42" on="1"/>
        <pt x="446" y="34" on="0"/>
        <pt x="408" y="15" on="0"/>
        <pt x="362" y="-1" on="0"/>
        <pt x="307" y="-12" on="0"/>
        <pt x="277" y="-12" on="1"/>
        <pt x="221" y="-12" on="0"/>
        <pt x="135" y="27" on="0"/>
        <pt x="77" y="94" on="0"/>
        <pt x="47" y="182" on="0"/>
        <pt x="47" y="230" on="1"/>
        <pt x="47" y="279" on="0"/>
        <pt x="78" y="368" on="0"/>
        <pt x="138" y="436" on="0"/>
        <pt x="227" y="475" on="0"/>
      </contour>
      <contour>
        <pt x="281" y="419" on="1"/>
        <pt x="215" y="419" on="0"/>
        <pt x="142" y="350" on="0"/>
        <pt x="129" y="298" on="1"/>
        <pt x="402" y="298" on="1"/>
        <pt x="403" y="303" on="0"/>
        <pt x="403" y="311" on="0"/>
        <pt x="403" y="316" on="1"/>
        <pt x="403" y="341" on="0"/>
        <pt x="383" y="380" on="0"/>
        <pt x="349" y="406" on="0"/>
        <pt x="305" y="419" on="0"/>
      </contour>
    </TTGlyph>
    <TTGlyph name="eacute" xMin="47" yMin="-12" xMax="468" yMax="680">
      <contour>
        <pt x="284" y="475" on="1"/>
        <pt x="372" y="475" on="0"/>
        <pt x="468" y="386" on="0"/>
        <pt x="468" y="305" on="1"/>
        <pt x="468" y="288" on="0"/>
        <pt x="464" y="253" on="0"/>
        <pt x="459" y="245" on="1"/>
        <pt x="122" y="245" on="1"/>
        <pt x="122" y="235" on="1"/>
        <pt x="122" y="197" on="0"/>
        <pt x="142" y="127" on="0"/>
        <pt x="182" y="73" on="0"/>
        <pt x="243" y="41" on="0"/>
        <pt x="285" y="41" on="1"/>
        <pt x="333" y="41" on="0"/>
        <pt x="418" y="75" on="0"/>
        <pt x="446" y="95" on="1"/>
        <pt x="459" y="42" on="1"/>
        <pt x="446" y="34" on="0"/>
        <pt x="408" y="15" on="0"/>
        <pt x="362" y="-1" on="0"/>
        <pt x="307" y="-12" on="0"/>
        <pt x="277" y="-12" on="1"/>
        <pt x="221" y="-12" on="0"/>
        <pt x="135" y="27" on="0"/>
        <pt x="77" y="94" on="0"/>
        <pt x="47" y="182" on="0"/>
        <pt x="47" y="230" on="1"/>
        <pt x="47" y="279" on="0"/>
        <pt x="78" y="368" on="0"/>
        <pt x="138" y="436" on="0"/>
        <pt x="227" y="475" on="0"/>
      </contour>
      <contour>
        <pt x="281" y="419" on="1"/>
        <pt x="215" y="419" on="0"/>
        <pt x="142" y="350" on="0"/>
        <pt x="129" y="298" on="1"/>
        <pt x="402" y="298" on="1"/>
        <pt x="403" y="303" on="0"/>
        <pt x="403" y="311" on="0"/>
        <pt x="403" y="316" on="1"/>
        <pt x="403" y="341" on="0"/>
        <pt x="383" y="380" on="0"/>
        <pt x="349" y="406" on="0"/>
        <pt x="305" y="419" on="0"/>
      </contour>
      <contour>
        <pt x="199" y="552" on="1"/>
        <pt x="193" y="572" on="1"/>
        <pt x="196" y="579" on="1"/>
        <pt x="376" y="680" on="1"/>
        <pt x="393" y="679" on="0"/>
        <pt x="411" y="659" on="0"/>
        <pt x="411" y="645" on="1"/>
        <pt x="411" y="641" on="0"/>
        <pt x="410" y="631" on="0"/>
        <pt x="408" y="626" on="1"/>
        <pt x="206" y="549" on="1"/>
      </contour>
    </TTGlyph>
    <TTGlyph name="ecircumflex" xMin="47" yMin="-12" xMax="468" yMax="673">
      <contour>
        <pt x="284" y="475" on="1"/>
        <pt x="372" y="475" on="0"/>
        <pt x="468" y="386" on="0"/>
        <pt x="468" y="305" on="1"/>
        <pt x="468" y="288" on="0"/>
        <pt x="464" y="253" on="0"/>
        <pt x="459" y="245" on="1"/>
        <pt x="122" y="245" on="1"/>
        <pt x="122" y="235" on="1"/>
        <pt x="122" y="197" on="0"/>
        <pt x="142" y="127" on="0"/>
        <pt x="182" y="73" on="0"/>
        <pt x="243" y="41" on="0"/>
        <pt x="285" y="41" on="1"/>
        <pt x="333" y="41" on="0"/>
        <pt x="418" y="75" on="0"/>
        <pt x="446" y="95" on="1"/>
        <pt x="459" y="42" on="1"/>
        <pt x="446" y="34" on="0"/>
        <pt x="408" y="15" on="0"/>
        <pt x="362" y="-1" on="0"/>
        <pt x="307" y="-12" on="0"/>
        <pt x="277" y="-12" on="1"/>
        <pt x="221" y="-12" on="0"/>
        <pt x="135" y="27" on="0"/>
        <pt x="77" y="94" on="0"/>
        <pt x="47" y="182" on="0"/>
        <pt x="47" y="230" on="1"/>
        <pt x="47" y="279" on="0"/>
        <pt x="78" y="368" on="0"/>
        <pt x="138" y="436" on="0"/>
        <pt x="227" y="475" on="0"/>
      </contour>
      <contour>
        <pt x="281" y="419" on="1"/>
        <pt x="215" y="419" on="0"/>
        <pt x="142" y="350" on="0"/>
        <pt x="129" y="298" on="1"/>
        <pt x="402" y="298" on="1"/>
        <pt x="403" y="303" on="0"/>
        <pt x="403" y="311" on="0"/>
        <pt x="403" y="316" on="1"/>
        <pt x="403" y="341" on="0"/>
        <pt x="383" y="380" on="0"/>
        <pt x="349" y="406" on="0"/>
        <pt x="305" y="419" on="0"/>
      </contour>
      <contour>
        <pt x="275" y="673" on="1"/>
        <pt x="386" y="574" on="1"/>
        <pt x="388" y="567" on="1"/>
        <pt x="383" y="548" on="1"/>
        <pt x="375" y="545" on="1"/>
        <pt x="272" y="606" on="1"/>
        <pt x="168" y="545" on="1"/>
        <pt x="160" y="548" on="1"/>
        <pt x="155" y="567" on="1"/>
        <pt x="157" y="574" on="1"/>
        <pt x="268" y="673" on="1"/>
      </contour>
    </TTGlyph>
    <TTGlyph name="edieresis" xMin="47" yMin="-12" xMax="468" yMax="671">
      <contour>
        <pt x="284" y="475" on="1"/>
        <pt x="372" y="475" on="0"/>
        <pt x="468" y="386" on="0"/>
        <pt x="468" y="305" on="1"/>
        <pt x="468" y="288" on="0"/>
        <pt x="464" y="253" on="0"/>
        <pt x="459" y="245" on="1"/>
        <pt x="122" y="245" on="1"/>
        <pt x="122" y="235" on="1"/>
        <pt x="122" y="197" on="0"/>
        <pt x="142" y="127" on="0"/>
        <pt x="182" y="73" on="0"/>
        <pt x="243" y="41" on="0"/>
        <pt x="285" y="41" on="1"/>
        <pt x="333" y="41" on="0"/>
        <pt x="418" y="75" on="0"/>
        <pt x="446" y="95" on="1"/>
        <pt x="459" y="42" on="1"/>
        <pt x="446" y="34" on="0"/>
        <pt x="408" y="15" on="0"/>
        <pt x="362" y="-1" on="0"/>
        <pt x="307" y="-12" on="0"/>
        <pt x="277" y="-12" on="1"/>
        <pt x="221" y="-12" on="0"/>
        <pt x="135" y="27" on="0"/>
        <pt x="77" y="94" on="0"/>
        <pt x="47" y="182" on="0"/>
        <pt x="47" y="230" on="1"/>
        <pt x="47" y="279" on="0"/>
        <pt x="78" y="368" on="0"/>
        <pt x="138" y="436" on="0"/>
        <pt x="227" y="475" on="0"/>
      </contour>
      <contour>
        <pt x="281" y="419" on="1"/>
        <pt x="215" y="419" on="0"/>
        <pt x="142" y="350" on="0"/>
        <pt x="129" y="298" on="1"/>
        <pt x="402" y="298" on="1"/>
        <pt x="403" y="303" on="0"/>
        <pt x="403" y="311" on="0"/>
        <pt x="403" y="316" on="1"/>
        <pt x="403" y="341" on="0"/>
        <pt x="383" y="380" on="0"/>
        <pt x="349" y="406" on="0"/>
        <pt x="305" y="419" on="0"/>
      </contour>
      <contour>
        <pt x="306" y="626" on="1"/>
        <pt x="306" y="644" on="0"/>
        <pt x="330" y="671" on="0"/>
        <pt x="347" y="671" on="1"/>
        <pt x="364" y="671" on="0"/>
        <pt x="389" y="644" on="0"/>
        <pt x="389" y="626" on="1"/>
        <pt x="389" y="607" on="0"/>
        <pt x="364" y="582" on="0"/>
        <pt x="347" y="582" on="1"/>
        <pt x="330" y="582" on="0"/>
        <pt x="306" y="607" on="0"/>
      </contour>
      <contour>
        <pt x="149" y="626" on="1"/>
        <pt x="149" y="644" on="0"/>
        <pt x="173" y="671" on="0"/>
        <pt x="190" y="671" on="1"/>
        <pt x="207" y="671" on="0"/>
        <pt x="232" y="644" on="0"/>
        <pt x="232" y="626" on="1"/>
        <pt x="232" y="607" on="0"/>
        <pt x="207" y="582" on="0"/>
        <pt x="190" y="582" on="1"/>
        <pt x="173" y="582" on="0"/>
        <pt x="149" y="607" on="0"/>
      </contour>
    </TTGlyph>
    <TTGlyph name="egrave" xMin="47" yMin="-12" xMax="468" yMax="680">
      <contour>
        <pt x="284" y="475" on="1"/>
        <pt x="372" y="475" on="0"/>
        <pt x="468" y="386" on="0"/>
        <pt x="468" y="305" on="1"/>
        <pt x="468" y="288" on="0"/>
        <pt x="464" y="253" on="0"/>
        <pt x="459" y="245" on="1"/>
        <pt x="122" y="245" on="1"/>
        <pt x="122" y="235" on="1"/>
        <pt x="122" y="197" on="0"/>
        <pt x="142" y="127" on="0"/>
        <pt x="182" y="73" on="0"/>
        <pt x="243" y="41" on="0"/>
        <pt x="285" y="41" on="1"/>
        <pt x="333" y="41" on="0"/>
        <pt x="418" y="75" on="0"/>
        <pt x="446" y="95" on="1"/>
        <pt x="459" y="42" on="1"/>
        <pt x="446" y="34" on="0"/>
        <pt x="408" y="15" on="0"/>
        <pt x="362" y="-1" on="0"/>
        <pt x="307" y="-12" on="0"/>
        <pt x="277" y="-12" on="1"/>
        <pt x="221" y="-12" on="0"/>
        <pt x="135" y="27" on="0"/>
        <pt x="77" y="94" on="0"/>
        <pt x="47" y="182" on="0"/>
        <pt x="47" y="230" on="1"/>
        <pt x="47" y="279" on="0"/>
        <pt x="78" y="368" on="0"/>
        <pt x="138" y="436" on="0"/>
        <pt x="227" y="475" on="0"/>
      </contour>
      <contour>
        <pt x="281" y="419" on="1"/>
        <pt x="215" y="419" on="0"/>
        <pt x="142" y="350" on="0"/>
        <pt x="129" y="298" on="1"/>
        <pt x="402" y="298" on="1"/>
        <pt x="403" y="303" on="0"/>
        <pt x="403" y="311" on="0"/>
        <pt x="403" y="316" on="1"/>
        <pt x="403" y="341" on="0"/>
        <pt x="383" y="380" on="0"/>
        <pt x="349" y="406" on="0"/>
        <pt x="305" y="419" on="0"/>
      </contour>
      <contour>
        <pt x="343" y="549" on="1"/>
        <pt x="141" y="626" on="1"/>
        <pt x="138" y="636" on="0"/>
        <pt x="138" y="645" on="1"/>
        <pt x="138" y="659" on="0"/>
        <pt x="156" y="679" on="0"/>
        <pt x="173" y="680" on="1"/>
        <pt x="353" y="579" on="1"/>
        <pt x="356" y="572" on="1"/>
        <pt x="351" y="552" on="1"/>
      </contour>
    </TTGlyph>
    <TTGlyph name="eight" xMin="58" yMin="-12" xMax="500" yMax="665">
      <contour>
        <pt x="379" y="362" on="1"/>
        <pt x="437" y="349" on="0"/>
        <pt x="500" y="255" on="0"/>
        <pt x="500" y="188" on="1"/>
        <pt x="500" y="146" on="0"/>
        <pt x="474" y="73" on="0"/>
        <pt x="419" y="19" on="0"/>
        <pt x="335" y="-12" on="0"/>
        <pt x="278" y="-12" on="1"/>
        <pt x="218" y="-12" on="0"/>
        <pt x="134" y="21" on="0"/>
        <pt x="82" y="76" on="0"/>
        <pt x="58" y="148" on="0"/>
        <pt x="58" y="186" on="1"/>
        <pt x="58" y="252" on="0"/>
        <pt x="122" y="344" on="0"/>
        <pt x="179" y="361" on="1"/>
        <pt x="179" y="365" on="1"/>
        <pt x="144" y="378" on="0"/>
        <pt x="91" y="450" on="0"/>
        <pt x="91" y="505" on="1"/>
        <pt x="91" y="577" on="0"/>
        <pt x="189" y="665" on="0"/>
        <pt x="279" y="665" on="1"/>
        <pt x="367" y="665" on="0"/>
        <pt x="467" y="580" on="0"/>
        <pt x="467" y="508" on="1"/>
        <pt x="467" y="455" on="0"/>
        <pt x="416" y="382" on="0"/>
        <pt x="379" y="366" on="1"/>
      </contour>
      <contour>
        <pt x="417" y="181" on="1"/>
        <pt x="417" y="209" on="0"/>
        <pt x="402" y="262" on="0"/>
        <pt x="368" y="303" on="0"/>
        <pt x="315" y="328" on="0"/>
        <pt x="278" y="328" on="1"/>
        <pt x="240" y="328" on="0"/>
        <pt x="187" y="303" on="0"/>
        <pt x="154" y="262" on="0"/>
        <pt x="139" y="209" on="0"/>
        <pt x="139" y="181" on="1"/>
        <pt x="139" y="118" on="0"/>
        <pt x="210" y="49" on="0"/>
        <pt x="278" y="49" on="1"/>
        <pt x="346" y="49" on="0"/>
        <pt x="417" y="118" on="0"/>
      </contour>
      <contour>
        <pt x="385" y="501" on="1"/>
        <pt x="385" y="543" on="0"/>
        <pt x="338" y="602" on="0"/>
        <pt x="278" y="602" on="1"/>
        <pt x="219" y="602" on="0"/>
        <pt x="171" y="545" on="0"/>
        <pt x="171" y="501" on="1"/>
        <pt x="171" y="451" on="0"/>
        <pt x="226" y="388" on="0"/>
        <pt x="278" y="388" on="1"/>
        <pt x="330" y="388" on="0"/>
        <pt x="385" y="451" on="0"/>
      </contour>
    </TTGlyph>
    <TTGlyph name="ellipsis" xMin="71" yMin="-11" xMax="543" yMax="83">
      <contour>
        <pt x="71" y="35" on="1"/>
        <pt x="71" y="54" on="0"/>
        <pt x="97" y="83" on="0"/>
        <pt x="117" y="83" on="1"/>
        <pt x="136" y="83" on="0"/>
        <pt x="165" y="54" on="0"/>
        <pt x="165" y="35" on="1"/>
        <pt x="165" y="16" on="0"/>
        <pt x="136" y="-11" on="0"/>
        <pt x="117" y="-11" on="1"/>
        <pt x="97" y="-11" on="0"/>
        <pt x="71" y="16" on="0"/>
      </contour>
      <contour>
        <pt x="260" y="35" on="1"/>
        <pt x="260" y="54" on="0"/>
        <pt x="287" y="83" on="0"/>
        <pt x="306" y="83" on="1"/>
        <pt x="325" y="83" on="0"/>
        <pt x="354" y="54" on="0"/>
        <pt x="354" y="35" on="1"/>
        <pt x="354" y="16" on="0"/>
        <pt x="325" y="-11" on="0"/>
        <pt x="306" y="-11" on="1"/>
        <pt x="287" y="-11" on="0"/>
        <pt x="260" y="16" on="0"/>
      </contour>
      <contour>
        <pt x="449" y="35" on="1"/>
        <pt x="449" y="54" on="0"/>
        <pt x="476" y="83" on="0"/>
        <pt x="495" y="83" on="1"/>
        <pt x="514" y="83" on="0"/>
        <pt x="543" y="54" on="0"/>
        <pt x="543" y="35" on="1"/>
        <pt x="543" y="16" on="0"/>
        <pt x="514" y="-11" on="0"/>
        <pt x="495" y="-11" on="1"/>
        <pt x="476" y="-11" on="0"/>
        <pt x="449" y="16" on="0"/>
      </contour>
    </TTGlyph>
    <TTGlyph name="emdash" xMin="74" yMin="213" xMax="716" yMax="265">
      <contour>
        <pt x="716" y="265" on="1"/>
        <pt x="716" y="213" on="1"/>
        <pt x="74" y="213" on="1"/>
        <pt x="74" y="265" on="1"/>
      </contour>
    </TTGlyph>
    <TTGlyph name="endash" xMin="74" yMin="213" xMax="488" yMax="265">
      <contour>
        <pt x="488" y="265" on="1"/>
        <pt x="488" y="213" on="1"/>
        <pt x="74" y="213" on="1"/>
        <pt x="74" y="265" on="1"/>
      </contour>
    </TTGlyph>
    <TTGlyph name="equal" xMin="76" yMin="137" xMax="414" yMax="341">
      <contour>
        <pt x="414" y="189" on="1"/>
        <pt x="414" y="137" on="1"/>
        <pt x="76" y="137" on="1"/>
        <pt x="76" y="189" on="1"/>
      </contour>
      <contour>
        <pt x="414" y="341" on="1"/>
        <pt x="414" y="289" on="1"/>
        <pt x="76" y="289" on="1"/>
        <pt x="76" y="341" on="1"/>
      </contour>
    </TTGlyph>
    <TTGlyph name="eth" xMin="48" yMin="-12" xMax="553" yMax="740">
      <contour>
        <pt x="344" y="740" on="1"/>
        <pt x="384" y="704" on="0"/>
        <pt x="418" y="646" on="1"/>
        <pt x="535" y="677" on="1"/>
        <pt x="553" y="629" on="1"/>
        <pt x="441" y="600" on="1"/>
        <pt x="472" y="534" on="0"/>
        <pt x="508" y="373" on="0"/>
        <pt x="508" y="289" on="1"/>
        <pt x="508" y="231" on="0"/>
        <pt x="487" y="122" on="0"/>
        <pt x="434" y="38" on="0"/>
        <pt x="346" y="-12" on="0"/>
        <pt x="279" y="-12" on="1"/>
        <pt x="217" y="-12" on="0"/>
        <pt x="129" y="30" on="0"/>
        <pt x="74" y="100" on="0"/>
        <pt x="48" y="188" on="0"/>
        <pt x="48" y="235" on="1"/>
        <pt x="48" y="283" on="0"/>
        <pt x="75" y="370" on="0"/>
        <pt x="132" y="436" on="0"/>
        <pt x="220" y="475" on="0"/>
        <pt x="281" y="475" on="1"/>
        <pt x="336" y="475" on="0"/>
        <pt x="422" y="438" on="0"/>
        <pt x="442" y="396" on="1"/>
        <pt x="445" y="397" on="1"/>
        <pt x="431" y="457" on="0"/>
        <pt x="403" y="548" on="0"/>
        <pt x="385" y="586" on="1"/>
        <pt x="260" y="554" on="1"/>
        <pt x="243" y="600" on="1"/>
        <pt x="361" y="631" on="1"/>
        <pt x="343" y="660" on="0"/>
        <pt x="299" y="712" on="0"/>
        <pt x="271" y="740" on="1"/>
      </contour>
      <contour>
        <pt x="279" y="41" on="1"/>
        <pt x="320" y="41" on="0"/>
        <pt x="379" y="74" on="0"/>
        <pt x="418" y="129" on="0"/>
        <pt x="437" y="200" on="0"/>
        <pt x="437" y="239" on="1"/>
        <pt x="437" y="329" on="0"/>
        <pt x="348" y="420" on="0"/>
        <pt x="277" y="420" on="1"/>
        <pt x="235" y="420" on="0"/>
        <pt x="176" y="389" on="0"/>
        <pt x="140" y="338" on="0"/>
        <pt x="123" y="272" on="0"/>
        <pt x="123" y="237" on="1"/>
        <pt x="123" y="199" on="0"/>
        <pt x="141" y="129" on="0"/>
        <pt x="179" y="74" on="0"/>
        <pt x="238" y="41" on="0"/>
      </contour>
    </TTGlyph>
    <TTGlyph name="exclam" xMin="81" yMin="-11" xMax="178" yMax="682">
      <contour>
        <pt x="83" y="35" on="1"/>
        <pt x="83" y="54" on="0"/>
        <pt x="110" y="83" on="0"/>
        <pt x="130" y="83" on="1"/>
        <pt x="148" y="83" on="0"/>
        <pt x="177" y="54" on="0"/>
        <pt x="177" y="35" on="1"/>
        <pt x="177" y="16" on="0"/>
        <pt x="148" y="-11" on="0"/>
        <pt x="130" y="-11" on="1"/>
        <pt x="110" y="-11" on="0"/>
        <pt x="83" y="16" on="0"/>
      </contour>
      <contour>
        <pt x="105" y="150" on="1"/>
        <pt x="81" y="682" on="1"/>
        <pt x="178" y="682" on="1"/>
        <pt x="152" y="150" on="1"/>
      </contour>
    </TTGlyph>
    <TTGlyph name="exclamdown" xMin="72" yMin="-218" xMax="169" yMax="475">
      <contour>
        <pt x="74" y="429" on="1"/>
        <pt x="74" y="448" on="0"/>
        <pt x="101" y="475" on="0"/>
        <pt x="121" y="475" on="1"/>
        <pt x="139" y="475" on="0"/>
        <pt x="168" y="448" on="0"/>
        <pt x="168" y="429" on="1"/>
        <pt x="168" y="410" on="0"/>
        <pt x="139" y="381" on="0"/>
        <pt x="121" y="381" on="1"/>
        <pt x="101" y="381" on="0"/>
        <pt x="74" y="410" on="0"/>
      </contour>
      <contour>
        <pt x="143" y="314" on="1"/>
        <pt x="169" y="-218" on="1"/>
        <pt x="72" y="-218" on="1"/>
        <pt x="96" y="314" on="1"/>
      </contour>
    </TTGlyph>
    <TTGlyph name="f" xMin="25" yMin="0" xMax="335" yMax="745">
      <contour>
        <pt x="102" y="413" on="1"/>
        <pt x="25" y="413" on="1"/>
        <pt x="25" y="450" on="1"/>
        <pt x="102" y="459" on="1"/>
        <pt x="102" y="515" on="0"/>
        <pt x="109" y="595" on="0"/>
        <pt x="121" y="650" on="0"/>
        <pt x="136" y="685" on="0"/>
        <pt x="143" y="696" on="1"/>
        <pt x="162" y="724" on="0"/>
        <pt x="218" y="745" on="0"/>
        <pt x="248" y="745" on="1"/>
        <pt x="252" y="745" on="0"/>
        <pt x="272" y="744" on="0"/>
        <pt x="297" y="741" on="0"/>
        <pt x="323" y="734" on="0"/>
        <pt x="335" y="728" on="1"/>
        <pt x="318" y="669" on="1"/>
        <pt x="315" y="669" on="0"/>
        <pt x="293" y="676" on="0"/>
        <pt x="266" y="685" on="0"/>
        <pt x="235" y="693" on="0"/>
        <pt x="223" y="693" on="1"/>
        <pt x="208" y="693" on="0"/>
        <pt x="188" y="676" on="0"/>
        <pt x="177" y="637" on="0"/>
        <pt x="172" y="573" on="0"/>
        <pt x="172" y="526" on="1"/>
        <pt x="172" y="460" on="1"/>
        <pt x="280" y="460" on="1"/>
        <pt x="280" y="413" on="1"/>
        <pt x="172" y="413" on="1"/>
        <pt x="172" y="0" on="1"/>
        <pt x="102" y="0" on="1"/>
      </contour>
    </TTGlyph>
    <TTGlyph name="fi" xMin="25" yMin="0" xMax="447" yMax="745">
      <contour>
        <pt x="102" y="413" on="1"/>
        <pt x="25" y="413" on="1"/>
        <pt x="25" y="450" on="1"/>
        <pt x="102" y="459" on="1"/>
        <pt x="102" y="556" on="0"/>
        <pt x="128" y="667" on="0"/>
        <pt x="150" y="696" on="1"/>
        <pt x="173" y="728" on="0"/>
        <pt x="226" y="745" on="0"/>
        <pt x="252" y="745" on="1"/>
        <pt x="302" y="745" on="0"/>
        <pt x="382" y="712" on="0"/>
        <pt x="409" y="695" on="1"/>
        <pt x="375" y="635" on="1"/>
        <pt x="330" y="663" on="0"/>
        <pt x="268" y="693" on="0"/>
        <pt x="239" y="693" on="1"/>
        <pt x="217" y="693" on="0"/>
        <pt x="191" y="674" on="0"/>
        <pt x="177" y="632" on="0"/>
        <pt x="172" y="566" on="0"/>
        <pt x="172" y="520" on="1"/>
        <pt x="172" y="460" on="1"/>
        <pt x="280" y="460" on="1"/>
        <pt x="280" y="413" on="1"/>
        <pt x="172" y="413" on="1"/>
        <pt x="172" y="0" on="1"/>
        <pt x="102" y="0" on="1"/>
      </contour>
      <contour>
        <pt x="447" y="0" on="1"/>
        <pt x="377" y="0" on="1"/>
        <pt x="377" y="460" on="1"/>
        <pt x="447" y="460" on="1"/>
      </contour>
    </TTGlyph>
    <TTGlyph name="five" xMin="47" yMin="-12" xMax="487" yMax="665">
      <contour>
        <pt x="77" y="317" on="1"/>
        <pt x="114" y="665" on="1"/>
        <pt x="453" y="665" on="1"/>
        <pt x="453" y="595" on="1"/>
        <pt x="177" y="595" on="1"/>
        <pt x="151" y="382" on="1"/>
        <pt x="182" y="389" on="0"/>
        <pt x="250" y="398" on="0"/>
        <pt x="279" y="398" on="1"/>
        <pt x="324" y="398" on="0"/>
        <pt x="401" y="373" on="0"/>
        <pt x="456" y="325" on="0"/>
        <pt x="487" y="254" on="0"/>
        <pt x="487" y="208" on="1"/>
        <pt x="487" y="164" on="0"/>
        <pt x="457" y="84" on="0"/>
        <pt x="396" y="24" on="0"/>
        <pt x="304" y="-12" on="0"/>
        <pt x="242" y="-12" on="1"/>
        <pt x="184" y="-12" on="0"/>
        <pt x="85" y="21" on="0"/>
        <pt x="47" y="50" on="1"/>
        <pt x="68" y="120" on="1"/>
        <pt x="105" y="91" on="0"/>
        <pt x="187" y="54" on="0"/>
        <pt x="243" y="54" on="1"/>
        <pt x="319" y="54" on="0"/>
        <pt x="405" y="129" on="0"/>
        <pt x="405" y="201" on="1"/>
        <pt x="405" y="229" on="0"/>
        <pt x="390" y="276" on="0"/>
        <pt x="353" y="309" on="0"/>
        <pt x="293" y="327" on="0"/>
        <pt x="248" y="327" on="1"/>
        <pt x="213" y="327" on="0"/>
        <pt x="139" y="315" on="0"/>
        <pt x="106" y="302" on="1"/>
      </contour>
    </TTGlyph>
    <TTGlyph name="fl" xMin="25" yMin="0" xMax="453" yMax="745">
      <contour>
        <pt x="102" y="413" on="1"/>
        <pt x="25" y="413" on="1"/>
        <pt x="25" y="450" on="1"/>
        <pt x="102" y="459" on="1"/>
        <pt x="102" y="513" on="0"/>
        <pt x="113" y="591" on="0"/>
        <pt x="131" y="647" on="0"/>
        <pt x="152" y="684" on="0"/>
        <pt x="163" y="696" on="1"/>
        <pt x="188" y="725" on="0"/>
        <pt x="240" y="745" on="0"/>
        <pt x="263" y="745" on="1"/>
        <pt x="273" y="745" on="0"/>
        <pt x="305" y="744" on="0"/>
        <pt x="346" y="739" on="0"/>
        <pt x="394" y="728" on="0"/>
        <pt x="418" y="719" on="1"/>
        <pt x="453" y="740" on="1"/>
        <pt x="453" y="0" on="1"/>
        <pt x="383" y="0" on="1"/>
        <pt x="383" y="665" on="1"/>
        <pt x="355" y="679" on="0"/>
        <pt x="281" y="693" on="0"/>
        <pt x="244" y="693" on="1"/>
        <pt x="228" y="693" on="0"/>
        <pt x="201" y="675" on="0"/>
        <pt x="182" y="635" on="0"/>
        <pt x="172" y="569" on="0"/>
        <pt x="172" y="520" on="1"/>
        <pt x="172" y="460" on="1"/>
        <pt x="280" y="460" on="1"/>
        <pt x="280" y="413" on="1"/>
        <pt x="172" y="413" on="1"/>
        <pt x="172" y="0" on="1"/>
        <pt x="102" y="0" on="1"/>
      </contour>
    </TTGlyph>
    <TTGlyph name="florin" xMin="29" yMin="-258" xMax="585" yMax="745">
      <contour>
        <pt x="351" y="413" on="1"/>
        <pt x="266" y="-3" on="1"/>
        <pt x="255" y="-54" on="0"/>
        <pt x="215" y="-147" on="0"/>
        <pt x="160" y="-217" on="0"/>
        <pt x="92" y="-258" on="0"/>
        <pt x="54" y="-258" on="1"/>
        <pt x="47" y="-258" on="0"/>
        <pt x="35" y="-257" on="0"/>
        <pt x="33" y="-255" on="1"/>
        <pt x="29" y="-197" on="1"/>
        <pt x="35" y="-200" on="0"/>
        <pt x="50" y="-200" on="1"/>
        <pt x="84" y="-200" on="0"/>
        <pt x="133" y="-163" on="0"/>
        <pt x="166" y="-106" on="0"/>
        <pt x="188" y="-35" on="0"/>
        <pt x="195" y="0" on="1"/>
        <pt x="280" y="413" on="1"/>
        <pt x="213" y="413" on="1"/>
        <pt x="213" y="450" on="1"/>
        <pt x="290" y="460" on="1"/>
        <pt x="309" y="550" on="1"/>
        <pt x="322" y="611" on="0"/>
        <pt x="362" y="687" on="0"/>
        <pt x="410" y="730" on="0"/>
        <pt x="465" y="745" on="0"/>
        <pt x="492" y="745" on="1"/>
        <pt x="497" y="745" on="0"/>
        <pt x="519" y="744" on="0"/>
        <pt x="546" y="741" on="0"/>
        <pt x="574" y="734" on="0"/>
        <pt x="585" y="728" on="1"/>
        <pt x="555" y="665" on="1"/>
        <pt x="544" y="676" on="0"/>
        <pt x="501" y="693" on="0"/>
        <pt x="472" y="693" on="1"/>
        <pt x="453" y="693" on="0"/>
        <pt x="427" y="682" on="0"/>
        <pt x="405" y="646" on="0"/>
        <pt x="386" y="580" on="0"/>
        <pt x="375" y="526" on="1"/>
        <pt x="361" y="460" on="1"/>
        <pt x="468" y="460" on="1"/>
        <pt x="468" y="413" on="1"/>
      </contour>
    </TTGlyph>
    <TTGlyph name="four" xMin="31" yMin="0" xMax="459" yMax="660">
      <contour>
        <pt x="459" y="210" on="1"/>
        <pt x="390" y="210" on="1"/>
        <pt x="390" y="0" on="1"/>
        <pt x="315" y="0" on="1"/>
        <pt x="315" y="210" on="1"/>
        <pt x="31" y="210" on="1"/>
        <pt x="31" y="280" on="1"/>
        <pt x="310" y="660" on="1"/>
        <pt x="390" y="660" on="1"/>
        <pt x="390" y="280" on="1"/>
        <pt x="459" y="280" on="1"/>
      </contour>
      <contour>
        <pt x="315" y="280" on="1"/>
        <pt x="315" y="551" on="1"/>
        <pt x="116" y="280" on="1"/>
      </contour>
    </TTGlyph>
    <TTGlyph name="fourinferior" xMin="41" yMin="0" xMax="272" yMax="366">
      <contour>
        <pt x="272" y="111" on="1"/>
        <pt x="236" y="111" on="1"/>
        <pt x="236" y="0" on="1"/>
        <pt x="191" y="0" on="1"/>
        <pt x="191" y="111" on="1"/>
        <pt x="41" y="111" on="1"/>
        <pt x="41" y="153" on="1"/>
        <pt x="188" y="366" on="1"/>
        <pt x="236" y="366" on="1"/>
        <pt x="236" y="153" on="1"/>
        <pt x="272" y="153" on="1"/>
      </contour>
      <contour>
        <pt x="191" y="153" on="1"/>
        <pt x="191" y="307" on="1"/>
        <pt x="92" y="153" on="1"/>
      </contour>
    </TTGlyph>
    <TTGlyph name="foursuperior" xMin="42" yMin="299" xMax="273" yMax="665">
      <contour>
        <pt x="273" y="410" on="1"/>
        <pt x="237" y="410" on="1"/>
        <pt x="237" y="299" on="1"/>
        <pt x="192" y="299" on="1"/>
        <pt x="192" y="410" on="1"/>
        <pt x="42" y="410" on="1"/>
        <pt x="42" y="452" on="1"/>
        <pt x="189" y="665" on="1"/>
        <pt x="237" y="665" on="1"/>
        <pt x="237" y="452" on="1"/>
        <pt x="273" y="452" on="1"/>
      </contour>
      <contour>
        <pt x="192" y="452" on="1"/>
        <pt x="192" y="606" on="1"/>
        <pt x="93" y="452" on="1"/>
      </contour>
    </TTGlyph>
    <TTGlyph name="fraction" xMin="-9" yMin="-24" xMax="519" yMax="691">
      <contour>
        <pt x="56" y="-24" on="1"/>
        <pt x="-9" y="-24" on="1"/>
        <pt x="454" y="691" on="1"/>
        <pt x="519" y="691" on="1"/>
      </contour>
    </TTGlyph>
    <TTGlyph name="g" xMin="32" yMin="-248" xMax="487" yMax="475">
      <contour>
        <pt x="141" y="142" on="1"/>
        <pt x="93" y="161" on="0"/>
        <pt x="51" y="244" on="0"/>
        <pt x="51" y="292" on="1"/>
        <pt x="51" y="331" on="0"/>
        <pt x="77" y="397" on="0"/>
        <pt x="126" y="447" on="0"/>
        <pt x="195" y="475" on="0"/>
        <pt x="239" y="475" on="1"/>
        <pt x="265" y="475" on="0"/>
        <pt x="316" y="465" on="0"/>
        <pt x="335" y="455" on="1"/>
        <pt x="377" y="456" on="0"/>
        <pt x="450" y="464" on="0"/>
        <pt x="482" y="473" on="1"/>
        <pt x="487" y="469" on="1"/>
        <pt x="480" y="414" on="1"/>
        <pt x="475" y="409" on="1"/>
        <pt x="384" y="413" on="1"/>
        <pt x="383" y="410" on="1"/>
        <pt x="409" y="389" on="0"/>
        <pt x="433" y="321" on="0"/>
        <pt x="433" y="289" on="1"/>
        <pt x="433" y="256" on="0"/>
        <pt x="408" y="196" on="0"/>
        <pt x="360" y="151" on="0"/>
        <pt x="289" y="124" on="0"/>
        <pt x="243" y="124" on="1"/>
        <pt x="232" y="124" on="0"/>
        <pt x="216" y="125" on="0"/>
        <pt x="209" y="125" on="1"/>
        <pt x="188" y="118" on="0"/>
        <pt x="167" y="94" on="0"/>
        <pt x="167" y="86" on="1"/>
        <pt x="167" y="76" on="0"/>
        <pt x="194" y="61" on="0"/>
        <pt x="224" y="58" on="1"/>
        <pt x="321" y="48" on="1"/>
        <pt x="354" y="45" on="0"/>
        <pt x="411" y="24" on="0"/>
        <pt x="453" y="-9" on="0"/>
        <pt x="478" y="-56" on="0"/>
        <pt x="478" y="-86" on="1"/>
        <pt x="478" y="-115" on="0"/>
        <pt x="452" y="-176" on="0"/>
        <pt x="426" y="-198" on="1"/>
        <pt x="400" y="-220" on="0"/>
        <pt x="308" y="-248" on="0"/>
        <pt x="248" y="-248" on="1"/>
        <pt x="197" y="-248" on="0"/>
        <pt x="116" y="-227" on="0"/>
        <pt x="61" y="-190" on="0"/>
        <pt x="32" y="-142" on="0"/>
        <pt x="32" y="-115" on="1"/>
        <pt x="32" y="-95" on="0"/>
        <pt x="48" y="-56" on="0"/>
        <pt x="74" y="-22" on="0"/>
        <pt x="109" y="4" on="0"/>
        <pt x="128" y="11" on="1"/>
        <pt x="128" y="15" on="1"/>
        <pt x="87" y="34" on="0"/>
        <pt x="87" y="67" on="1"/>
        <pt x="87" y="88" on="0"/>
        <pt x="118" y="122" on="0"/>
        <pt x="141" y="138" on="1"/>
      </contour>
      <contour>
        <pt x="243" y="174" on="1"/>
        <pt x="271" y="174" on="0"/>
        <pt x="314" y="193" on="0"/>
        <pt x="344" y="224" on="0"/>
        <pt x="360" y="266" on="0"/>
        <pt x="360" y="289" on="1"/>
        <pt x="360" y="312" on="0"/>
        <pt x="344" y="360" on="0"/>
        <pt x="313" y="399" on="0"/>
        <pt x="267" y="423" on="0"/>
        <pt x="237" y="423" on="1"/>
        <pt x="208" y="423" on="0"/>
        <pt x="165" y="400" on="0"/>
        <pt x="136" y="364" on="0"/>
        <pt x="122" y="320" on="0"/>
        <pt x="122" y="298" on="1"/>
        <pt x="122" y="275" on="0"/>
        <pt x="137" y="231" on="0"/>
        <pt x="168" y="196" on="0"/>
        <pt x="213" y="174" on="0"/>
      </contour>
      <contour>
        <pt x="211" y="-5" on="1"/>
        <pt x="188" y="-5" on="0"/>
        <pt x="149" y="-23" on="0"/>
        <pt x="120" y="-51" on="0"/>
        <pt x="103" y="-86" on="0"/>
        <pt x="103" y="-103" on="1"/>
        <pt x="103" y="-141" on="0"/>
        <pt x="184" y="-186" on="0"/>
        <pt x="253" y="-186" on="1"/>
        <pt x="286" y="-186" on="0"/>
        <pt x="343" y="-175" on="0"/>
        <pt x="384" y="-152" on="0"/>
        <pt x="408" y="-119" on="0"/>
        <pt x="408" y="-96" on="1"/>
        <pt x="408" y="-51" on="0"/>
        <pt x="311" y="-12" on="0"/>
      </contour>
    </TTGlyph>
    <TTGlyph name="germandbls" xMin="78" yMin="-12" xMax="511" yMax="736">
      <contour>
        <pt x="148" y="0" on="1"/>
        <pt x="78" y="0" on="1"/>
        <pt x="78" y="486" on="1"/>
        <pt x="78" y="542" on="0"/>
        <pt x="101" y="634" on="0"/>
        <pt x="148" y="700" on="0"/>
        <pt x="217" y="736" on="0"/>
        <pt x="263" y="736" on="1"/>
        <pt x="300" y="736" on="0"/>
        <pt x="360" y="713" on="0"/>
        <pt x="402" y="676" on="0"/>
        <pt x="425" y="627" on="0"/>
        <pt x="425" y="601" on="1"/>
        <pt x="425" y="567" on="0"/>
        <pt x="393" y="510" on="0"/>
        <pt x="355" y="459" on="0"/>
        <pt x="323" y="412" on="0"/>
        <pt x="323" y="390" on="1"/>
        <pt x="323" y="369" on="0"/>
        <pt x="351" y="338" on="0"/>
        <pt x="393" y="308" on="0"/>
        <pt x="441" y="276" on="0"/>
        <pt x="483" y="233" on="0"/>
        <pt x="511" y="177" on="0"/>
        <pt x="511" y="138" on="1"/>
        <pt x="511" y="97" on="0"/>
        <pt x="480" y="40" on="0"/>
        <pt x="435" y="4" on="0"/>
        <pt x="382" y="-12" on="0"/>
        <pt x="360" y="-12" on="1"/>
        <pt x="327" y="-12" on="0"/>
        <pt x="271" y="15" on="0"/>
        <pt x="253" y="32" on="1"/>
        <pt x="273" y="103" on="1"/>
        <pt x="288" y="73" on="0"/>
        <pt x="340" y="40" on="0"/>
        <pt x="367" y="40" on="1"/>
        <pt x="396" y="40" on="0"/>
        <pt x="437" y="83" on="0"/>
        <pt x="437" y="127" on="1"/>
        <pt x="437" y="162" on="0"/>
        <pt x="410" y="210" on="0"/>
        <pt x="370" y="245" on="0"/>
        <pt x="324" y="274" on="0"/>
        <pt x="284" y="307" on="0"/>
        <pt x="257" y="350" on="0"/>
        <pt x="257" y="383" on="1"/>
        <pt x="257" y="418" on="0"/>
        <pt x="286" y="472" on="0"/>
        <pt x="321" y="520" on="0"/>
        <pt x="350" y="568" on="0"/>
        <pt x="350" y="596" on="1"/>
        <pt x="350" y="628" on="0"/>
        <pt x="305" y="675" on="0"/>
        <pt x="259" y="675" on="1"/>
        <pt x="223" y="675" on="0"/>
        <pt x="179" y="643" on="0"/>
        <pt x="155" y="591" on="0"/>
        <pt x="148" y="522" on="0"/>
        <pt x="148" y="486" on="1"/>
      </contour>
    </TTGlyph>
    <TTGlyph name="grave" xMin="0" yMin="549" xMax="219" yMax="680">
      <contour>
        <pt x="205" y="549" on="1"/>
        <pt x="4" y="626" on="1"/>
        <pt x="0" y="635" on="0"/>
        <pt x="0" y="645" on="1"/>
        <pt x="0" y="659" on="0"/>
        <pt x="18" y="679" on="0"/>
        <pt x="35" y="680" on="1"/>
        <pt x="216" y="579" on="1"/>
        <pt x="219" y="572" on="1"/>
        <pt x="213" y="552" on="1"/>
      </contour>
    </TTGlyph>
    <TTGlyph name="greater" xMin="66" yMin="41" xMax="370" yMax="437">
      <contour>
        <pt x="264" y="243" on="1"/>
        <pt x="67" y="374" on="1"/>
        <pt x="85" y="437" on="1"/>
        <pt x="370" y="243" on="1"/>
        <pt x="370" y="238" on="1"/>
        <pt x="84" y="41" on="1"/>
        <pt x="66" y="105" on="1"/>
        <pt x="264" y="238" on="1"/>
      </contour>
    </TTGlyph>
    <TTGlyph name="guillemotleft" xMin="52" yMin="61" xMax="427" yMax="420">
      <contour>
        <pt x="121" y="238" on="1"/>
        <pt x="265" y="61" on="1"/>
        <pt x="185" y="61" on="1"/>
        <pt x="52" y="238" on="1"/>
        <pt x="52" y="243" on="1"/>
        <pt x="186" y="420" on="1"/>
        <pt x="265" y="420" on="1"/>
        <pt x="121" y="243" on="1"/>
      </contour>
      <contour>
        <pt x="283" y="238" on="1"/>
        <pt x="427" y="61" on="1"/>
        <pt x="347" y="61" on="1"/>
        <pt x="214" y="238" on="1"/>
        <pt x="214" y="243" on="1"/>
        <pt x="348" y="420" on="1"/>
        <pt x="427" y="420" on="1"/>
        <pt x="283" y="243" on="1"/>
      </contour>
    </TTGlyph>
    <TTGlyph name="guillemotright" xMin="57" yMin="61" xMax="432" yMax="420">
      <contour>
        <pt x="363" y="243" on="1"/>
        <pt x="219" y="420" on="1"/>
        <pt x="298" y="420" on="1"/>
        <pt x="432" y="243" on="1"/>
        <pt x="432" y="238" on="1"/>
        <pt x="299" y="61" on="1"/>
        <pt x="219" y="61" on="1"/>
        <pt x="363" y="238" on="1"/>
      </contour>
      <contour>
        <pt x="201" y="243" on="1"/>
        <pt x="57" y="420" on="1"/>
        <pt x="136" y="420" on="1"/>
        <pt x="270" y="243" on="1"/>
        <pt x="270" y="238" on="1"/>
        <pt x="137" y="61" on="1"/>
        <pt x="57" y="61" on="1"/>
        <pt x="201" y="238" on="1"/>
      </contour>
    </TTGlyph>
    <TTGlyph name="guilsinglleft" xMin="52" yMin="61" xMax="265" yMax="420">
      <contour>
        <pt x="121" y="238" on="1"/>
        <pt x="265" y="61" on="1"/>
        <pt x="185" y="61" on="1"/>
        <pt x="52" y="238" on="1"/>
        <pt x="52" y="243" on="1"/>
        <pt x="186" y="420" on="1"/>
        <pt x="265" y="420" on="1"/>
        <pt x="121" y="243" on="1"/>
      </contour>
    </TTGlyph>
    <TTGlyph name="guilsinglright" xMin="57" yMin="61" xMax="270" yMax="420">
      <contour>
        <pt x="201" y="243" on="1"/>
        <pt x="57" y="420" on="1"/>
        <pt x="136" y="420" on="1"/>
        <pt x="270" y="243" on="1"/>
        <pt x="270" y="238" on="1"/>
        <pt x="137" y="61" on="1"/>
        <pt x="57" y="61" on="1"/>
        <pt x="201" y="238" on="1"/>
      </contour>
    </TTGlyph>
    <TTGlyph name="h" xMin="78" yMin="0" xMax="471" yMax="740">
      <contour>
        <pt x="401" y="0" on="1"/>
        <pt x="401" y="304" on="1"/>
        <pt x="401" y="365" on="0"/>
        <pt x="347" y="416" on="0"/>
        <pt x="305" y="416" on="1"/>
        <pt x="280" y="416" on="0"/>
        <pt x="231" y="400" on="0"/>
        <pt x="189" y="369" on="0"/>
        <pt x="157" y="324" on="0"/>
        <pt x="148" y="295" on="1"/>
        <pt x="148" y="0" on="1"/>
        <pt x="78" y="0" on="1"/>
        <pt x="78" y="740" on="1"/>
        <pt x="148" y="740" on="1"/>
        <pt x="148" y="374" on="1"/>
        <pt x="161" y="416" on="0"/>
        <pt x="248" y="475" on="0"/>
        <pt x="315" y="475" on="1"/>
        <pt x="347" y="475" on="0"/>
        <pt x="404" y="458" on="0"/>
        <pt x="446" y="420" on="0"/>
        <pt x="471" y="358" on="0"/>
        <pt x="471" y="313" on="1"/>
        <pt x="471" y="0" on="1"/>
      </contour>
    </TTGlyph>
    <TTGlyph name="hyphen" xMin="74" yMin="213" xMax="412" yMax="265">
      <contour>
        <pt x="412" y="265" on="1"/>
        <pt x="412" y="213" on="1"/>
        <pt x="74" y="213" on="1"/>
        <pt x="74" y="265" on="1"/>
      </contour>
    </TTGlyph>
    <TTGlyph name="i" xMin="63" yMin="0" xMax="165" yMax="680">
      <contour>
        <pt x="148" y="0" on="1"/>
        <pt x="78" y="0" on="1"/>
        <pt x="78" y="460" on="1"/>
        <pt x="148" y="460" on="1"/>
      </contour>
      <contour>
        <pt x="63" y="628" on="1"/>
        <pt x="63" y="648" on="0"/>
        <pt x="92" y="680" on="0"/>
        <pt x="113" y="680" on="1"/>
        <pt x="133" y="680" on="0"/>
        <pt x="165" y="648" on="0"/>
        <pt x="165" y="628" on="1"/>
        <pt x="165" y="607" on="0"/>
        <pt x="133" y="578" on="0"/>
        <pt x="113" y="578" on="1"/>
        <pt x="92" y="578" on="0"/>
        <pt x="63" y="607" on="0"/>
      </contour>
    </TTGlyph>
    <TTGlyph name="iacute" xMin="15" yMin="0" xMax="234" yMax="680">
      <contour>
        <pt x="21" y="552" on="1"/>
        <pt x="15" y="572" on="1"/>
        <pt x="18" y="579" on="1"/>
        <pt x="198" y="680" on="1"/>
        <pt x="215" y="679" on="0"/>
        <pt x="234" y="659" on="0"/>
        <pt x="234" y="645" on="1"/>
        <pt x="234" y="635" on="0"/>
        <pt x="230" y="626" on="1"/>
        <pt x="28" y="549" on="1"/>
      </contour>
      <contour>
        <pt x="148" y="0" on="1"/>
        <pt x="78" y="0" on="1"/>
        <pt x="78" y="460" on="1"/>
        <pt x="148" y="460" on="1"/>
      </contour>
    </TTGlyph>
    <TTGlyph name="icircumflex" xMin="-7" yMin="0" xMax="227" yMax="673">
      <contour>
        <pt x="114" y="673" on="1"/>
        <pt x="224" y="574" on="1"/>
        <pt x="227" y="567" on="1"/>
        <pt x="221" y="548" on="1"/>
        <pt x="214" y="545" on="1"/>
        <pt x="110" y="606" on="1"/>
        <pt x="7" y="545" on="1"/>
        <pt x="-1" y="548" on="1"/>
        <pt x="-7" y="567" on="1"/>
        <pt x="-4" y="574" on="1"/>
        <pt x="106" y="673" on="1"/>
      </contour>
      <contour>
        <pt x="148" y="0" on="1"/>
        <pt x="78" y="0" on="1"/>
        <pt x="78" y="460" on="1"/>
        <pt x="148" y="460" on="1"/>
      </contour>
    </TTGlyph>
    <TTGlyph name="idieresis" xMin="-8" yMin="0" xMax="232" yMax="671">
      <contour>
        <pt x="-8" y="626" on="1"/>
        <pt x="-8" y="644" on="0"/>
        <pt x="16" y="671" on="0"/>
        <pt x="33" y="671" on="1"/>
        <pt x="50" y="671" on="0"/>
        <pt x="75" y="644" on="0"/>
        <pt x="75" y="626" on="1"/>
        <pt x="75" y="607" on="0"/>
        <pt x="50" y="582" on="0"/>
        <pt x="33" y="582" on="1"/>
        <pt x="16" y="582" on="0"/>
        <pt x="-8" y="607" on="0"/>
      </contour>
      <contour>
        <pt x="149" y="626" on="1"/>
        <pt x="149" y="644" on="0"/>
        <pt x="173" y="671" on="0"/>
        <pt x="190" y="671" on="1"/>
        <pt x="207" y="671" on="0"/>
        <pt x="232" y="644" on="0"/>
        <pt x="232" y="626" on="1"/>
        <pt x="232" y="607" on="0"/>
        <pt x="207" y="582" on="0"/>
        <pt x="190" y="582" on="1"/>
        <pt x="173" y="582" on="0"/>
        <pt x="149" y="607" on="0"/>
      </contour>
      <contour>
        <pt x="148" y="0" on="1"/>
        <pt x="78" y="0" on="1"/>
        <pt x="78" y="460" on="1"/>
        <pt x="148" y="460" on="1"/>
      </contour>
    </TTGlyph>
    <TTGlyph name="igrave" xMin="-34" yMin="0" xMax="185" yMax="680">
      <contour>
        <pt x="171" y="549" on="1"/>
        <pt x="-30" y="626" on="1"/>
        <pt x="-34" y="635" on="0"/>
        <pt x="-34" y="645" on="1"/>
        <pt x="-34" y="659" on="0"/>
        <pt x="-16" y="679" on="0"/>
        <pt x="1" y="680" on="1"/>
        <pt x="182" y="579" on="1"/>
        <pt x="185" y="572" on="1"/>
        <pt x="179" y="552" on="1"/>
      </contour>
      <contour>
        <pt x="148" y="0" on="1"/>
        <pt x="78" y="0" on="1"/>
        <pt x="78" y="460" on="1"/>
        <pt x="148" y="460" on="1"/>
      </contour>
    </TTGlyph>
    <TTGlyph name="ij" xMin="63" yMin="-258" xMax="393" yMax="680">
      <contour>
        <pt x="148" y="0" on="1"/>
        <pt x="78" y="0" on="1"/>
        <pt x="78" y="460" on="1"/>
        <pt x="148" y="460" on="1"/>
      </contour>
      <contour>
        <pt x="63" y="628" on="1"/>
        <pt x="63" y="648" on="0"/>
        <pt x="92" y="680" on="0"/>
        <pt x="113" y="680" on="1"/>
        <pt x="133" y="680" on="0"/>
        <pt x="165" y="648" on="0"/>
        <pt x="165" y="628" on="1"/>
        <pt x="165" y="607" on="0"/>
        <pt x="133" y="578" on="0"/>
        <pt x="113" y="578" on="1"/>
        <pt x="92" y="578" on="0"/>
        <pt x="63" y="607" on="0"/>
      </contour>
      <contour>
        <pt x="376" y="-3" on="1"/>
        <pt x="376" y="-54" on="0"/>
        <pt x="357" y="-147" on="0"/>
        <pt x="319" y="-217" on="0"/>
        <pt x="261" y="-258" on="0"/>
        <pt x="223" y="-258" on="1"/>
        <pt x="207" y="-258" on="0"/>
        <pt x="201" y="-255" on="1"/>
        <pt x="185" y="-197" on="1"/>
        <pt x="191" y="-200" on="0"/>
        <pt x="207" y="-200" on="1"/>
        <pt x="241" y="-200" on="0"/>
        <pt x="281" y="-161" on="0"/>
        <pt x="301" y="-103" on="0"/>
        <pt x="306" y="-33" on="0"/>
        <pt x="306" y="-2" on="1"/>
        <pt x="306" y="460" on="1"/>
        <pt x="376" y="460" on="1"/>
      </contour>
      <contour>
        <pt x="291" y="628" on="1"/>
        <pt x="291" y="648" on="0"/>
        <pt x="320" y="680" on="0"/>
        <pt x="341" y="680" on="1"/>
        <pt x="361" y="680" on="0"/>
        <pt x="393" y="648" on="0"/>
        <pt x="393" y="628" on="1"/>
        <pt x="393" y="607" on="0"/>
        <pt x="361" y="578" on="0"/>
        <pt x="341" y="578" on="1"/>
        <pt x="320" y="578" on="0"/>
        <pt x="291" y="607" on="0"/>
      </contour>
    </TTGlyph>
    <TTGlyph name="j" xMin="-43" yMin="-258" xMax="165" yMax="680">
      <contour>
        <pt x="148" y="-3" on="1"/>
        <pt x="148" y="-54" on="0"/>
        <pt x="129" y="-147" on="0"/>
        <pt x="91" y="-217" on="0"/>
        <pt x="33" y="-258" on="0"/>
        <pt x="-5" y="-258" on="1"/>
        <pt x="-21" y="-258" on="0"/>
        <pt x="-27" y="-255" on="1"/>
        <pt x="-43" y="-197" on="1"/>
        <pt x="-37" y="-200" on="0"/>
        <pt x="-21" y="-200" on="1"/>
        <pt x="13" y="-200" on="0"/>
        <pt x="53" y="-161" on="0"/>
        <pt x="73" y="-103" on="0"/>
        <pt x="78" y="-33" on="0"/>
        <pt x="78" y="-2" on="1"/>
        <pt x="78" y="460" on="1"/>
        <pt x="148" y="460" on="1"/>
      </contour>
      <contour>
        <pt x="63" y="628" on="1"/>
        <pt x="63" y="648" on="0"/>
        <pt x="92" y="680" on="0"/>
        <pt x="113" y="680" on="1"/>
        <pt x="133" y="680" on="0"/>
        <pt x="165" y="648" on="0"/>
        <pt x="165" y="628" on="1"/>
        <pt x="165" y="607" on="0"/>
        <pt x="133" y="578" on="0"/>
        <pt x="113" y="578" on="1"/>
        <pt x="92" y="578" on="0"/>
        <pt x="63" y="607" on="0"/>
      </contour>
    </TTGlyph>
    <TTGlyph name="k" xMin="78" yMin="0" xMax="462" yMax="740">
      <contour>
        <pt x="266" y="298" on="1"/>
        <pt x="462" y="0" on="1"/>
        <pt x="382" y="0" on="1"/>
        <pt x="217" y="250" on="1"/>
        <pt x="148" y="181" on="1"/>
        <pt x="148" y="0" on="1"/>
        <pt x="78" y="0" on="1"/>
        <pt x="78" y="740" on="1"/>
        <pt x="148" y="740" on="1"/>
        <pt x="148" y="266" on="1"/>
        <pt x="350" y="460" on="1"/>
        <pt x="430" y="460" on="1"/>
      </contour>
    </TTGlyph>
    <TTGlyph name="kgreenlandic" xMin="78" yMin="0" xMax="462" yMax="460">
      <contour>
        <pt x="266" y="298" on="1"/>
        <pt x="462" y="0" on="1"/>
        <pt x="382" y="0" on="1"/>
        <pt x="217" y="250" on="1"/>
        <pt x="148" y="181" on="1"/>
        <pt x="148" y="0" on="1"/>
        <pt x="78" y="0" on="1"/>
        <pt x="78" y="460" on="1"/>
        <pt x="148" y="460" on="1"/>
        <pt x="148" y="266" on="1"/>
        <pt x="350" y="460" on="1"/>
        <pt x="430" y="460" on="1"/>
      </contour>
    </TTGlyph>
    <TTGlyph name="l" xMin="84" yMin="0" xMax="154" yMax="740">
      <contour>
        <pt x="154" y="0" on="1"/>
        <pt x="84" y="0" on="1"/>
        <pt x="84" y="740" on="1"/>
        <pt x="154" y="740" on="1"/>
      </contour>
    </TTGlyph>
    <TTGlyph name="less" xMin="38" yMin="41" xMax="342" yMax="437">
      <contour>
        <pt x="144" y="238" on="1"/>
        <pt x="342" y="105" on="1"/>
        <pt x="324" y="41" on="1"/>
        <pt x="38" y="238" on="1"/>
        <pt x="38" y="243" on="1"/>
        <pt x="323" y="437" on="1"/>
        <pt x="341" y="374" on="1"/>
        <pt x="144" y="243" on="1"/>
      </contour>
    </TTGlyph>
    <TTGlyph name="logicalnot" xMin="76" yMin="117" xMax="556" yMax="341">
      <contour>
        <pt x="556" y="341" on="1"/>
        <pt x="556" y="117" on="1"/>
        <pt x="503" y="117" on="1"/>
        <pt x="503" y="289" on="1"/>
        <pt x="76" y="289" on="1"/>
        <pt x="76" y="341" on="1"/>
      </contour>
    </TTGlyph>
    <TTGlyph name="m" xMin="78" yMin="0" xMax="786" yMax="475">
      <contour>
        <pt x="397" y="0" on="1"/>
        <pt x="397" y="304" on="1"/>
        <pt x="397" y="365" on="0"/>
        <pt x="341" y="416" on="0"/>
        <pt x="299" y="416" on="1"/>
        <pt x="248" y="416" on="0"/>
        <pt x="166" y="353" on="0"/>
        <pt x="148" y="295" on="1"/>
        <pt x="148" y="0" on="1"/>
        <pt x="78" y="0" on="1"/>
        <pt x="78" y="460" on="1"/>
        <pt x="133" y="460" on="1"/>
        <pt x="141" y="374" on="1"/>
        <pt x="145" y="374" on="1"/>
        <pt x="158" y="416" on="0"/>
        <pt x="241" y="475" on="0"/>
        <pt x="307" y="475" on="1"/>
        <pt x="367" y="475" on="0"/>
        <pt x="448" y="422" on="0"/>
        <pt x="459" y="374" on="1"/>
        <pt x="469" y="394" on="0"/>
        <pt x="499" y="430" on="0"/>
        <pt x="541" y="458" on="0"/>
        <pt x="595" y="475" on="0"/>
        <pt x="629" y="475" on="1"/>
        <pt x="660" y="475" on="0"/>
        <pt x="717" y="458" on="0"/>
        <pt x="760" y="420" on="0"/>
        <pt x="786" y="358" on="0"/>
        <pt x="786" y="313" on="1"/>
        <pt x="786" y="0" on="1"/>
        <pt x="716" y="0" on="1"/>
        <pt x="716" y="304" on="1"/>
        <pt x="716" y="365" on="0"/>
        <pt x="660" y="416" on="0"/>
        <pt x="618" y="416" on="1"/>
        <pt x="567" y="416" on="0"/>
        <pt x="485" y="353" on="0"/>
        <pt x="467" y="295" on="1"/>
        <pt x="467" y="0" on="1"/>
      </contour>
    </TTGlyph>
    <TTGlyph name="minus" xMin="76" yMin="213" xMax="490" yMax="265">
      <contour>
        <pt x="490" y="265" on="1"/>
        <pt x="490" y="213" on="1"/>
        <pt x="76" y="213" on="1"/>
        <pt x="76" y="265" on="1"/>
      </contour>
    </TTGlyph>
    <TTGlyph name="mu" xMin="40" yMin="-140" xMax="509" yMax="460">
      <contour>
        <pt x="186" y="460" on="1"/>
        <pt x="186" y="156" on="1"/>
        <pt x="186" y="125" on="0"/>
        <pt x="201" y="83" on="0"/>
        <pt x="226" y="58" on="0"/>
        <pt x="261" y="47" on="0"/>
        <pt x="282" y="47" on="1"/>
        <pt x="307" y="47" on="0"/>
        <pt x="356" y="62" on="0"/>
        <pt x="398" y="92" on="0"/>
        <pt x="430" y="136" on="0"/>
        <pt x="439" y="165" on="1"/>
        <pt x="439" y="460" on="1"/>
        <pt x="509" y="460" on="1"/>
        <pt x="509" y="0" on="1"/>
        <pt x="454" y="0" on="1"/>
        <pt x="446" y="86" on="1"/>
        <pt x="442" y="86" on="1"/>
        <pt x="429" y="44" on="0"/>
        <pt x="339" y="-12" on="0"/>
        <pt x="272" y="-12" on="1"/>
        <pt x="240" y="-12" on="0"/>
        <pt x="182" y="4" on="0"/>
        <pt x="161" y="23" on="1"/>
        <pt x="158" y="10" on="1"/>
        <pt x="141" y="-64" on="0"/>
        <pt x="104" y="-140" on="1"/>
        <pt x="40" y="-111" on="1"/>
        <pt x="58" y="-77" on="0"/>
        <pt x="86" y="-16" on="0"/>
        <pt x="105" y="46" on="0"/>
        <pt x="116" y="110" on="0"/>
        <pt x="116" y="147" on="1"/>
        <pt x="116" y="460" on="1"/>
      </contour>
    </TTGlyph>
    <TTGlyph name="multiply" xMin="71" yMin="80" xMax="387" yMax="397">
      <contour>
        <pt x="228" y="202" on="1"/>
        <pt x="108" y="81" on="1"/>
        <pt x="71" y="118" on="1"/>
        <pt x="191" y="239" on="1"/>
        <pt x="71" y="359" on="1"/>
        <pt x="108" y="396" on="1"/>
        <pt x="228" y="276" on="1"/>
        <pt x="350" y="397" on="1"/>
        <pt x="387" y="360" on="1"/>
        <pt x="265" y="239" on="1"/>
        <pt x="387" y="117" on="1"/>
        <pt x="350" y="80" on="1"/>
      </contour>
    </TTGlyph>
    <TTGlyph name="n" xMin="78" yMin="0" xMax="471" yMax="475">
      <contour>
        <pt x="401" y="0" on="1"/>
        <pt x="401" y="304" on="1"/>
        <pt x="401" y="364" on="0"/>
        <pt x="347" y="416" on="0"/>
        <pt x="305" y="416" on="1"/>
        <pt x="280" y="416" on="0"/>
        <pt x="231" y="400" on="0"/>
        <pt x="189" y="369" on="0"/>
        <pt x="157" y="324" on="0"/>
        <pt x="148" y="295" on="1"/>
        <pt x="148" y="0" on="1"/>
        <pt x="78" y="0" on="1"/>
        <pt x="78" y="460" on="1"/>
        <pt x="133" y="460" on="1"/>
        <pt x="141" y="374" on="1"/>
        <pt x="145" y="374" on="1"/>
        <pt x="158" y="416" on="0"/>
        <pt x="248" y="475" on="0"/>
        <pt x="315" y="475" on="1"/>
        <pt x="347" y="475" on="0"/>
        <pt x="404" y="458" on="0"/>
        <pt x="446" y="420" on="0"/>
        <pt x="471" y="358" on="0"/>
        <pt x="471" y="313" on="1"/>
        <pt x="471" y="0" on="1"/>
      </contour>
    </TTGlyph>
    <TTGlyph name="nine" xMin="51" yMin="-12" xMax="489" yMax="664">
      <contour>
        <pt x="415" y="325" on="1"/>
        <pt x="403" y="303" on="0"/>
        <pt x="367" y="275" on="0"/>
        <pt x="323" y="258" on="0"/>
        <pt x="275" y="251" on="0"/>
        <pt x="251" y="251" on="1"/>
        <pt x="188" y="251" on="0"/>
        <pt x="110" y="294" on="0"/>
        <pt x="67" y="356" on="0"/>
        <pt x="51" y="427" on="0"/>
        <pt x="51" y="454" on="1"/>
        <pt x="51" y="490" on="0"/>
        <pt x="74" y="565" on="0"/>
        <pt x="125" y="626" on="0"/>
        <pt x="206" y="664" on="0"/>
        <pt x="263" y="664" on="1"/>
        <pt x="326" y="664" on="0"/>
        <pt x="412" y="620" on="0"/>
        <pt x="465" y="538" on="0"/>
        <pt x="489" y="423" on="0"/>
        <pt x="489" y="353" on="1"/>
        <pt x="489" y="284" on="0"/>
        <pt x="466" y="153" on="0"/>
        <pt x="409" y="51" on="0"/>
        <pt x="313" y="-12" on="0"/>
        <pt x="241" y="-12" on="1"/>
        <pt x="225" y="-12" on="0"/>
        <pt x="183" y="-8" on="0"/>
        <pt x="139" y="3" on="0"/>
        <pt x="98" y="22" on="0"/>
        <pt x="83" y="36" on="1"/>
        <pt x="100" y="102" on="1"/>
        <pt x="134" y="74" on="0"/>
        <pt x="210" y="53" on="0"/>
        <pt x="240" y="53" on="1"/>
        <pt x="292" y="53" on="0"/>
        <pt x="361" y="96" on="0"/>
        <pt x="402" y="165" on="0"/>
        <pt x="419" y="252" on="0"/>
        <pt x="419" y="295" on="1"/>
        <pt x="419" y="303" on="0"/>
        <pt x="419" y="316" on="0"/>
        <pt x="418" y="324" on="1"/>
      </contour>
      <contour>
        <pt x="129" y="453" on="1"/>
        <pt x="129" y="426" on="0"/>
        <pt x="142" y="375" on="0"/>
        <pt x="171" y="336" on="0"/>
        <pt x="220" y="312" on="0"/>
        <pt x="256" y="312" on="1"/>
        <pt x="331" y="312" on="0"/>
        <pt x="401" y="396" on="0"/>
        <pt x="401" y="459" on="1"/>
        <pt x="401" y="525" on="0"/>
        <pt x="329" y="603" on="0"/>
        <pt x="263" y="603" on="1"/>
        <pt x="201" y="603" on="0"/>
        <pt x="129" y="524" on="0"/>
      </contour>
    </TTGlyph>
    <TTGlyph name="ntilde" xMin="78" yMin="0" xMax="471" yMax="671">
      <contour>
        <pt x="431" y="663" on="1"/>
        <pt x="428" y="649" on="0"/>
        <pt x="415" y="622" on="0"/>
        <pt x="394" y="600" on="0"/>
        <pt x="364" y="586" on="0"/>
        <pt x="343" y="586" on="1"/>
        <pt x="303" y="586" on="0"/>
        <pt x="220" y="600" on="0"/>
        <pt x="188" y="600" on="1"/>
        <pt x="163" y="600" on="0"/>
        <pt x="143" y="587" on="0"/>
        <pt x="133" y="575" on="1"/>
        <pt x="120" y="583" on="1"/>
        <pt x="124" y="596" on="0"/>
        <pt x="138" y="624" on="0"/>
        <pt x="159" y="645" on="0"/>
        <pt x="190" y="659" on="0"/>
        <pt x="211" y="659" on="1"/>
        <pt x="236" y="659" on="0"/>
        <pt x="273" y="655" on="0"/>
        <pt x="305" y="649" on="0"/>
        <pt x="335" y="645" on="0"/>
        <pt x="354" y="645" on="1"/>
        <pt x="371" y="645" on="0"/>
        <pt x="405" y="653" on="0"/>
        <pt x="419" y="671" on="1"/>
      </contour>
      <contour>
        <pt x="401" y="0" on="1"/>
        <pt x="401" y="304" on="1"/>
        <pt x="401" y="365" on="0"/>
        <pt x="347" y="416" on="0"/>
        <pt x="305" y="416" on="1"/>
        <pt x="280" y="416" on="0"/>
        <pt x="231" y="400" on="0"/>
        <pt x="189" y="369" on="0"/>
        <pt x="157" y="324" on="0"/>
        <pt x="148" y="295" on="1"/>
        <pt x="148" y="0" on="1"/>
        <pt x="78" y="0" on="1"/>
        <pt x="78" y="460" on="1"/>
        <pt x="133" y="460" on="1"/>
        <pt x="141" y="374" on="1"/>
        <pt x="145" y="374" on="1"/>
        <pt x="158" y="416" on="0"/>
        <pt x="248" y="475" on="0"/>
        <pt x="315" y="475" on="1"/>
        <pt x="347" y="475" on="0"/>
        <pt x="404" y="458" on="0"/>
        <pt x="446" y="420" on="0"/>
        <pt x="471" y="358" on="0"/>
        <pt x="471" y="313" on="1"/>
        <pt x="471" y="0" on="1"/>
      </contour>
    </TTGlyph>
</ttFont>
